{
.appVersion = "895";
copyright = "Copyright © 2011 by Cyreal";
customParameters = (
{
name = description;
value = "Lora is designed by Olga Karpushina, and Alexei Vanyashin for Cyreal.\012\012This Font Software is licensed under the SIL Open Font License, Version 1.1. \012";
},
{
name = licenseURL;
value = "http://scripts.sil.org/OFL";
},
{
name = fsType;
value = (
);
},
{
name = "Disable Last Change";
value = 1;
}
);
date = "2016-08-10 14:21:55 +0000";
designer = "Olga Karpushina, Alexei Vanyashin (Cyrillic)";
designerURL = "http://cyreal.org";
familyName = Lora;
featurePrefixes = (
{
automatic = 1;
code = "languagesystem DFLT dflt;\012languagesystem latn dflt;\012languagesystem latn ROM;\012languagesystem latn MOL;\012";
name = Languagesystems;
}
);
features = (
{
automatic = 1;
code = "feature locl;\012feature sups;\012feature frac;\012feature ordn;\012feature case;\012";
name = aalt;
},
{
automatic = 1;
code = "script latn;\012language ROM;\012sub Scedilla by Scommaaccent;\012sub scedilla by scommaaccent;\012language MOL;\012sub Scedilla by Scommaaccent;\012sub scedilla by scommaaccent;\012";
name = locl;
},
{
automatic = 1;
code = "sub one by onesuperior;\012sub two by twosuperior;\012sub three by threesuperior;\012";
name = sups;
},
{
automatic = 1;
code = "sub one slash four by onequarter;\012sub one slash two by onehalf;\012sub three slash four by threequarters;\012";
name = frac;
},
{
automatic = 1;
code = "sub [zero one two three four five six seven eight nine] [A a]' by ordfeminine;\012sub [zero one two three four five six seven eight nine] [O o]' by ordmasculine;\012";
name = ordn;
},
{
automatic = 1;
code = "sub breve by breve.case;\012sub circumflex by circumflex.case;\012sub hungarumlaut by hungarumlaut.case;\012";
name = case;
},
{
automatic = 1;
code = "sub f i by fi;\012sub f l by fl;\012";
name = liga;
}
);
fontMaster = (
{
alignmentZones = (
"{744, 16}",
"{700, 16}",
"{500, 16}",
"{-16, 16}",
"{-271, 16}"
);
ascender = 948;
capHeight = 700;

glyphs = (
{
color = 4;
glyphname = A;
layers = (
{
anchors = (
{
name = ogonek;
position = "{601, 0}";
},
{
name = top;
position = "{334, 700}";
}
);
layerId = "7BBBACCF-9772-44A1-910F-14DC7866E88D";
paths = (
{
closed = 1;
nodes = (
"295 718 LINE",
"100 183 LINE SMOOTH",
"78 123 OFFCURVE",
"60 69 OFFCURVE",
"4 69 CURVE",
"4 0 LINE",
"218 0 LINE",
"218 80 LINE",
"204 80 OFFCURVE",
"168 79 OFFCURVE",
"147 77 CURVE",
"158 100 OFFCURVE",
"172 140 OFFCURVE",
"179 158 CURVE SMOOTH",
"195 205 LINE",
"412 209 LINE",
"432 154 LINE SMOOTH",
"451 104 OFFCURVE",
"450 66 OFFCURVE",
"395 66 CURVE",
"395 0 LINE",
"664 0 LINE",
"664 77 LINE",
"650 77 OFFCURVE",
"628 76 OFFCURVE",
"606 74 CURVE",
"603 104 OFFCURVE",
"586 153 OFFCURVE",
"578 173 CURVE SMOOTH",
"365 718 LINE"
);
},
{
closed = 1;
nodes = (
"309 505 OFFCURVE",
"324 453 OFFCURVE",
"341 405 CURVE SMOOTH",
"387 280 LINE",
"220 280 LINE",
"265 410 LINE SMOOTH",
"287 472 OFFCURVE",
"297 519 OFFCURVE",
"302 542 CURVE",
"303 542 LINE"
);
}
);
width = 668;
}
);
leftKerningGroup = A;
rightKerningGroup = A;
unicode = 0041;
},
{
color = 4;
glyphname = AE;
layers = (
{
layerId = "7BBBACCF-9772-44A1-910F-14DC7866E88D";
paths = (
{
closed = 1;
nodes = (
"361 700 LINE",
"361 623 LINE",
"375 624 OFFCURVE",
"415 625 OFFCURVE",
"436 626 CURVE",
"436 625 OFFCURVE",
"436 625 OFFCURVE",
"436 625 CURVE",
"113 171 LINE SMOOTH",
"80 124 OFFCURVE",
"41 66 OFFCURVE",
"-6 66 CURVE",
"-6 0 LINE",
"218 0 LINE",
"218 77 LINE",
"138 74 LINE",
"138 75 LINE",
"159 91 OFFCURVE",
"180 120 OFFCURVE",
"201 151 CURVE SMOOTH",
"236 202 LINE",
"300 203 OFFCURVE",
"370 206 OFFCURVE",
"432 207 CURVE",
"432 153 LINE SMOOTH",
"432 72 OFFCURVE",
"406 68 OFFCURVE",
"361 66 CURVE",
"361 0 LINE",
"889 0 LINE",
"895 220 LINE",
"829 220 LINE",
"829 112 OFFCURVE",
"766 76 OFFCURVE",
"707 76 CURVE SMOOTH",
"573 76 LINE",
"575 93 OFFCURVE",
"577 128 OFFCURVE",
"577 164 CURVE SMOOTH",
"577 328 LINE",
"603 329 LINE SMOOTH",
"657 330 OFFCURVE",
"701 325 OFFCURVE",
"701 241 CURVE",
"767 241 LINE",
"767 484 LINE",
"690 484 LINE",
"691 459 OFFCURVE",
"692 425 OFFCURVE",
"694 397 CURVE",
"577 397 LINE",
"577 547 LINE SMOOTH",
"577 625 OFFCURVE",
"602 633 OFFCURVE",
"644 634 CURVE SMOOTH",
"680 635 LINE SMOOTH",
"734 637 OFFCURVE",
"801 615 OFFCURVE",
"801 506 CURVE",
"867 506 LINE",
"861 700 LINE"
);
},
{
closed = 1;
nodes = (
"434 452 OFFCURVE",
"432 404 OFFCURVE",
"432 362 CURVE SMOOTH",
"432 276 LINE",
"285 276 LINE",
"366 392 LINE SMOOTH",
"389 426 OFFCURVE",
"414 463 OFFCURVE",
"438 500 CURVE"
);
}
);
width = 935;
}
);
leftKerningGroup = A;
rightKerningGroup = E;
unicode = 00C6;
},
{
color = 4;
glyphname = B;
layers = (
{
layerId = "7BBBACCF-9772-44A1-910F-14DC7866E88D";
paths = (
{
closed = 1;
nodes = (
"50 700 LINE",
"50 623 LINE",
"64 624 OFFCURVE",
"104 625 OFFCURVE",
"125 626 CURVE",
"123 609 OFFCURVE",
"121 572 OFFCURVE",
"121 536 CURVE SMOOTH",
"121 153 LINE SMOOTH",
"121 72 OFFCURVE",
"95 68 OFFCURVE",
"50 66 CURVE",
"50 0 LINE",
"390 0 LINE SMOOTH",
"530 0 OFFCURVE",
"633 69 OFFCURVE",
"633 199 CURVE SMOOTH",
"633 282 OFFCURVE",
"572 357 OFFCURVE",
"439 378 CURVE",
"439 379 LINE",
"533 404 OFFCURVE",
"579 462 OFFCURVE",
"583 520 CURVE SMOOTH",
"589 642 OFFCURVE",
"487 703 OFFCURVE",
"327 702 CURVE SMOOTH"
);
},
{
closed = 1;
nodes = (
"411 323 OFFCURVE",
"476 294 OFFCURVE",
"476 202 CURVE SMOOTH",
"476 128 OFFCURVE",
"440 76 OFFCURVE",
"359 72 CURVE SMOOTH",
"328 71 OFFCURVE",
"297 71 OFFCURVE",
"262 71 CURVE",
"264 88 OFFCURVE",
"266 123 OFFCURVE",
"266 159 CURVE SMOOTH",
"266 322 LINE",
"292 323 OFFCURVE",
"313 323 OFFCURVE",
"347 323 CURVE SMOOTH"
);
},
{
closed = 1;
nodes = (
"375 633 OFFCURVE",
"430 607 OFFCURVE",
"430 528 CURVE SMOOTH",
"430 455 OFFCURVE",
"402 396 OFFCURVE",
"318 394 CURVE SMOOTH",
"266 393 LINE",
"266 548 LINE SMOOTH",
"266 625 OFFCURVE",
"292 631 OFFCURVE",
"324 632 CURVE SMOOTH"
);
}
);
width = 661;
}
);
leftKerningGroup = I;
unicode = 0042;
},
{
color = 4;
glyphname = C;
layers = (
{
anchors = (
{
name = bottom;
position = "{412, 0}";
},
{
name = top;
position = "{403, 700}";
}
);
layerId = "7BBBACCF-9772-44A1-910F-14DC7866E88D";
paths = (
{
closed = 1;
nodes = (
"152 716 OFFCURVE",
"35 522 OFFCURVE",
"35 340 CURVE SMOOTH",
"35 141 OFFCURVE",
"172 -16 OFFCURVE",
"378 -16 CURVE SMOOTH",
"460 -16 OFFCURVE",
"581 9 OFFCURVE",
"679 144 CURVE",
"631 188 LINE",
"575 111 OFFCURVE",
"486 65 OFFCURVE",
"402 65 CURVE SMOOTH",
"268 65 OFFCURVE",
"192 188 OFFCURVE",
"192 360 CURVE SMOOTH",
"192 504 OFFCURVE",
"258 644 OFFCURVE",
"398 644 CURVE SMOOTH",
"491 643 OFFCURVE",
"548 587 OFFCURVE",
"566 476 CURVE",
"631 476 LINE",
"631 709 LINE",
"554 709 LINE",
"558 667 LINE",
"557 667 LINE",
"503 699 OFFCURVE",
"437 716 OFFCURVE",
"385 716 CURVE SMOOTH"
);
}
);
width = 688;
}
);
leftKerningGroup = O;
rightKerningGroup = C;
unicode = 0043;
},
{
color = 4;
glyphname = Ccedilla;
layers = (
{
layerId = "7BBBACCF-9772-44A1-910F-14DC7866E88D";
paths = (
{
closed = 1;
nodes = (
"152 716 OFFCURVE",
"36 522 OFFCURVE",
"36 340 CURVE SMOOTH",
"36 169 OFFCURVE",
"136 29 OFFCURVE",
"294 -7 CURVE",
"268 -121 LINE",
"309 -136 LINE",
"329 -120 OFFCURVE",
"376 -109 OFFCURVE",
"376 -146 CURVE SMOOTH",
"376 -187 OFFCURVE",
"289 -214 OFFCURVE",
"257 -220 CURVE",
"265 -275 LINE",
"342 -264 OFFCURVE",
"495 -219 OFFCURVE",
"495 -125 CURVE SMOOTH",
"495 -78 OFFCURVE",
"460 -53 OFFCURVE",
"419 -52 CURVE SMOOTH",
"401 -51 OFFCURVE",
"367 -59 OFFCURVE",
"351 -67 CURVE",
"350 -67 LINE",
"369 -16 LINE",
"372 -16 OFFCURVE",
"375 -16 OFFCURVE",
"378 -16 CURVE SMOOTH",
"461 -16 OFFCURVE",
"582 9 OFFCURVE",
"679 144 CURVE",
"631 188 LINE",
"576 111 OFFCURVE",
"486 65 OFFCURVE",
"403 65 CURVE SMOOTH",
"268 65 OFFCURVE",
"193 188 OFFCURVE",
"193 360 CURVE SMOOTH",
"193 504 OFFCURVE",
"259 644 OFFCURVE",
"398 644 CURVE SMOOTH",
"492 643 OFFCURVE",
"548 587 OFFCURVE",
"566 476 CURVE",
"632 476 LINE",
"632 709 LINE",
"555 709 LINE",
"558 667 LINE",
"557 667 LINE",
"504 699 OFFCURVE",
"438 716 OFFCURVE",
"385 716 CURVE SMOOTH"
);
}
);
width = 691;
}
);
leftKerningGroup = O;
rightKerningGroup = C;
unicode = 00C7;
},
{
color = 4;
glyphname = D;
layers = (
{
anchors = (
{
name = center;
position = "{380, 350}";
},
{
name = top;
position = "{360, 700}";
}
);
layerId = "7BBBACCF-9772-44A1-910F-14DC7866E88D";
paths = (
{
closed = 1;
nodes = (
"50 700 LINE",
"50 623 LINE",
"64 624 OFFCURVE",
"104 625 OFFCURVE",
"125 626 CURVE",
"123 609 OFFCURVE",
"121 572 OFFCURVE",
"121 536 CURVE SMOOTH",
"121 153 LINE SMOOTH",
"121 72 OFFCURVE",
"95 68 OFFCURVE",
"50 66 CURVE",
"50 0 LINE",
"336 0 LINE SMOOTH",
"616 0 OFFCURVE",
"724 194 OFFCURVE",
"724 357 CURVE SMOOTH",
"724 523 OFFCURVE",
"605 702 OFFCURVE",
"341 701 CURVE SMOOTH"
);
},
{
closed = 1;
nodes = (
"478 630 OFFCURVE",
"566 540 OFFCURVE",
"566 336 CURVE SMOOTH",
"566 203 OFFCURVE",
"503 73 OFFCURVE",
"357 73 CURVE SMOOTH",
"333 73 OFFCURVE",
"281 76 OFFCURVE",
"262 74 CURVE",
"264 91 OFFCURVE",
"266 128 OFFCURVE",
"266 164 CURVE SMOOTH",
"266 549 LINE SMOOTH",
"266 626 OFFCURVE",
"290 636 OFFCURVE",
"339 634 CURVE SMOOTH"
);
}
);
width = 759;
}
);
leftKerningGroup = I;
rightKerningGroup = D;
unicode = 0044;
},
{
color = 4;
glyphname = Eth;
layers = (
{
layerId = "7BBBACCF-9772-44A1-910F-14DC7866E88D";
paths = (
{
closed = 1;
nodes = (
"50 701 LINE",
"50 624 LINE",
"64 624 OFFCURVE",
"104 625 OFFCURVE",
"125 626 CURVE",
"123 609 OFFCURVE",
"121 573 OFFCURVE",
"121 537 CURVE SMOOTH",
"121 391 LINE",
"30 391 LINE",
"30 312 LINE",
"121 313 LINE",
"121 153 LINE SMOOTH",
"121 73 OFFCURVE",
"95 69 OFFCURVE",
"50 66 CURVE",
"50 0 LINE",
"336 0 LINE SMOOTH",
"616 0 OFFCURVE",
"724 195 OFFCURVE",
"724 357 CURVE SMOOTH",
"724 524 OFFCURVE",
"605 703 OFFCURVE",
"341 702 CURVE SMOOTH"
);
},
{
closed = 1;
nodes = (
"478 631 OFFCURVE",
"566 541 OFFCURVE",
"566 336 CURVE SMOOTH",
"566 203 OFFCURVE",
"503 74 OFFCURVE",
"357 74 CURVE SMOOTH",
"333 74 OFFCURVE",
"281 76 OFFCURVE",
"262 75 CURVE",
"264 92 OFFCURVE",
"266 128 OFFCURVE",
"266 165 CURVE SMOOTH",
"266 314 LINE",
"421 316 LINE",
"421 391 LINE",
"266 391 LINE",
"266 550 LINE SMOOTH",
"266 626 OFFCURVE",
"290 636 OFFCURVE",
"339 635 CURVE SMOOTH"
);
}
);
width = 759;
}
);
leftKerningGroup = I;
rightKerningGroup = D;
unicode = 00D0;
},
{
color = 4;
glyphname = E;
layers = (
{
anchors = (
{
name = bottom;
position = "{383, 0}";
},
{
name = ogonek;
position = "{562, 5}";
},
{
name = top;
position = "{324, 700}";
}
);
layerId = "7BBBACCF-9772-44A1-910F-14DC7866E88D";
paths = (
{
closed = 1;
nodes = (
"50 700 LINE",
"50 623 LINE",
"64 624 OFFCURVE",
"104 625 OFFCURVE",
"125 626 CURVE",
"123 609 OFFCURVE",
"121 572 OFFCURVE",
"121 536 CURVE SMOOTH",
"121 153 LINE SMOOTH",
"121 72 OFFCURVE",
"95 68 OFFCURVE",
"50 66 CURVE",
"50 0 LINE",
"578 0 LINE",
"583 220 LINE",
"518 220 LINE",
"518 112 OFFCURVE",
"455 76 OFFCURVE",
"396 76 CURVE SMOOTH",
"262 76 LINE",
"264 93 OFFCURVE",
"266 128 OFFCURVE",
"266 164 CURVE SMOOTH",
"266 328 LINE",
"292 329 LINE SMOOTH",
"346 330 OFFCURVE",
"390 325 OFFCURVE",
"390 241 CURVE",
"456 241 LINE",
"456 484 LINE",
"379 484 LINE",
"380 459 OFFCURVE",
"381 425 OFFCURVE",
"383 397 CURVE",
"266 397 LINE",
"266 547 LINE SMOOTH",
"266 625 OFFCURVE",
"291 633 OFFCURVE",
"333 634 CURVE SMOOTH",
"369 635 LINE SMOOTH",
"423 637 OFFCURVE",
"490 615 OFFCURVE",
"490 506 CURVE",
"556 506 LINE",
"550 700 LINE"
);
}
);
width = 624;
}
);
leftKerningGroup = I;
rightKerningGroup = E;
unicode = 0045;
},
{
color = 4;
glyphname = F;
layers = (
{
layerId = "7BBBACCF-9772-44A1-910F-14DC7866E88D";
paths = (
{
closed = 1;
nodes = (
"50 700 LINE",
"50 623 LINE",
"64 624 OFFCURVE",
"104 625 OFFCURVE",
"125 626 CURVE",
"123 609 OFFCURVE",
"121 572 OFFCURVE",
"121 536 CURVE SMOOTH",
"121 153 LINE SMOOTH",
"121 72 OFFCURVE",
"95 68 OFFCURVE",
"50 66 CURVE",
"50 0 LINE",
"351 0 LINE",
"351 77 LINE",
"336 77 OFFCURVE",
"283 76 OFFCURVE",
"262 74 CURVE",
"264 91 OFFCURVE",
"266 128 OFFCURVE",
"266 164 CURVE SMOOTH",
"266 304 LINE",
"278 304 LINE SMOOTH",
"332 306 OFFCURVE",
"376 300 OFFCURVE",
"376 216 CURVE",
"442 216 LINE",
"442 459 LINE",
"365 459 LINE",
"366 435 OFFCURVE",
"367 400 OFFCURVE",
"369 373 CURVE",
"266 373 LINE",
"266 547 LINE SMOOTH",
"266 625 OFFCURVE",
"291 633 OFFCURVE",
"333 634 CURVE SMOOTH",
"369 635 LINE SMOOTH",
"423 637 OFFCURVE",
"490 615 OFFCURVE",
"490 506 CURVE",
"556 506 LINE",
"550 700 LINE"
);
}
);
width = 571;
}
);
leftKerningGroup = I;
unicode = 0046;
},
{
color = 4;
glyphname = G;
layers = (
{
anchors = (
{
name = bottom;
position = "{433, 0}";
},
{
name = top;
position = "{387, 700}";
}
);
layerId = "7BBBACCF-9772-44A1-910F-14DC7866E88D";
paths = (
{
closed = 1;
nodes = (
"150 716 OFFCURVE",
"36 522 OFFCURVE",
"36 340 CURVE SMOOTH",
"36 141 OFFCURVE",
"159 -16 OFFCURVE",
"376 -16 CURVE SMOOTH",
"499 -16 OFFCURVE",
"569 34 OFFCURVE",
"646 34 CURVE SMOOTH",
"670 34 LINE",
"670 194 LINE SMOOTH",
"670 270 OFFCURVE",
"692 279 OFFCURVE",
"737 281 CURVE",
"737 347 LINE",
"471 347 LINE",
"471 270 LINE",
"485 271 OFFCURVE",
"525 271 OFFCURVE",
"546 273 CURVE",
"544 256 OFFCURVE",
"542 219 OFFCURVE",
"542 183 CURVE SMOOTH",
"542 90 LINE",
"505 72 OFFCURVE",
"439 63 OFFCURVE",
"401 63 CURVE SMOOTH",
"265 63 OFFCURVE",
"192 188 OFFCURVE",
"192 360 CURVE SMOOTH",
"192 504 OFFCURVE",
"257 644 OFFCURVE",
"396 644 CURVE SMOOTH",
"490 643 OFFCURVE",
"564 587 OFFCURVE",
"582 476 CURVE",
"647 476 LINE",
"647 709 LINE",
"570 709 LINE",
"574 667 LINE",
"573 667 LINE",
"520 699 OFFCURVE",
"436 716 OFFCURVE",
"383 716 CURVE SMOOTH"
);
}
);
width = 754;
}
);
leftKerningGroup = O;
rightKerningGroup = G;
unicode = 0047;
},
{
color = 4;
glyphname = H;
layers = (
{
anchors = (
{
name = center;
position = "{403, 350}";
},
{
name = top;
position = "{403, 700}";
}
);
layerId = "7BBBACCF-9772-44A1-910F-14DC7866E88D";
paths = (
{
closed = 1;
nodes = (
"470 700 LINE",
"470 623 LINE",
"484 624 OFFCURVE",
"523 625 OFFCURVE",
"545 626 CURVE",
"542 609 OFFCURVE",
"541 572 OFFCURVE",
"541 536 CURVE SMOOTH",
"541 391 LINE",
"266 391 LINE",
"266 547 LINE SMOOTH",
"266 628 OFFCURVE",
"292 632 OFFCURVE",
"337 634 CURVE",
"337 700 LINE",
"50 700 LINE",
"50 623 LINE",
"64 624 OFFCURVE",
"104 625 OFFCURVE",
"125 626 CURVE",
"123 609 OFFCURVE",
"121 572 OFFCURVE",
"121 536 CURVE SMOOTH",
"121 153 LINE SMOOTH",
"121 72 OFFCURVE",
"95 68 OFFCURVE",
"50 66 CURVE",
"50 0 LINE",
"337 0 LINE",
"337 77 LINE",
"323 77 OFFCURVE",
"283 76 OFFCURVE",
"262 74 CURVE",
"264 91 OFFCURVE",
"266 128 OFFCURVE",
"266 164 CURVE SMOOTH",
"266 312 LINE",
"541 315 LINE",
"541 153 LINE SMOOTH",
"541 72 OFFCURVE",
"515 68 OFFCURVE",
"470 66 CURVE",
"470 0 LINE",
"757 0 LINE",
"757 77 LINE",
"743 77 OFFCURVE",
"703 76 OFFCURVE",
"682 74 CURVE",
"684 91 OFFCURVE",
"686 128 OFFCURVE",
"686 164 CURVE SMOOTH",
"686 547 LINE SMOOTH",
"686 628 OFFCURVE",
"712 632 OFFCURVE",
"757 634 CURVE",
"757 700 LINE"
);
}
);
width = 807;
}
);
leftKerningGroup = I;
rightKerningGroup = I;
unicode = 0048;
},
{
color = 4;
glyphname = I;
layers = (
{
anchors = (
{
name = ogonek;
position = "{336, 0}";
},
{
name = top;
position = "{192, 700}";
}
);
layerId = "7BBBACCF-9772-44A1-910F-14DC7866E88D";
paths = (
{
closed = 1;
nodes = (
"50 700 LINE",
"50 623 LINE",
"64 624 OFFCURVE",
"104 625 OFFCURVE",
"125 626 CURVE",
"123 609 OFFCURVE",
"121 572 OFFCURVE",
"121 536 CURVE SMOOTH",
"121 153 LINE SMOOTH",
"121 72 OFFCURVE",
"95 68 OFFCURVE",
"50 66 CURVE",
"50 0 LINE",
"337 0 LINE",
"337 77 LINE",
"323 77 OFFCURVE",
"283 76 OFFCURVE",
"262 74 CURVE",
"264 91 OFFCURVE",
"266 128 OFFCURVE",
"266 164 CURVE SMOOTH",
"266 547 LINE SMOOTH",
"266 628 OFFCURVE",
"292 632 OFFCURVE",
"337 634 CURVE",
"337 700 LINE"
);
}
);
width = 387;
}
);
leftKerningGroup = I;
rightKerningGroup = I;
unicode = 0049;
},
{
color = 4;
glyphname = Icircumflex;
layers = (
{
layerId = "7BBBACCF-9772-44A1-910F-14DC7866E88D";
paths = (
{
closed = 1;
nodes = (
"50 700 LINE",
"50 623 LINE",
"64 624 OFFCURVE",
"104 625 OFFCURVE",
"125 626 CURVE",
"123 609 OFFCURVE",
"121 572 OFFCURVE",
"121 536 CURVE SMOOTH",
"121 153 LINE SMOOTH",
"121 72 OFFCURVE",
"95 68 OFFCURVE",
"50 66 CURVE",
"50 0 LINE",
"337 0 LINE",
"337 77 LINE",
"323 77 OFFCURVE",
"283 76 OFFCURVE",
"262 74 CURVE",
"264 91 OFFCURVE",
"266 128 OFFCURVE",
"266 164 CURVE SMOOTH",
"266 547 LINE SMOOTH",
"266 628 OFFCURVE",
"292 632 OFFCURVE",
"337 634 CURVE",
"337 700 LINE"
);
},
{
closed = 1;
nodes = (
"190 971 LINE",
"25 821 LINE",
"52 776 LINE",
"195 861 LINE",
"334 774 LINE",
"366 821 LINE",
"209 971 LINE"
);
}
);
width = 387;
}
);
leftKerningGroup = I;
rightKerningGroup = I;
unicode = 00CE;
},
{
color = 4;
glyphname = Idieresis;
layers = (
{
layerId = "7BBBACCF-9772-44A1-910F-14DC7866E88D";
paths = (
{
closed = 1;
nodes = (
"50 700 LINE",
"50 623 LINE",
"64 624 OFFCURVE",
"104 625 OFFCURVE",
"125 626 CURVE",
"123 609 OFFCURVE",
"121 572 OFFCURVE",
"121 536 CURVE SMOOTH",
"121 153 LINE SMOOTH",
"121 72 OFFCURVE",
"95 68 OFFCURVE",
"50 66 CURVE",
"50 0 LINE",
"337 0 LINE",
"337 77 LINE",
"323 77 OFFCURVE",
"283 76 OFFCURVE",
"262 74 CURVE",
"264 91 OFFCURVE",
"266 128 OFFCURVE",
"266 164 CURVE SMOOTH",
"266 547 LINE SMOOTH",
"266 628 OFFCURVE",
"292 632 OFFCURVE",
"337 634 CURVE",
"337 700 LINE"
);
},
{
closed = 1;
nodes = (
"78 949 OFFCURVE",
"46 914 OFFCURVE",
"46 872 CURVE SMOOTH",
"46 830 OFFCURVE",
"77 797 OFFCURVE",
"112 797 CURVE SMOOTH",
"148 797 OFFCURVE",
"179 830 OFFCURVE",
"179 872 CURVE SMOOTH",
"179 914 OFFCURVE",
"151 949 OFFCURVE",
"113 949 CURVE SMOOTH"
);
},
{
closed = 1;
nodes = (
"252 949 OFFCURVE",
"220 914 OFFCURVE",
"220 872 CURVE SMOOTH",
"220 830 OFFCURVE",
"251 797 OFFCURVE",
"287 797 CURVE SMOOTH",
"322 797 OFFCURVE",
"354 830 OFFCURVE",
"354 872 CURVE SMOOTH",
"354 914 OFFCURVE",
"325 949 OFFCURVE",
"288 949 CURVE SMOOTH"
);
}
);
width = 387;
}
);
leftKerningGroup = I;
rightKerningGroup = I;
unicode = 00CF;
},
{
color = 4;
glyphname = J;
layers = (
{
anchors = (
{
name = top;
position = "{256, 700}";
}
);
layerId = "7BBBACCF-9772-44A1-910F-14DC7866E88D";
paths = (
{
closed = 1;
nodes = (
"137 700 LINE",
"137 623 LINE",
"151 624 OFFCURVE",
"190 625 OFFCURVE",
"212 626 CURVE",
"209 609 OFFCURVE",
"208 572 OFFCURVE",
"208 536 CURVE SMOOTH",
"208 135 LINE SMOOTH",
"208 79 OFFCURVE",
"192 56 OFFCURVE",
"164 56 CURVE SMOOTH",
"157 56 OFFCURVE",
"139 59 OFFCURVE",
"133 72 CURVE",
"139 84 OFFCURVE",
"143 98 OFFCURVE",
"142 109 CURVE SMOOTH",
"141 143 OFFCURVE",
"120 177 OFFCURVE",
"70 174 CURVE SMOOTH",
"25 172 OFFCURVE",
"1 133 OFFCURVE",
"1 91 CURVE SMOOTH",
"1 29 OFFCURVE",
"65 -16 OFFCURVE",
"144 -16 CURVE SMOOTH",
"279 -16 OFFCURVE",
"353 62 OFFCURVE",
"353 254 CURVE SMOOTH",
"353 547 LINE SMOOTH",
"353 628 OFFCURVE",
"379 632 OFFCURVE",
"424 634 CURVE",
"424 700 LINE"
);
}
);
width = 451;
}
);
leftKerningGroup = J;
rightKerningGroup = J;
unicode = 004A;
},
{
color = 4;
glyphname = Jcircumflex;
layers = (
{
components = (
{
name = J;
}
);
layerId = "7BBBACCF-9772-44A1-910F-14DC7866E88D";
paths = (
{
closed = 1;
nodes = (
"273 971 LINE",
"108 821 LINE",
"135 776 LINE",
"278 861 LINE",
"417 774 LINE",
"449 821 LINE",
"292 971 LINE"
);
}
);
width = 451;
}
);
leftKerningGroup = J;
rightKerningGroup = J;
unicode = 0134;
},
{
color = 4;
glyphname = K;
layers = (
{
anchors = (
{
name = bottom;
position = "{409, 0}";
},
{
name = top;
position = "{371, 700}";
}
);
layerId = "7BBBACCF-9772-44A1-910F-14DC7866E88D";
paths = (
{
closed = 1;
nodes = (
"420 700 LINE",
"420 623 LINE",
"434 624 OFFCURVE",
"462 625 OFFCURVE",
"483 627 CURVE",
"483 626 LINE",
"466 612 OFFCURVE",
"438 566 OFFCURVE",
"415 526 CURVE SMOOTH",
"338 395 LINE",
"266 395 LINE",
"266 547 LINE SMOOTH",
"266 628 OFFCURVE",
"292 632 OFFCURVE",
"337 634 CURVE",
"337 700 LINE",
"50 700 LINE",
"50 623 LINE",
"64 624 OFFCURVE",
"104 625 OFFCURVE",
"125 626 CURVE",
"123 609 OFFCURVE",
"121 572 OFFCURVE",
"121 536 CURVE SMOOTH",
"121 153 LINE SMOOTH",
"121 72 OFFCURVE",
"95 68 OFFCURVE",
"50 66 CURVE",
"50 0 LINE",
"337 0 LINE",
"337 77 LINE",
"323 77 OFFCURVE",
"283 76 OFFCURVE",
"262 74 CURVE",
"264 91 OFFCURVE",
"266 128 OFFCURVE",
"266 164 CURVE SMOOTH",
"266 315 LINE",
"278 315 OFFCURVE",
"300 315 OFFCURVE",
"302 315 CURVE",
"320 302 OFFCURVE",
"342 271 OFFCURVE",
"360 246 CURVE",
"459 102 LINE SMOOTH",
"486 63 OFFCURVE",
"541 1 OFFCURVE",
"557 0 CURVE",
"711 0 LINE",
"711 66 LINE",
"666 68 OFFCURVE",
"620 117 OFFCURVE",
"580 174 CURVE SMOOTH",
"477 319 LINE SMOOTH",
"461 341 OFFCURVE",
"440 361 OFFCURVE",
"414 377 CURVE",
"414 378 LINE",
"510 532 LINE SMOOTH",
"565 621 OFFCURVE",
"620 632 OFFCURVE",
"665 634 CURVE",
"665 700 LINE"
);
}
);
width = 712;
}
);
leftKerningGroup = I;
rightKerningGroup = K;
unicode = 004B;
},
{
color = 4;
glyphname = L;
layers = (
{
anchors = (
{
name = bottom;
position = "{348, 0}";
},
{
name = top;
position = "{205, 700}";
}
);
layerId = "7BBBACCF-9772-44A1-910F-14DC7866E88D";
paths = (
{
closed = 1;
nodes = (
"50 700 LINE",
"50 623 LINE",
"64 624 OFFCURVE",
"104 625 OFFCURVE",
"125 626 CURVE",
"123 609 OFFCURVE",
"121 572 OFFCURVE",
"121 536 CURVE SMOOTH",
"121 153 LINE SMOOTH",
"121 72 OFFCURVE",
"95 68 OFFCURVE",
"50 66 CURVE",
"50 0 LINE",
"583 0 LINE",
"589 240 LINE",
"522 240 LINE",
"522 131 OFFCURVE",
"475 77 OFFCURVE",
"396 76 CURVE SMOOTH",
"262 76 LINE",
"264 93 OFFCURVE",
"266 128 OFFCURVE",
"266 164 CURVE SMOOTH",
"266 547 LINE SMOOTH",
"266 628 OFFCURVE",
"292 632 OFFCURVE",
"337 634 CURVE",
"337 700 LINE"
);
}
);
width = 604;
}
);
leftKerningGroup = I;
rightKerningGroup = L;
unicode = 004C;
},
{
color = 4;
glyphname = Lslash;
layers = (
{
layerId = "7BBBACCF-9772-44A1-910F-14DC7866E88D";
paths = (
{
closed = 1;
nodes = (
"50 700 LINE",
"50 623 LINE",
"64 623 OFFCURVE",
"104 624 OFFCURVE",
"125 625 CURVE",
"123 608 OFFCURVE",
"122 572 OFFCURVE",
"122 536 CURVE SMOOTH",
"122 349 LINE",
"45 292 LINE",
"45 177 LINE",
"122 234 LINE",
"122 152 LINE SMOOTH",
"122 72 OFFCURVE",
"95 68 OFFCURVE",
"50 65 CURVE",
"50 0 LINE",
"583 0 LINE",
"589 239 LINE",
"523 239 LINE",
"523 131 OFFCURVE",
"475 76 OFFCURVE",
"396 76 CURVE SMOOTH",
"262 75 LINE",
"265 92 OFFCURVE",
"266 127 OFFCURVE",
"266 164 CURVE SMOOTH",
"266 343 LINE",
"436 469 LINE",
"436 582 LINE",
"266 456 LINE",
"266 547 LINE SMOOTH",
"266 627 OFFCURVE",
"292 631 OFFCURVE",
"337 634 CURVE",
"337 700 LINE"
);
}
);
width = 605;
}
);
leftKerningGroup = I;
rightKerningGroup = L;
unicode = 0141;
},
{
color = 4;
glyphname = M;
layers = (
{
layerId = "7BBBACCF-9772-44A1-910F-14DC7866E88D";
paths = (
{
closed = 1;
nodes = (
"684 700 LINE",
"529 287 LINE SMOOTH",
"513 245 OFFCURVE",
"499 201 OFFCURVE",
"482 155 CURVE",
"481 155 LINE",
"471 189 OFFCURVE",
"443 267 OFFCURVE",
"425 313 CURVE SMOOTH",
"274 700 LINE",
"53 700 LINE",
"53 623 LINE",
"67 624 OFFCURVE",
"107 625 OFFCURVE",
"128 626 CURVE",
"126 609 OFFCURVE",
"125 572 OFFCURVE",
"124 536 CURVE SMOOTH",
"118 153 LINE SMOOTH",
"117 72 OFFCURVE",
"92 68 OFFCURVE",
"47 66 CURVE",
"47 0 LINE",
"275 0 LINE",
"275 77 LINE",
"261 77 OFFCURVE",
"221 76 OFFCURVE",
"199 74 CURVE",
"202 91 OFFCURVE",
"204 128 OFFCURVE",
"204 164 CURVE SMOOTH",
"205 345 LINE SMOOTH",
"206 405 OFFCURVE",
"204 470 OFFCURVE",
"202 545 CURVE",
"203 545 LINE",
"224 449 OFFCURVE",
"257 356 OFFCURVE",
"273 319 CURVE SMOOTH",
"408 -10 LINE",
"501 -10 LINE",
"706 538 LINE",
"707 538 LINE",
"709 477 OFFCURVE",
"714 389 OFFCURVE",
"715 365 CURVE SMOOTH",
"723 153 LINE SMOOTH",
"726 72 OFFCURVE",
"697 68 OFFCURVE",
"652 66 CURVE",
"652 0 LINE",
"930 0 LINE",
"930 77 LINE",
"916 77 OFFCURVE",
"876 76 OFFCURVE",
"854 74 CURVE",
"857 91 OFFCURVE",
"860 128 OFFCURVE",
"858 164 CURVE SMOOTH",
"843 547 LINE SMOOTH",
"840 628 OFFCURVE",
"870 632 OFFCURVE",
"915 634 CURVE",
"915 700 LINE"
);
}
);
width = 972;
}
);
unicode = 004D;
},
{
color = 4;
glyphname = N;
layers = (
{
anchors = (
{
name = bottom;
position = "{406, 0}";
},
{
name = top;
position = "{387, 700}";
}
);
layerId = "7BBBACCF-9772-44A1-910F-14DC7866E88D";
paths = (
{
closed = 1;
nodes = (
"510 700 LINE",
"510 623 LINE",
"524 624 OFFCURVE",
"564 625 OFFCURVE",
"585 626 CURVE",
"583 609 OFFCURVE",
"582 572 OFFCURVE",
"582 536 CURVE SMOOTH",
"582 219 LINE",
"581 219 LINE",
"565 242 OFFCURVE",
"544 271 OFFCURVE",
"511 314 CURVE SMOOTH",
"205 700 LINE",
"48 700 LINE",
"48 623 LINE",
"63 624 OFFCURVE",
"102 625 OFFCURVE",
"124 626 CURVE",
"121 609 OFFCURVE",
"120 572 OFFCURVE",
"120 536 CURVE SMOOTH",
"122 153 LINE SMOOTH",
"122 72 OFFCURVE",
"96 68 OFFCURVE",
"51 66 CURVE",
"51 0 LINE",
"279 0 LINE",
"279 77 LINE",
"265 77 OFFCURVE",
"225 76 OFFCURVE",
"204 74 CURVE",
"206 91 OFFCURVE",
"208 128 OFFCURVE",
"208 164 CURVE SMOOTH",
"206 474 LINE",
"207 474 LINE",
"226 447 OFFCURVE",
"245 421 OFFCURVE",
"262 399 CURVE SMOOTH",
"582 -10 LINE",
"667 -10 LINE",
"667 547 LINE SMOOTH",
"667 628 OFFCURVE",
"693 632 OFFCURVE",
"738 634 CURVE",
"738 700 LINE"
);
}
);
width = 773;
}
);
leftKerningGroup = I;
rightKerningGroup = N;
unicode = 004E;
},
{
color = 4;
glyphname = O;
layers = (
{
anchors = (
{
name = top;
position = "{384, 700}";
}
);
layerId = "7BBBACCF-9772-44A1-910F-14DC7866E88D";
paths = (
{
closed = 1;
nodes = (
"149 716 OFFCURVE",
"35 518 OFFCURVE",
"35 350 CURVE SMOOTH",
"35 176 OFFCURVE",
"130 -16 OFFCURVE",
"383 -16 CURVE SMOOTH",
"620 -16 OFFCURVE",
"734 185 OFFCURVE",
"734 350 CURVE SMOOTH",
"734 517 OFFCURVE",
"629 716 OFFCURVE",
"386 716 CURVE SMOOTH"
);
},
{
closed = 1;
nodes = (
"512 646 OFFCURVE",
"576 516 OFFCURVE",
"576 333 CURVE SMOOTH",
"576 210 OFFCURVE",
"532 58 OFFCURVE",
"394 57 CURVE SMOOTH",
"242 56 OFFCURVE",
"192 237 OFFCURVE",
"192 362 CURVE SMOOTH",
"192 485 OFFCURVE",
"236 640 OFFCURVE",
"373 643 CURVE SMOOTH"
);
}
);
width = 769;
}
);
leftKerningGroup = O;
rightKerningGroup = O;
unicode = 004F;
},
{
color = 4;
glyphname = Oslash;
layers = (
{
layerId = "7BBBACCF-9772-44A1-910F-14DC7866E88D";
paths = (
{
closed = 1;
nodes = (
"537 686 LINE",
"494 705 OFFCURVE",
"444 716 OFFCURVE",
"386 716 CURVE SMOOTH",
"149 716 OFFCURVE",
"35 518 OFFCURVE",
"35 350 CURVE SMOOTH",
"35 239 OFFCURVE",
"74 121 OFFCURVE",
"167 50 CURVE",
"109 -49 LINE",
"184 -99 LINE",
"246 7 LINE",
"285 -8 OFFCURVE",
"331 -16 OFFCURVE",
"383 -16 CURVE SMOOTH",
"620 -16 OFFCURVE",
"734 185 OFFCURVE",
"734 350 CURVE SMOOTH",
"734 450 OFFCURVE",
"697 561 OFFCURVE",
"614 635 CURVE",
"675 737 LINE",
"596 787 LINE"
);
},
{
closed = 1;
nodes = (
"566 468 OFFCURVE",
"576 404 OFFCURVE",
"576 333 CURVE SMOOTH",
"576 210 OFFCURVE",
"532 58 OFFCURVE",
"394 57 CURVE SMOOTH",
"354 57 OFFCURVE",
"321 69 OFFCURVE",
"294 89 CURVE",
"546 519 LINE"
);
},
{
closed = 1;
nodes = (
"420 644 OFFCURVE",
"458 630 OFFCURVE",
"489 604 CURVE",
"234 166 LINE",
"204 226 OFFCURVE",
"192 300 OFFCURVE",
"192 362 CURVE SMOOTH",
"192 485 OFFCURVE",
"236 640 OFFCURVE",
"373 643 CURVE SMOOTH"
);
}
);
width = 768;
}
);
leftKerningGroup = O;
rightKerningGroup = O;
unicode = 00D8;
},
{
color = 4;
glyphname = OE;
layers = (
{
layerId = "7BBBACCF-9772-44A1-910F-14DC7866E88D";
paths = (
{
closed = 1;
nodes = (
"141 716 OFFCURVE",
"36 520 OFFCURVE",
"36 337 CURVE SMOOTH",
"36 139 OFFCURVE",
"172 -12 OFFCURVE",
"378 -16 CURVE SMOOTH",
"422 -17 OFFCURVE",
"477 -14 OFFCURVE",
"525 0 CURVE",
"981 0 LINE",
"987 220 LINE",
"921 220 LINE",
"921 112 OFFCURVE",
"859 76 OFFCURVE",
"800 76 CURVE SMOOTH",
"666 76 LINE",
"668 93 OFFCURVE",
"669 128 OFFCURVE",
"669 164 CURVE SMOOTH",
"669 328 LINE",
"696 329 LINE SMOOTH",
"750 330 OFFCURVE",
"794 325 OFFCURVE",
"794 241 CURVE",
"860 241 LINE",
"860 484 LINE",
"783 484 LINE",
"784 459 OFFCURVE",
"785 425 OFFCURVE",
"787 397 CURVE",
"669 397 LINE",
"669 547 LINE SMOOTH",
"669 625 OFFCURVE",
"694 633 OFFCURVE",
"736 634 CURVE SMOOTH",
"772 635 LINE SMOOTH",
"827 637 OFFCURVE",
"894 615 OFFCURVE",
"894 506 CURVE",
"960 506 LINE",
"954 700 LINE",
"525 700 LINE",
"483 711 OFFCURVE",
"433 716 OFFCURVE",
"396 716 CURVE SMOOTH"
);
},
{
closed = 1;
nodes = (
"444 644 OFFCURVE",
"490 634 OFFCURVE",
"525 611 CURVE",
"525 82 LINE",
"489 67 OFFCURVE",
"449 62 OFFCURVE",
"403 65 CURVE SMOOTH",
"268 75 OFFCURVE",
"193 188 OFFCURVE",
"193 360 CURVE SMOOTH",
"193 504 OFFCURVE",
"255 644 OFFCURVE",
"395 644 CURVE SMOOTH"
);
}
);
width = 1028;
}
);
leftKerningGroup = O;
rightKerningGroup = E;
unicode = 0152;
},
{
color = 4;
glyphname = P;
layers = (
{
layerId = "7BBBACCF-9772-44A1-910F-14DC7866E88D";
paths = (
{
closed = 1;
nodes = (
"50 700 LINE",
"50 623 LINE",
"64 624 OFFCURVE",
"104 625 OFFCURVE",
"125 626 CURVE",
"123 609 OFFCURVE",
"121 572 OFFCURVE",
"121 536 CURVE SMOOTH",
"121 153 LINE SMOOTH",
"121 72 OFFCURVE",
"95 68 OFFCURVE",
"50 66 CURVE",
"50 0 LINE",
"347 0 LINE",
"347 77 LINE",
"333 77 OFFCURVE",
"283 76 OFFCURVE",
"262 74 CURVE",
"264 91 OFFCURVE",
"266 128 OFFCURVE",
"266 165 CURVE SMOOTH",
"266 253 LINE",
"289 252 OFFCURVE",
"308 252 OFFCURVE",
"338 253 CURVE SMOOTH",
"527 259 OFFCURVE",
"619 368 OFFCURVE",
"622 475 CURVE SMOOTH",
"626 634 OFFCURVE",
"510 703 OFFCURVE",
"334 702 CURVE SMOOTH"
);
},
{
closed = 1;
nodes = (
"383 632 OFFCURVE",
"467 618 OFFCURVE",
"467 484 CURVE SMOOTH",
"467 382 OFFCURVE",
"421 325 OFFCURVE",
"311 325 CURVE SMOOTH",
"295 325 OFFCURVE",
"280 326 OFFCURVE",
"266 328 CURVE",
"266 553 LINE SMOOTH",
"266 623 OFFCURVE",
"291 632 OFFCURVE",
"333 632 CURVE SMOOTH"
);
}
);
width = 639;
}
);
leftKerningGroup = I;
unicode = 0050;
},
{
color = 4;
glyphname = Thorn;
layers = (
{
layerId = "7BBBACCF-9772-44A1-910F-14DC7866E88D";
paths = (
{
closed = 1;
nodes = (
"50 700 LINE",
"50 623 LINE",
"64 624 OFFCURVE",
"104 625 OFFCURVE",
"125 626 CURVE",
"123 609 OFFCURVE",
"121 572 OFFCURVE",
"121 536 CURVE SMOOTH",
"121 153 LINE SMOOTH",
"121 72 OFFCURVE",
"95 68 OFFCURVE",
"50 66 CURVE",
"50 0 LINE",
"337 0 LINE",
"337 77 LINE",
"323 77 OFFCURVE",
"283 76 OFFCURVE",
"262 74 CURVE",
"264 89 OFFCURVE",
"265 119 OFFCURVE",
"266 151 CURVE",
"286 150 OFFCURVE",
"303 151 OFFCURVE",
"331 152 CURVE SMOOTH",
"520 157 OFFCURVE",
"614 252 OFFCURVE",
"617 359 CURVE SMOOTH",
"621 518 OFFCURVE",
"502 573 OFFCURVE",
"327 571 CURVE SMOOTH",
"267 570 LINE",
"271 628 OFFCURVE",
"297 632 OFFCURVE",
"337 634 CURVE",
"337 700 LINE"
);
},
{
closed = 1;
nodes = (
"367 500 OFFCURVE",
"462 497 OFFCURVE",
"462 368 CURVE SMOOTH",
"462 271 OFFCURVE",
"413 223 OFFCURVE",
"303 223 CURVE SMOOTH",
"290 223 OFFCURVE",
"277 224 OFFCURVE",
"266 225 CURVE",
"266 500 LINE",
"282 500 OFFCURVE",
"301 500 OFFCURVE",
"325 500 CURVE SMOOTH"
);
}
);
width = 633;
}
);
leftKerningGroup = I;
unicode = 00DE;
},
{
color = 4;
glyphname = Q;
layers = (
{
layerId = "7BBBACCF-9772-44A1-910F-14DC7866E88D";
paths = (
{
closed = 1;
nodes = (
"150 716 OFFCURVE",
"36 518 OFFCURVE",
"36 350 CURVE SMOOTH",
"36 178 OFFCURVE",
"128 -16 OFFCURVE",
"374 -16 CURVE SMOOTH",
"457 -16 OFFCURVE",
"494 -89 OFFCURVE",
"579 -164 CURVE SMOOTH",
"635 -213 OFFCURVE",
"659 -218 OFFCURVE",
"751 -218 CURVE SMOOTH",
"794 -218 LINE",
"794 -151 LINE",
"750 -151 OFFCURVE",
"746 -137 OFFCURVE",
"653 -51 CURVE SMOOTH",
"601 -2 OFFCURVE",
"566 5 OFFCURVE",
"509 5 CURVE",
"509 6 LINE",
"659 63 OFFCURVE",
"734 217 OFFCURVE",
"734 350 CURVE SMOOTH",
"734 517 OFFCURVE",
"630 716 OFFCURVE",
"387 716 CURVE SMOOTH"
);
},
{
closed = 1;
nodes = (
"513 646 OFFCURVE",
"577 516 OFFCURVE",
"577 333 CURVE SMOOTH",
"577 210 OFFCURVE",
"532 58 OFFCURVE",
"394 57 CURVE SMOOTH",
"243 56 OFFCURVE",
"193 237 OFFCURVE",
"193 362 CURVE SMOOTH",
"193 485 OFFCURVE",
"236 640 OFFCURVE",
"374 643 CURVE SMOOTH"
);
}
);
width = 770;
}
);
leftKerningGroup = O;
rightKerningGroup = O;
unicode = 0051;
},
{
color = 4;
glyphname = R;
layers = (
{
anchors = (
{
name = bottom;
position = "{384, 0}";
},
{
name = top;
position = "{343, 700}";
}
);
layerId = "7BBBACCF-9772-44A1-910F-14DC7866E88D";
paths = (
{
closed = 1;
nodes = (
"50 700 LINE",
"50 623 LINE",
"64 624 OFFCURVE",
"104 625 OFFCURVE",
"125 626 CURVE",
"123 609 OFFCURVE",
"121 572 OFFCURVE",
"121 536 CURVE SMOOTH",
"121 153 LINE SMOOTH",
"121 72 OFFCURVE",
"95 68 OFFCURVE",
"50 66 CURVE",
"50 0 LINE",
"347 0 LINE",
"347 77 LINE",
"333 77 OFFCURVE",
"283 76 OFFCURVE",
"262 74 CURVE",
"264 91 OFFCURVE",
"266 128 OFFCURVE",
"266 165 CURVE SMOOTH",
"266 272 LINE",
"285 272 OFFCURVE",
"297 272 OFFCURVE",
"318 272 CURVE",
"331 258 OFFCURVE",
"343 241 OFFCURVE",
"360 214 CURVE SMOOTH",
"434 94 LINE SMOOTH",
"460 51 OFFCURVE",
"483 17 OFFCURVE",
"507 0 CURVE",
"672 0 LINE",
"672 66 LINE",
"627 68 OFFCURVE",
"604 92 OFFCURVE",
"560 160 CURVE SMOOTH",
"513 230 LINE SMOOTH",
"496 257 OFFCURVE",
"469 283 OFFCURVE",
"444 293 CURVE",
"444 294 LINE",
"561 327 OFFCURVE",
"617 402 OFFCURVE",
"620 487 CURVE SMOOTH",
"624 646 OFFCURVE",
"510 703 OFFCURVE",
"334 702 CURVE SMOOTH"
);
},
{
closed = 1;
nodes = (
"374 632 OFFCURVE",
"469 623 OFFCURVE",
"469 495 CURVE SMOOTH",
"469 393 OFFCURVE",
"425 344 OFFCURVE",
"314 344 CURVE SMOOTH",
"297 344 OFFCURVE",
"281 346 OFFCURVE",
"266 348 CURVE",
"266 553 LINE SMOOTH",
"266 623 OFFCURVE",
"291 632 OFFCURVE",
"333 632 CURVE SMOOTH"
);
}
);
width = 686;
}
);
leftKerningGroup = I;
rightKerningGroup = R;
unicode = 0052;
},
{
color = 4;
glyphname = S;
layers = (
{
anchors = (
{
name = bottom;
position = "{313, 0}";
},
{
name = top;
position = "{299, 700}";
}
);
layerId = "7BBBACCF-9772-44A1-910F-14DC7866E88D";
paths = (
{
closed = 1;
nodes = (
"100 716 OFFCURVE",
"43 608 OFFCURVE",
"43 525 CURVE SMOOTH",
"43 394 OFFCURVE",
"141 330 OFFCURVE",
"270 278 CURVE SMOOTH",
"345 248 OFFCURVE",
"430 220 OFFCURVE",
"430 150 CURVE SMOOTH",
"430 99 OFFCURVE",
"381 56 OFFCURVE",
"310 56 CURVE SMOOTH",
"216 56 OFFCURVE",
"143 113 OFFCURVE",
"125 225 CURVE",
"59 225 LINE",
"59 -9 LINE",
"136 -9 LINE",
"133 33 LINE",
"134 33 LINE",
"187 1 OFFCURVE",
"254 -16 OFFCURVE",
"307 -16 CURVE SMOOTH",
"461 -16 OFFCURVE",
"563 67 OFFCURVE",
"563 186 CURVE SMOOTH",
"563 316 OFFCURVE",
"436 378 OFFCURVE",
"335 418 CURVE SMOOTH",
"225 463 OFFCURVE",
"173 496 OFFCURVE",
"173 558 CURVE SMOOTH",
"173 608 OFFCURVE",
"224 644 OFFCURVE",
"281 644 CURVE SMOOTH",
"374 645 OFFCURVE",
"436 587 OFFCURVE",
"454 476 CURVE",
"520 476 LINE",
"520 709 LINE",
"442 709 LINE",
"446 668 LINE",
"445 668 LINE",
"401 700 OFFCURVE",
"330 716 OFFCURVE",
"277 716 CURVE SMOOTH"
);
}
);
width = 598;
}
);
leftKerningGroup = S;
rightKerningGroup = S;
unicode = 0053;
},
{
color = 4;
glyphname = T;
layers = (
{
anchors = (
{
name = bottom;
position = "{321, 0}";
},
{
name = center;
position = "{325, 350}";
},
{
name = top;
position = "{325, 700}";
}
);
layerId = "7BBBACCF-9772-44A1-910F-14DC7866E88D";
paths = (
{
closed = 1;
nodes = (
"21 700 LINE",
"16 474 LINE",
"82 474 LINE",
"82 582 OFFCURVE",
"129 631 OFFCURVE",
"205 632 CURVE SMOOTH",
"251 632 LINE",
"251 153 LINE SMOOTH",
"251 72 OFFCURVE",
"225 68 OFFCURVE",
"180 66 CURVE",
"180 0 LINE",
"472 0 LINE",
"472 77 LINE",
"458 77 OFFCURVE",
"414 76 OFFCURVE",
"392 74 CURVE",
"395 91 OFFCURVE",
"396 128 OFFCURVE",
"396 164 CURVE SMOOTH",
"396 633 LINE",
"444 633 LINE SMOOTH",
"520 634 OFFCURVE",
"567 582 OFFCURVE",
"567 474 CURVE",
"633 474 LINE",
"627 700 LINE"
);
}
);
width = 650;
}
);
leftKerningGroup = T;
rightKerningGroup = T;
unicode = 0054;
},
{
color = 4;
glyphname = U;
layers = (
{
anchors = (
{
name = ogonek;
position = "{509, 5}";
},
{
name = top;
position = "{385, 700}";
}
);
layerId = "7BBBACCF-9772-44A1-910F-14DC7866E88D";
paths = (
{
closed = 1;
nodes = (
"504 700 LINE",
"504 623 LINE",
"519 624 OFFCURVE",
"558 625 OFFCURVE",
"580 626 CURVE",
"577 609 OFFCURVE",
"576 572 OFFCURVE",
"576 536 CURVE SMOOTH",
"576 274 LINE SMOOTH",
"576 126 OFFCURVE",
"511 56 OFFCURVE",
"401 60 CURVE SMOOTH",
"320 63 OFFCURVE",
"242 105 OFFCURVE",
"242 272 CURVE SMOOTH",
"242 547 LINE SMOOTH",
"242 628 OFFCURVE",
"269 632 OFFCURVE",
"313 634 CURVE",
"313 700 LINE",
"26 700 LINE",
"26 623 LINE",
"40 624 OFFCURVE",
"80 625 OFFCURVE",
"101 626 CURVE",
"99 609 OFFCURVE",
"97 572 OFFCURVE",
"97 536 CURVE SMOOTH",
"97 294 LINE SMOOTH",
"97 123 OFFCURVE",
"160 -16 OFFCURVE",
"385 -16 CURVE SMOOTH",
"545 -16 OFFCURVE",
"665 67 OFFCURVE",
"665 297 CURVE SMOOTH",
"665 547 LINE SMOOTH",
"665 628 OFFCURVE",
"691 632 OFFCURVE",
"736 634 CURVE",
"736 700 LINE"
);
}
);
width = 760;
}
);
leftKerningGroup = U;
rightKerningGroup = U;
unicode = 0055;
},
{
color = 4;
glyphname = V;
layers = (
{
layerId = "7BBBACCF-9772-44A1-910F-14DC7866E88D";
paths = (
{
closed = 1;
nodes = (
"483 700 LINE",
"483 623 LINE",
"497 624 OFFCURVE",
"538 625 OFFCURVE",
"560 627 CURVE",
"560 626 LINE",
"542 605 OFFCURVE",
"526 557 OFFCURVE",
"519 535 CURVE SMOOTH",
"443 326 LINE SMOOTH",
"427 280 OFFCURVE",
"409 228 OFFCURVE",
"395 188 CURVE",
"394 188 LINE",
"373 239 OFFCURVE",
"360 275 OFFCURVE",
"337 331 CURVE SMOOTH",
"245 557 LINE SMOOTH",
"221 616 OFFCURVE",
"253 635 OFFCURVE",
"303 634 CURVE",
"303 700 LINE",
"8 700 LINE",
"8 623 LINE",
"22 624 OFFCURVE",
"40 625 OFFCURVE",
"62 626 CURVE",
"62 604 OFFCURVE",
"76 564 OFFCURVE",
"90 531 CURVE SMOOTH",
"320 -6 LINE",
"402 -6 LINE",
"602 527 LINE SMOOTH",
"631 604 OFFCURVE",
"663 632 OFFCURVE",
"708 634 CURVE",
"708 700 LINE"
);
}
);
width = 708;
}
);
unicode = 0056;
},
{
color = 4;
glyphname = W;
layers = (
{
anchors = (
{
name = top;
position = "{529, 700}";
}
);
layerId = "7BBBACCF-9772-44A1-910F-14DC7866E88D";
paths = (
{
closed = 1;
nodes = (
"792 700 LINE",
"792 623 LINE",
"806 624 OFFCURVE",
"847 625 OFFCURVE",
"869 627 CURVE",
"869 626 LINE",
"849 604 OFFCURVE",
"836 567 OFFCURVE",
"828 535 CURVE SMOOTH",
"772 326 LINE SMOOTH",
"759 277 OFFCURVE",
"746 231 OFFCURVE",
"734 188 CURVE",
"733 188 LINE",
"722 237 OFFCURVE",
"711 286 OFFCURVE",
"697 332 CURVE SMOOTH",
"583 700 LINE",
"493 700 LINE",
"400 394 LINE SMOOTH",
"392 365 OFFCURVE",
"353 226 OFFCURVE",
"343 189 CURVE",
"342 189 LINE",
"330 253 OFFCURVE",
"321 285 OFFCURVE",
"309 331 CURVE SMOOTH",
"249 559 LINE SMOOTH",
"231 620 OFFCURVE",
"258 635 OFFCURVE",
"308 634 CURVE",
"308 700 LINE",
"13 700 LINE",
"13 623 LINE",
"27 624 OFFCURVE",
"45 625 OFFCURVE",
"66 626 CURVE",
"66 604 OFFCURVE",
"81 566 OFFCURVE",
"95 533 CURVE",
"273 -6 LINE",
"360 -6 LINE",
"474 369 LINE SMOOTH",
"487 414 OFFCURVE",
"496 454 OFFCURVE",
"503 500 CURVE",
"504 500 LINE",
"514 454 OFFCURVE",
"523 404 OFFCURVE",
"541 352 CURVE SMOOTH",
"659 -6 LINE",
"748 -6 LINE",
"911 527 LINE SMOOTH",
"937 605 OFFCURVE",
"972 632 OFFCURVE",
"1017 634 CURVE",
"1017 700 LINE"
);
}
);
width = 1016;
}
);
unicode = 0057;
},
{
color = 4;
glyphname = X;
layers = (
{
layerId = "7BBBACCF-9772-44A1-910F-14DC7866E88D";
paths = (
{
closed = 1;
nodes = (
"424 700 LINE",
"424 623 LINE",
"438 624 OFFCURVE",
"477 625 OFFCURVE",
"499 627 CURVE",
"499 626 LINE",
"481 610 OFFCURVE",
"468 596 OFFCURVE",
"440 558 CURVE SMOOTH",
"364 453 LINE",
"363 453 LINE",
"275 566 LINE SMOOTH",
"245 604 OFFCURVE",
"245 634 OFFCURVE",
"318 634 CURVE",
"318 700 LINE",
"14 700 LINE",
"14 623 LINE",
"28 624 OFFCURVE",
"42 625 OFFCURVE",
"64 626 CURVE",
"74 597 OFFCURVE",
"92 560 OFFCURVE",
"114 532 CURVE SMOOTH",
"275 328 LINE",
"159 173 LINE SMOOTH",
"110 107 OFFCURVE",
"73 75 OFFCURVE",
"35 66 CURVE",
"35 0 LINE",
"255 0 LINE",
"255 77 LINE",
"241 77 OFFCURVE",
"206 75 OFFCURVE",
"184 73 CURVE",
"184 74 LINE",
"200 90 OFFCURVE",
"211 104 OFFCURVE",
"239 142 CURVE SMOOTH",
"327 263 LINE",
"328 263 LINE",
"429 134 LINE SMOOTH",
"459 96 OFFCURVE",
"469 66 OFFCURVE",
"396 66 CURVE",
"396 0 LINE",
"695 0 LINE",
"695 77 LINE",
"681 77 OFFCURVE",
"676 76 OFFCURVE",
"654 74 CURVE",
"644 96 OFFCURVE",
"625 122 OFFCURVE",
"602 150 CURVE SMOOTH",
"414 390 LINE",
"510 521 LINE SMOOTH",
"563 594 OFFCURVE",
"605 628 OFFCURVE",
"651 634 CURVE",
"651 700 LINE"
);
}
);
width = 699;
}
);
unicode = 0058;
},
{
color = 4;
glyphname = Y;
layers = (
{
anchors = (
{
name = top;
position = "{345, 700}";
}
);
layerId = "7BBBACCF-9772-44A1-910F-14DC7866E88D";
paths = (
{
closed = 1;
nodes = (
"442 700 LINE",
"442 623 LINE",
"456 624 OFFCURVE",
"497 625 OFFCURVE",
"519 627 CURVE",
"519 626 LINE",
"501 605 OFFCURVE",
"476 556 OFFCURVE",
"466 535 CURVE SMOOTH",
"414 433 LINE SMOOTH",
"390 382 OFFCURVE",
"374 351 OFFCURVE",
"367 335 CURVE",
"366 335 LINE",
"355 364 OFFCURVE",
"324 416 OFFCURVE",
"315 432 CURVE SMOOTH",
"239 557 LINE SMOOTH",
"207 612 OFFCURVE",
"240 638 OFFCURVE",
"298 634 CURVE",
"298 700 LINE",
"3 700 LINE",
"3 623 LINE",
"18 624 OFFCURVE",
"30 625 OFFCURVE",
"52 626 CURVE",
"52 604 OFFCURVE",
"71 562 OFFCURVE",
"90 531 CURVE SMOOTH",
"274 240 LINE",
"274 153 LINE SMOOTH",
"274 72 OFFCURVE",
"248 68 OFFCURVE",
"203 66 CURVE",
"203 0 LINE",
"495 0 LINE",
"495 77 LINE",
"481 77 OFFCURVE",
"437 76 OFFCURVE",
"415 74 CURVE",
"417 91 OFFCURVE",
"419 128 OFFCURVE",
"419 164 CURVE SMOOTH",
"419 277 LINE",
"549 527 LINE SMOOTH",
"588 600 OFFCURVE",
"616 627 OFFCURVE",
"663 634 CURVE",
"663 700 LINE"
);
}
);
width = 667;
}
);
leftKerningGroup = Y;
rightKerningGroup = Y;
unicode = 0059;
},
{
color = 4;
glyphname = Z;
layers = (
{
anchors = (
{
name = top;
position = "{314, 700}";
}
);
layerId = "7BBBACCF-9772-44A1-910F-14DC7866E88D";
paths = (
{
closed = 1;
nodes = (
"51 700 LINE",
"45 487 LINE",
"111 487 LINE",
"111 595 OFFCURVE",
"164 637 OFFCURVE",
"238 635 CURVE SMOOTH",
"409 630 LINE",
"409 629 LINE",
"384 599 OFFCURVE",
"364 569 OFFCURVE",
"339 531 CURVE SMOOTH",
"40 75 LINE",
"40 0 LINE",
"555 0 LINE",
"561 214 LINE",
"495 214 LINE",
"495 105 OFFCURVE",
"443 65 OFFCURVE",
"369 66 CURVE SMOOTH",
"186 70 LINE",
"186 71 LINE",
"216 106 OFFCURVE",
"244 147 OFFCURVE",
"272 189 CURVE SMOOTH",
"560 625 LINE",
"560 700 LINE"
);
}
);
width = 604;
}
);
leftKerningGroup = Z;
rightKerningGroup = Z;
unicode = 005A;
},
{
color = 4;
glyphname = a;
layers = (
{
anchors = (
{
name = ogonek;
position = "{472, 5}";
},
{
name = top;
position = "{252, 500}";
}
);
layerId = "7BBBACCF-9772-44A1-910F-14DC7866E88D";
paths = (
{
closed = 1;
nodes = (
"146 516 OFFCURVE",
"52 463 OFFCURVE",
"52 384 CURVE SMOOTH",
"52 348 OFFCURVE",
"74 317 OFFCURVE",
"114 316 CURVE SMOOTH",
"161 315 OFFCURVE",
"181 351 OFFCURVE",
"181 378 CURVE SMOOTH",
"181 388 OFFCURVE",
"179 404 OFFCURVE",
"169 416 CURVE",
"186 433 OFFCURVE",
"211 443 OFFCURVE",
"237 444 CURVE SMOOTH",
"292 446 OFFCURVE",
"309 405 OFFCURVE",
"309 353 CURVE SMOOTH",
"309 301 LINE",
"175 295 OFFCURVE",
"30 244 OFFCURVE",
"30 117 CURVE SMOOTH",
"30 41 OFFCURVE",
"80 -16 OFFCURVE",
"166 -16 CURVE SMOOTH",
"218 -16 OFFCURVE",
"269 0 OFFCURVE",
"314 46 CURVE",
"315 46 LINE",
"316 29 OFFCURVE",
"316 19 OFFCURVE",
"319 0 CURVE",
"508 0 LINE",
"508 76 LINE",
"494 76 OFFCURVE",
"465 75 OFFCURVE",
"443 73 CURVE",
"446 103 OFFCURVE",
"447 142 OFFCURVE",
"447 161 CURVE SMOOTH",
"447 229 OFFCURVE",
"448 257 OFFCURVE",
"448 325 CURVE SMOOTH",
"448 458 OFFCURVE",
"380 516 OFFCURVE",
"263 516 CURVE SMOOTH"
);
},
{
closed = 1;
nodes = (
"308 118 LINE",
"287 96 OFFCURVE",
"259 82 OFFCURVE",
"229 82 CURVE SMOOTH",
"200 82 OFFCURVE",
"173 97 OFFCURVE",
"172 134 CURVE SMOOTH",
"171 191 OFFCURVE",
"233 223 OFFCURVE",
"308 230 CURVE"
);
}
);
width = 524;
}
);
leftKerningGroup = a;
rightKerningGroup = a;
unicode = 0061;
},
{
color = 4;
glyphname = ae;
layers = (
{
layerId = "7BBBACCF-9772-44A1-910F-14DC7866E88D";
paths = (
{
closed = 1;
nodes = (
"472 516 OFFCURVE",
"428 493 OFFCURVE",
"391 432 CURVE",
"390 432 LINE",
"373 494 OFFCURVE",
"323 516 OFFCURVE",
"255 516 CURVE SMOOTH",
"138 516 OFFCURVE",
"51 458 OFFCURVE",
"51 384 CURVE SMOOTH",
"51 348 OFFCURVE",
"74 317 OFFCURVE",
"113 316 CURVE SMOOTH",
"160 315 OFFCURVE",
"181 351 OFFCURVE",
"181 378 CURVE SMOOTH",
"181 388 OFFCURVE",
"179 407 OFFCURVE",
"168 418 CURVE",
"185 436 OFFCURVE",
"213 444 OFFCURVE",
"240 445 CURVE SMOOTH",
"290 447 OFFCURVE",
"309 407 OFFCURVE",
"309 355 CURVE SMOOTH",
"309 301 LINE",
"175 295 OFFCURVE",
"29 244 OFFCURVE",
"29 117 CURVE SMOOTH",
"29 41 OFFCURVE",
"82 -16 OFFCURVE",
"167 -16 CURVE SMOOTH",
"233 -16 OFFCURVE",
"309 -2 OFFCURVE",
"370 68 CURVE",
"404 23 OFFCURVE",
"456 -16 OFFCURVE",
"531 -16 CURVE SMOOTH",
"599 -16 OFFCURVE",
"679 3 OFFCURVE",
"750 106 CURVE",
"706 148 LINE",
"660 92 OFFCURVE",
"609 73 OFFCURVE",
"568 73 CURVE SMOOTH",
"471 73 OFFCURVE",
"447 154 OFFCURVE",
"447 263 CURVE",
"730 269 LINE",
"732 452 OFFCURVE",
"637 515 OFFCURVE",
"549 516 CURVE SMOOTH"
);
},
{
closed = 1;
nodes = (
"309 194 OFFCURVE",
"310 158 OFFCURVE",
"313 120 CURVE",
"292 97 OFFCURVE",
"262 82 OFFCURVE",
"231 82 CURVE SMOOTH",
"203 82 OFFCURVE",
"172 97 OFFCURVE",
"171 134 CURVE SMOOTH",
"169 191 OFFCURVE",
"234 223 OFFCURVE",
"309 230 CURVE"
);
},
{
closed = 1;
nodes = (
"564 445 OFFCURVE",
"596 416 OFFCURVE",
"598 333 CURVE",
"453 333 LINE",
"458 393 OFFCURVE",
"478 445 OFFCURVE",
"532 445 CURVE SMOOTH"
);
}
);
width = 770;
}
);
leftKerningGroup = a;
rightKerningGroup = e;
unicode = 00E6;
},
{
color = 4;
glyphname = b;
layers = (
{
layerId = "7BBBACCF-9772-44A1-910F-14DC7866E88D";
paths = (
{
closed = 1;
nodes = (
"150 755 LINE",
"136 742 OFFCURVE",
"89 725 OFFCURVE",
"-4 725 CURVE",
"-4 649 LINE",
"10 650 OFFCURVE",
"45 651 OFFCURVE",
"66 652 CURVE",
"63 623 OFFCURVE",
"63 589 OFFCURVE",
"63 565 CURVE SMOOTH",
"63 0 LINE",
"123 0 LINE",
"152 44 LINE",
"153 44 LINE",
"200 -6 OFFCURVE",
"262 -16 OFFCURVE",
"298 -16 CURVE SMOOTH",
"449 -16 OFFCURVE",
"541 102 OFFCURVE",
"541 263 CURVE SMOOTH",
"541 417 OFFCURVE",
"459 516 OFFCURVE",
"339 516 CURVE SMOOTH",
"297 516 OFFCURVE",
"249 502 OFFCURVE",
"204 462 CURVE",
"204 755 LINE"
);
},
{
closed = 1;
nodes = (
"362 428 OFFCURVE",
"394 339 OFFCURVE",
"394 248 CURVE SMOOTH",
"394 149 OFFCURVE",
"367 54 OFFCURVE",
"277 57 CURVE SMOOTH",
"242 58 OFFCURVE",
"204 82 OFFCURVE",
"204 150 CURVE SMOOTH",
"204 383 LINE",
"222 408 OFFCURVE",
"252 425 OFFCURVE",
"285 426 CURVE SMOOTH"
);
}
);
width = 573;
}
);
leftKerningGroup = b;
rightKerningGroup = o;
unicode = 0062;
},
{
color = 4;
glyphname = c;
layers = (
{
anchors = (
{
name = bottom;
position = "{313, 0}";
},
{
name = top;
position = "{300, 500}";
}
);
layerId = "7BBBACCF-9772-44A1-910F-14DC7866E88D";
paths = (
{
closed = 1;
nodes = (
"137 516 OFFCURVE",
"31 390 OFFCURVE",
"31 239 CURVE SMOOTH",
"31 77 OFFCURVE",
"142 -16 OFFCURVE",
"277 -16 CURVE SMOOTH",
"350 -16 OFFCURVE",
"432 5 OFFCURVE",
"505 105 CURVE",
"459 150 LINE",
"422 102 OFFCURVE",
"365 71 OFFCURVE",
"309 73 CURVE SMOOTH",
"211 77 OFFCURVE",
"177 168 OFFCURVE",
"177 268 CURVE SMOOTH",
"177 381 OFFCURVE",
"223 442 OFFCURVE",
"287 446 CURVE SMOOTH",
"305 447 OFFCURVE",
"345 442 OFFCURVE",
"360 413 CURVE",
"352 399 OFFCURVE",
"348 381 OFFCURVE",
"348 369 CURVE SMOOTH",
"348 341 OFFCURVE",
"365 303 OFFCURVE",
"416 304 CURVE SMOOTH",
"459 305 OFFCURVE",
"483 340 OFFCURVE",
"483 379 CURVE SMOOTH",
"483 449 OFFCURVE",
"418 516 OFFCURVE",
"291 516 CURVE SMOOTH"
);
}
);
width = 518;
}
);
leftKerningGroup = o;
rightKerningGroup = c;
unicode = 0063;
},
{
color = 4;
glyphname = d;
layers = (
{
anchors = (
{
name = center;
position = "{298, 250}";
},
{
name = topright;
position = "{586, 500}";
}
);
layerId = "7BBBACCF-9772-44A1-910F-14DC7866E88D";
paths = (
{
closed = 1;
nodes = (
"456 755 LINE",
"442 742 OFFCURVE",
"395 725 OFFCURVE",
"302 725 CURVE",
"302 649 LINE",
"316 649 OFFCURVE",
"351 650 OFFCURVE",
"373 652 CURVE",
"370 622 OFFCURVE",
"369 583 OFFCURVE",
"369 564 CURVE SMOOTH",
"369 498 LINE",
"344 507 OFFCURVE",
"316 516 OFFCURVE",
"280 516 CURVE SMOOTH",
"131 516 OFFCURVE",
"32 398 OFFCURVE",
"32 237 CURVE SMOOTH",
"32 83 OFFCURVE",
"114 -16 OFFCURVE",
"234 -16 CURVE SMOOTH",
"284 -16 OFFCURVE",
"331 0 OFFCURVE",
"375 46 CURVE",
"376 46 LINE",
"381 0 LINE",
"571 0 LINE",
"571 76 LINE",
"557 76 OFFCURVE",
"528 75 OFFCURVE",
"506 73 CURVE",
"509 103 OFFCURVE",
"510 142 OFFCURVE",
"510 161 CURVE SMOOTH",
"510 755 LINE"
);
},
{
closed = 1;
nodes = (
"326 442 OFFCURVE",
"355 433 OFFCURVE",
"369 423 CURVE",
"369 123 LINE",
"351 95 OFFCURVE",
"320 75 OFFCURVE",
"286 75 CURVE SMOOTH",
"209 75 OFFCURVE",
"179 167 OFFCURVE",
"179 252 CURVE SMOOTH",
"179 346 OFFCURVE",
"206 440 OFFCURVE",
"298 442 CURVE SMOOTH"
);
}
);
width = 596;
}
);
leftKerningGroup = o;
rightKerningGroup = d;
unicode = 0064;
},
{
color = 4;
glyphname = eth;
layers = (
{
layerId = "7BBBACCF-9772-44A1-910F-14DC7866E88D";
paths = (
{
closed = 1;
nodes = (
"224 723 LINE",
"193 738 OFFCURVE",
"148 754 OFFCURVE",
"89 760 CURVE",
"75 687 LINE",
"110 680 OFFCURVE",
"142 669 OFFCURVE",
"167 655 CURVE",
"118 598 LINE",
"178 544 LINE",
"236 615 LINE",
"278 587 OFFCURVE",
"336 520 OFFCURVE",
"350 467 CURVE",
"349 467 LINE",
"321 491 OFFCURVE",
"284 496 OFFCURVE",
"261 496 CURVE SMOOTH",
"105 496 OFFCURVE",
"30 355 OFFCURVE",
"33 225 CURVE SMOOTH",
"36 70 OFFCURVE",
"132 -16 OFFCURVE",
"262 -16 CURVE SMOOTH",
"419 -16 OFFCURVE",
"496 114 OFFCURVE",
"496 270 CURVE SMOOTH",
"496 454 OFFCURVE",
"413 605 OFFCURVE",
"291 688 CURVE",
"333 738 LINE",
"275 790 LINE"
);
},
{
closed = 1;
nodes = (
"342 418 OFFCURVE",
"367 317 OFFCURVE",
"367 239 CURVE SMOOTH",
"367 127 OFFCURVE",
"323 69 OFFCURVE",
"269 69 CURVE SMOOTH",
"215 69 OFFCURVE",
"171 134 OFFCURVE",
"171 247 CURVE SMOOTH",
"171 336 OFFCURVE",
"207 417 OFFCURVE",
"269 417 CURVE SMOOTH"
);
}
);
width = 542;
}
);
unicode = 00F0;
},
{
color = 4;
glyphname = dcroat;
layers = (
{
layerId = "7BBBACCF-9772-44A1-910F-14DC7866E88D";
paths = (
{
closed = 1;
nodes = (
"456 755 LINE",
"442 742 OFFCURVE",
"395 725 OFFCURVE",
"302 725 CURVE",
"302 649 LINE",
"316 649 OFFCURVE",
"351 650 OFFCURVE",
"373 652 CURVE",
"370 622 OFFCURVE",
"369 583 OFFCURVE",
"369 564 CURVE SMOOTH",
"369 449 LINE",
"344 458 OFFCURVE",
"316 467 OFFCURVE",
"280 467 CURVE SMOOTH",
"131 467 OFFCURVE",
"32 357 OFFCURVE",
"32 208 CURVE SMOOTH",
"32 83 OFFCURVE",
"114 -16 OFFCURVE",
"234 -16 CURVE SMOOTH",
"284 -16 OFFCURVE",
"331 0 OFFCURVE",
"375 46 CURVE",
"376 46 LINE",
"381 0 LINE",
"571 0 LINE",
"571 76 LINE",
"557 76 OFFCURVE",
"528 75 OFFCURVE",
"506 73 CURVE",
"509 103 OFFCURVE",
"510 142 OFFCURVE",
"510 161 CURVE SMOOTH",
"510 755 LINE"
);
},
{
closed = 1;
nodes = (
"326 393 OFFCURVE",
"355 384 OFFCURVE",
"369 375 CURVE",
"369 123 LINE",
"351 95 OFFCURVE",
"320 75 OFFCURVE",
"286 75 CURVE SMOOTH",
"209 75 OFFCURVE",
"179 137 OFFCURVE",
"179 223 CURVE SMOOTH",
"179 313 OFFCURVE",
"216 393 OFFCURVE",
"298 393 CURVE SMOOTH"
);
},
{
closed = 1;
nodes = (
"205 601 LINE",
"205 523 LINE",
"586 527 LINE",
"586 601 LINE"
);
}
);
width = 596;
}
);
leftKerningGroup = o;
rightKerningGroup = d;
unicode = 0111;
userData = {
public.markColor = "0.75,0.75,0.75,1";
};
},
{
color = 4;
glyphname = e;
layers = (
{
anchors = (
{
name = bottom;
position = "{337, 0}";
},
{
name = ogonek;
position = "{394, 5}";
},
{
name = top;
position = "{284, 500}";
}
);
layerId = "7BBBACCF-9772-44A1-910F-14DC7866E88D";
paths = (
{
closed = 1;
nodes = (
"130 516 OFFCURVE",
"31 389 OFFCURVE",
"31 249 CURVE SMOOTH",
"31 87 OFFCURVE",
"131 -16 OFFCURVE",
"278 -16 CURVE SMOOTH",
"346 -16 OFFCURVE",
"439 3 OFFCURVE",
"511 106 CURVE",
"466 148 LINE",
"420 92 OFFCURVE",
"359 73 OFFCURVE",
"319 73 CURVE SMOOTH",
"215 73 OFFCURVE",
"178 154 OFFCURVE",
"178 263 CURVE",
"506 269 LINE",
"508 462 OFFCURVE",
"392 516 OFFCURVE",
"281 516 CURVE SMOOTH"
);
},
{
closed = 1;
nodes = (
"333 446 OFFCURVE",
"366 416 OFFCURVE",
"368 333 CURVE",
"184 333 LINE",
"194 400 OFFCURVE",
"227 446 OFFCURVE",
"286 446 CURVE SMOOTH"
);
}
);
width = 538;
}
);
leftKerningGroup = o;
rightKerningGroup = e;
unicode = 0065;
},
{
color = 4;
glyphname = f;
layers = (
{
layerId = "7BBBACCF-9772-44A1-910F-14DC7866E88D";
paths = (
{
closed = 1;
nodes = (
"179 755 OFFCURVE",
"103 690 OFFCURVE",
"103 529 CURVE SMOOTH",
"103 500 LINE",
"30 500 LINE",
"30 417 LINE",
"103 418 LINE",
"103 154 LINE SMOOTH",
"103 101 OFFCURVE",
"99 65 OFFCURVE",
"43 65 CURVE",
"43 0 LINE",
"310 0 LINE",
"310 76 LINE",
"296 76 OFFCURVE",
"262 75 OFFCURVE",
"240 73 CURVE",
"243 103 OFFCURVE",
"244 144 OFFCURVE",
"244 163 CURVE SMOOTH",
"243 420 LINE",
"354 423 LINE",
"354 500 LINE",
"242 500 LINE",
"242 623 LINE SMOOTH",
"242 652 OFFCURVE",
"249 684 OFFCURVE",
"282 685 CURVE SMOOTH",
"288 685 OFFCURVE",
"298 684 OFFCURVE",
"305 677 CURVE",
"295 633 OFFCURVE",
"318 599 OFFCURVE",
"364 600 CURVE SMOOTH",
"404 601 OFFCURVE",
"426 632 OFFCURVE",
"426 667 CURVE SMOOTH",
"426 708 OFFCURVE",
"393 755 OFFCURVE",
"299 755 CURVE SMOOTH"
);
}
);
width = 369;
}
);
leftKerningGroup = f;
rightKerningGroup = f;
unicode = 0066;
},
{
color = 4;
glyphname = g;
layers = (
{
anchors = (
{
name = top;
position = "{263, 500}";
}
);
layerId = "7BBBACCF-9772-44A1-910F-14DC7866E88D";
paths = (
{
closed = 1;
nodes = (
"454 606 OFFCURVE",
"412 546 OFFCURVE",
"390 485 CURVE",
"357 508 OFFCURVE",
"305 516 OFFCURVE",
"271 516 CURVE SMOOTH",
"156 516 OFFCURVE",
"43 431 OFFCURVE",
"48 311 CURVE SMOOTH",
"50 243 OFFCURVE",
"90 193 OFFCURVE",
"146 171 CURVE",
"146 170 LINE",
"73 148 OFFCURVE",
"49 97 OFFCURVE",
"49 63 CURVE SMOOTH",
"49 25 OFFCURVE",
"68 -10 OFFCURVE",
"123 -25 CURVE",
"51 -52 OFFCURVE",
"28 -99 OFFCURVE",
"28 -140 CURVE SMOOTH",
"28 -208 OFFCURVE",
"83 -271 OFFCURVE",
"256 -271 CURVE SMOOTH",
"389 -271 OFFCURVE",
"539 -209 OFFCURVE",
"539 -95 CURVE SMOOTH",
"539 21 OFFCURVE",
"436 55 OFFCURVE",
"283 64 CURVE SMOOTH",
"189 69 OFFCURVE",
"155 76 OFFCURVE",
"155 101 CURVE SMOOTH",
"155 120 OFFCURVE",
"178 131 OFFCURVE",
"207 131 CURVE SMOOTH",
"227 131 OFFCURVE",
"249 128 OFFCURVE",
"267 128 CURVE SMOOTH",
"384 128 OFFCURVE",
"494 210 OFFCURVE",
"494 326 CURVE SMOOTH",
"494 376 OFFCURVE",
"473 422 OFFCURVE",
"435 455 CURVE",
"438 477 OFFCURVE",
"458 515 OFFCURVE",
"476 520 CURVE",
"480 498 OFFCURVE",
"504 481 OFFCURVE",
"524 481 CURVE SMOOTH",
"572 480 OFFCURVE",
"586 518 OFFCURVE",
"586 542 CURVE SMOOTH",
"586 581 OFFCURVE",
"562 606 OFFCURVE",
"517 606 CURVE SMOOTH"
);
},
{
closed = 1;
nodes = (
"212 -53 OFFCURVE",
"255 -54 OFFCURVE",
"285 -56 CURVE SMOOTH",
"382 -60 OFFCURVE",
"429 -81 OFFCURVE",
"429 -122 CURVE SMOOTH",
"429 -159 OFFCURVE",
"379 -202 OFFCURVE",
"285 -202 CURVE SMOOTH",
"201 -202 OFFCURVE",
"148 -167 OFFCURVE",
"151 -113 CURVE SMOOTH",
"152 -90 OFFCURVE",
"163 -64 OFFCURVE",
"183 -48 CURVE"
);
},
{
closed = 1;
nodes = (
"327 449 OFFCURVE",
"354 378 OFFCURVE",
"354 308 CURVE SMOOTH",
"354 253 OFFCURVE",
"325 195 OFFCURVE",
"271 195 CURVE SMOOTH",
"216 195 OFFCURVE",
"186 260 OFFCURVE",
"186 331 CURVE SMOOTH",
"186 392 OFFCURVE",
"217 449 OFFCURVE",
"270 449 CURVE SMOOTH"
);
}
);
width = 557;
}
);
leftKerningGroup = g;
rightKerningGroup = g;
unicode = 0067;
},
{
color = 4;
glyphname = gcircumflex;
layers = (
{
anchors = (
{
name = _top;
position = "{263, 500}";
}
);
components = (
{
name = g;
}
);
layerId = "7BBBACCF-9772-44A1-910F-14DC7866E88D";
paths = (
{
closed = 1;
nodes = (
"263 783 LINE",
"92 617 LINE",
"134 569 LINE",
"262 667 LINE",
"263 667 LINE",
"367 591 LINE",
"408 641 LINE",
"273 783 LINE"
);
}
);
width = 557;
}
);
leftKerningGroup = g;
rightKerningGroup = g;
unicode = 011D;
},
{
color = 4;
glyphname = h;
layers = (
{
anchors = (
{
name = center;
position = "{311, 250}";
},
{
name = top;
position = "{170, 704}";
}
);
layerId = "7BBBACCF-9772-44A1-910F-14DC7866E88D";
paths = (
{
closed = 1;
nodes = (
"172 755 LINE",
"158 742 OFFCURVE",
"111 725 OFFCURVE",
"18 725 CURVE",
"18 649 LINE",
"32 650 OFFCURVE",
"67 651 OFFCURVE",
"88 652 CURVE",
"85 623 OFFCURVE",
"84 589 OFFCURVE",
"84 565 CURVE SMOOTH",
"84 154 LINE SMOOTH",
"84 101 OFFCURVE",
"81 65 OFFCURVE",
"25 65 CURVE",
"25 0 LINE",
"287 0 LINE",
"287 76 LINE",
"273 76 OFFCURVE",
"244 75 OFFCURVE",
"222 73 CURVE",
"225 103 OFFCURVE",
"226 142 OFFCURVE",
"226 161 CURVE SMOOTH",
"226 387 LINE",
"248 407 OFFCURVE",
"284 424 OFFCURVE",
"317 424 CURVE SMOOTH",
"373 424 OFFCURVE",
"398 383 OFFCURVE",
"398 296 CURVE SMOOTH",
"399 154 LINE SMOOTH",
"399 101 OFFCURVE",
"395 65 OFFCURVE",
"339 65 CURVE",
"339 0 LINE",
"602 0 LINE",
"602 76 LINE",
"587 76 OFFCURVE",
"558 75 OFFCURVE",
"537 73 CURVE",
"540 103 OFFCURVE",
"541 142 OFFCURVE",
"541 161 CURVE SMOOTH",
"541 295 LINE SMOOTH",
"540 449 OFFCURVE",
"494 516 OFFCURVE",
"372 516 CURVE SMOOTH",
"331 516 OFFCURVE",
"265 491 OFFCURVE",
"226 460 CURVE",
"226 755 LINE"
);
}
);
width = 621;
}
);
leftKerningGroup = h;
rightKerningGroup = n;
unicode = 0068;
},
{
color = 4;
glyphname = i;
layers = (
{
layerId = "7BBBACCF-9772-44A1-910F-14DC7866E88D";
paths = (
{
closed = 1;
nodes = (
"188 510 LINE",
"174 497 OFFCURVE",
"126 480 OFFCURVE",
"34 480 CURVE",
"34 404 LINE",
"48 405 OFFCURVE",
"83 406 OFFCURVE",
"104 407 CURVE",
"101 377 OFFCURVE",
"100 344 OFFCURVE",
"100 320 CURVE SMOOTH",
"100 154 LINE SMOOTH",
"100 101 OFFCURVE",
"96 65 OFFCURVE",
"41 65 CURVE",
"41 0 LINE",
"303 0 LINE",
"303 76 LINE",
"289 76 OFFCURVE",
"259 75 OFFCURVE",
"238 73 CURVE",
"241 103 OFFCURVE",
"242 142 OFFCURVE",
"242 161 CURVE SMOOTH",
"242 510 LINE"
);
},
{
closed = 1;
nodes = (
"140 763 OFFCURVE",
"104 726 OFFCURVE",
"104 680 CURVE SMOOTH",
"104 635 OFFCURVE",
"136 599 OFFCURVE",
"182 599 CURVE SMOOTH",
"227 599 OFFCURVE",
"256 635 OFFCURVE",
"256 680 CURVE SMOOTH",
"256 726 OFFCURVE",
"224 763 OFFCURVE",
"181 763 CURVE SMOOTH"
);
}
);
width = 327;
}
);
leftKerningGroup = i;
rightKerningGroup = i;
unicode = 0069;
},
{
color = 4;
glyphname = idotless;
layers = (
{
layerId = "7BBBACCF-9772-44A1-910F-14DC7866E88D";
paths = (
{
closed = 1;
nodes = (
"188 510 LINE",
"174 497 OFFCURVE",
"126 480 OFFCURVE",
"34 480 CURVE",
"34 404 LINE",
"48 405 OFFCURVE",
"83 406 OFFCURVE",
"104 407 CURVE",
"101 377 OFFCURVE",
"100 344 OFFCURVE",
"100 320 CURVE SMOOTH",
"100 154 LINE SMOOTH",
"100 101 OFFCURVE",
"96 65 OFFCURVE",
"41 65 CURVE",
"41 0 LINE",
"303 0 LINE",
"303 76 LINE",
"289 76 OFFCURVE",
"259 75 OFFCURVE",
"238 73 CURVE",
"241 103 OFFCURVE",
"242 142 OFFCURVE",
"242 161 CURVE SMOOTH",
"242 510 LINE"
);
}
);
width = 327;
}
);
leftKerningGroup = i;
rightKerningGroup = i;
unicode = 0131;
},
{
color = 4;
glyphname = icircumflex;
layers = (
{
layerId = "7BBBACCF-9772-44A1-910F-14DC7866E88D";
paths = (
{
closed = 1;
nodes = (
"188 510 LINE",
"174 497 OFFCURVE",
"126 480 OFFCURVE",
"34 480 CURVE",
"34 404 LINE",
"48 405 OFFCURVE",
"83 406 OFFCURVE",
"104 407 CURVE",
"101 377 OFFCURVE",
"100 344 OFFCURVE",
"100 320 CURVE SMOOTH",
"100 154 LINE SMOOTH",
"100 101 OFFCURVE",
"96 65 OFFCURVE",
"41 65 CURVE",
"41 0 LINE",
"303 0 LINE",
"303 76 LINE",
"289 76 OFFCURVE",
"259 75 OFFCURVE",
"238 73 CURVE",
"241 103 OFFCURVE",
"242 142 OFFCURVE",
"242 161 CURVE SMOOTH",
"242 510 LINE"
);
},
{
closed = 1;
nodes = (
"156 783 LINE",
"4 617 LINE",
"46 569 LINE",
"156 662 LINE",
"157 662 LINE",
"264 562 LINE",
"307 613 LINE",
"166 783 LINE"
);
}
);
width = 327;
}
);
leftKerningGroup = i;
rightKerningGroup = i;
unicode = 00EE;
},
{
color = 4;
glyphname = idieresis;
layers = (
{
layerId = "7BBBACCF-9772-44A1-910F-14DC7866E88D";
paths = (
{
closed = 1;
nodes = (
"188 510 LINE",
"174 497 OFFCURVE",
"126 480 OFFCURVE",
"34 480 CURVE",
"34 404 LINE",
"48 405 OFFCURVE",
"83 406 OFFCURVE",
"104 407 CURVE",
"101 377 OFFCURVE",
"100 344 OFFCURVE",
"100 320 CURVE SMOOTH",
"100 154 LINE SMOOTH",
"100 101 OFFCURVE",
"96 65 OFFCURVE",
"41 65 CURVE",
"41 0 LINE",
"303 0 LINE",
"303 76 LINE",
"289 76 OFFCURVE",
"259 75 OFFCURVE",
"238 73 CURVE",
"241 103 OFFCURVE",
"242 142 OFFCURVE",
"242 161 CURVE SMOOTH",
"242 510 LINE"
);
},
{
closed = 1;
nodes = (
"49 751 OFFCURVE",
"21 716 OFFCURVE",
"21 675 CURVE SMOOTH",
"21 633 OFFCURVE",
"48 600 OFFCURVE",
"84 600 CURVE SMOOTH",
"120 600 OFFCURVE",
"147 633 OFFCURVE",
"147 675 CURVE SMOOTH",
"147 716 OFFCURVE",
"123 751 OFFCURVE",
"84 751 CURVE SMOOTH"
);
},
{
closed = 1;
nodes = (
"213 751 OFFCURVE",
"185 716 OFFCURVE",
"185 675 CURVE SMOOTH",
"185 633 OFFCURVE",
"212 600 OFFCURVE",
"248 600 CURVE SMOOTH",
"284 600 OFFCURVE",
"311 633 OFFCURVE",
"311 675 CURVE SMOOTH",
"311 716 OFFCURVE",
"287 751 OFFCURVE",
"249 751 CURVE SMOOTH"
);
}
);
width = 327;
}
);
leftKerningGroup = i;
rightKerningGroup = i;
unicode = 00EF;
},
{
color = 4;
glyphname = j;
layers = (
{
layerId = "7BBBACCF-9772-44A1-910F-14DC7866E88D";
paths = (
{
closed = 1;
nodes = (
"178 510 LINE",
"164 497 OFFCURVE",
"117 480 OFFCURVE",
"24 480 CURVE",
"24 404 LINE",
"38 405 OFFCURVE",
"73 406 OFFCURVE",
"94 407 CURVE",
"91 377 OFFCURVE",
"90 344 OFFCURVE",
"90 320 CURVE SMOOTH",
"93 -126 LINE SMOOTH",
"93 -155 OFFCURVE",
"88 -201 OFFCURVE",
"51 -201 CURVE SMOOTH",
"46 -201 OFFCURVE",
"37 -199 OFFCURVE",
"34 -197 CURVE",
"43 -153 OFFCURVE",
"17 -120 OFFCURVE",
"-25 -121 CURVE SMOOTH",
"-65 -122 OFFCURVE",
"-88 -154 OFFCURVE",
"-88 -189 CURVE SMOOTH",
"-88 -230 OFFCURVE",
"-54 -271 OFFCURVE",
"21 -271 CURVE SMOOTH",
"141 -271 OFFCURVE",
"232 -183 OFFCURVE",
"232 2 CURVE SMOOTH",
"232 510 LINE"
);
},
{
closed = 1;
nodes = (
"125 763 OFFCURVE",
"89 726 OFFCURVE",
"89 680 CURVE SMOOTH",
"89 635 OFFCURVE",
"121 599 OFFCURVE",
"167 599 CURVE SMOOTH",
"212 599 OFFCURVE",
"241 635 OFFCURVE",
"241 680 CURVE SMOOTH",
"241 726 OFFCURVE",
"209 763 OFFCURVE",
"166 763 CURVE SMOOTH"
);
}
);
width = 294;
}
);
leftKerningGroup = j;
rightKerningGroup = i;
unicode = 006A;
},
{
color = 4;
glyphname = jcircumflex;
layers = (
{
layerId = "7BBBACCF-9772-44A1-910F-14DC7866E88D";
paths = (
{
closed = 1;
nodes = (
"178 510 LINE",
"164 497 OFFCURVE",
"117 480 OFFCURVE",
"24 480 CURVE",
"24 404 LINE",
"38 405 OFFCURVE",
"73 406 OFFCURVE",
"94 407 CURVE",
"91 377 OFFCURVE",
"90 344 OFFCURVE",
"90 320 CURVE SMOOTH",
"93 -126 LINE SMOOTH",
"93 -155 OFFCURVE",
"88 -201 OFFCURVE",
"51 -201 CURVE SMOOTH",
"46 -201 OFFCURVE",
"37 -199 OFFCURVE",
"34 -197 CURVE",
"43 -153 OFFCURVE",
"17 -120 OFFCURVE",
"-25 -121 CURVE SMOOTH",
"-65 -122 OFFCURVE",
"-88 -154 OFFCURVE",
"-88 -189 CURVE SMOOTH",
"-88 -230 OFFCURVE",
"-54 -271 OFFCURVE",
"21 -271 CURVE SMOOTH",
"141 -271 OFFCURVE",
"232 -183 OFFCURVE",
"232 2 CURVE SMOOTH",
"232 510 LINE"
);
},
{
closed = 1;
nodes = (
"151 783 LINE",
"0 617 LINE",
"42 569 LINE",
"151 662 LINE",
"152 662 LINE",
"259 562 LINE",
"302 613 LINE",
"161 783 LINE"
);
}
);
width = 293;
}
);
leftKerningGroup = j;
rightKerningGroup = i;
unicode = 0135;
},
{
color = 4;
glyphname = k;
layers = (
{
anchors = (
{
name = bottom;
position = "{338, 0}";
}
);
layerId = "7BBBACCF-9772-44A1-910F-14DC7866E88D";
paths = (
{
closed = 1;
nodes = (
"172 755 LINE",
"159 742 OFFCURVE",
"111 725 OFFCURVE",
"19 725 CURVE",
"19 649 LINE",
"33 650 OFFCURVE",
"67 651 OFFCURVE",
"89 652 CURVE",
"86 623 OFFCURVE",
"85 589 OFFCURVE",
"85 565 CURVE SMOOTH",
"85 154 LINE SMOOTH",
"85 101 OFFCURVE",
"81 65 OFFCURVE",
"25 65 CURVE",
"25 0 LINE",
"288 0 LINE",
"288 76 LINE",
"273 76 OFFCURVE",
"244 75 OFFCURVE",
"223 73 CURVE",
"226 103 OFFCURVE",
"227 142 OFFCURVE",
"227 161 CURVE SMOOTH",
"227 228 LINE",
"250 229 LINE",
"270 201 OFFCURVE",
"314 135 OFFCURVE",
"350 87 CURVE SMOOTH",
"391 31 OFFCURVE",
"418 0 OFFCURVE",
"461 0 CURVE SMOOTH",
"576 0 LINE",
"576 65 LINE",
"535 65 OFFCURVE",
"500 115 OFFCURVE",
"484 135 CURVE SMOOTH",
"417 223 LINE SMOOTH",
"389 260 OFFCURVE",
"372 275 OFFCURVE",
"352 285 CURVE",
"352 286 LINE",
"416 357 LINE SMOOTH",
"444 389 OFFCURVE",
"487 428 OFFCURVE",
"558 436 CURVE",
"558 500 LINE",
"333 500 LINE",
"333 424 LINE",
"386 425 LINE",
"386 424 LINE",
"374 413 OFFCURVE",
"364 401 OFFCURVE",
"347 382 CURVE SMOOTH",
"275 299 LINE",
"227 299 LINE",
"227 755 LINE"
);
}
);
width = 594;
}
);
leftKerningGroup = h;
rightKerningGroup = k;
unicode = 006B;
},
{
color = 4;
glyphname = l;
layers = (
{
anchors = (
{
name = bottom;
position = "{194, 0}";
},
{
name = top;
position = "{156, 700}";
},
{
name = topright;
position = "{302, 500}";
}
);
layerId = "7BBBACCF-9772-44A1-910F-14DC7866E88D";
paths = (
{
closed = 1;
nodes = (
"172 755 LINE",
"158 742 OFFCURVE",
"111 725 OFFCURVE",
"18 725 CURVE",
"18 649 LINE",
"32 650 OFFCURVE",
"67 651 OFFCURVE",
"88 652 CURVE",
"85 623 OFFCURVE",
"84 589 OFFCURVE",
"84 565 CURVE SMOOTH",
"84 154 LINE SMOOTH",
"84 101 OFFCURVE",
"81 65 OFFCURVE",
"25 65 CURVE",
"25 0 LINE",
"287 0 LINE",
"287 76 LINE",
"273 76 OFFCURVE",
"244 75 OFFCURVE",
"222 73 CURVE",
"225 103 OFFCURVE",
"226 142 OFFCURVE",
"226 161 CURVE SMOOTH",
"226 755 LINE"
);
}
);
width = 312;
}
);
leftKerningGroup = h;
rightKerningGroup = l;
unicode = 006C;
},
{
color = 4;
glyphname = lslash;
layers = (
{
layerId = "7BBBACCF-9772-44A1-910F-14DC7866E88D";
paths = (
{
closed = 1;
nodes = (
"178 755 LINE",
"165 742 OFFCURVE",
"117 725 OFFCURVE",
"24 725 CURVE",
"24 649 LINE",
"39 650 OFFCURVE",
"73 651 OFFCURVE",
"95 652 CURVE",
"92 623 OFFCURVE",
"91 589 OFFCURVE",
"91 565 CURVE SMOOTH",
"91 346 LINE",
"17 294 LINE",
"17 181 LINE",
"91 234 LINE",
"91 154 LINE SMOOTH",
"91 101 OFFCURVE",
"87 65 OFFCURVE",
"31 65 CURVE",
"31 0 LINE",
"293 0 LINE",
"293 76 LINE",
"279 76 OFFCURVE",
"250 75 OFFCURVE",
"229 73 CURVE",
"231 103 OFFCURVE",
"232 142 OFFCURVE",
"232 161 CURVE SMOOTH",
"232 335 LINE",
"296 381 LINE",
"296 491 LINE",
"232 446 LINE",
"232 755 LINE"
);
}
);
width = 321;
}
);
leftKerningGroup = h;
rightKerningGroup = l;
unicode = 0142;
},
{
color = 4;
glyphname = m;
layers = (
{
layerId = "7BBBACCF-9772-44A1-910F-14DC7866E88D";
paths = (
{
closed = 1;
nodes = (
"623 516 OFFCURVE",
"561 490 OFFCURVE",
"513 450 CURVE",
"489 494 OFFCURVE",
"450 516 OFFCURVE",
"389 516 CURVE SMOOTH",
"337 516 OFFCURVE",
"282 491 OFFCURVE",
"243 460 CURVE",
"241 460 LINE",
"240 473 OFFCURVE",
"239 496 OFFCURVE",
"237 510 CURVE",
"188 510 LINE",
"174 497 OFFCURVE",
"126 480 OFFCURVE",
"34 480 CURVE",
"34 404 LINE",
"48 405 OFFCURVE",
"83 406 OFFCURVE",
"104 407 CURVE",
"101 377 OFFCURVE",
"100 346 OFFCURVE",
"100 322 CURVE SMOOTH",
"100 154 LINE SMOOTH",
"100 101 OFFCURVE",
"96 65 OFFCURVE",
"41 65 CURVE",
"41 0 LINE",
"298 0 LINE",
"298 76 LINE",
"284 76 OFFCURVE",
"259 75 OFFCURVE",
"238 73 CURVE",
"241 103 OFFCURVE",
"242 142 OFFCURVE",
"242 161 CURVE SMOOTH",
"242 387 LINE",
"264 407 OFFCURVE",
"294 424 OFFCURVE",
"327 424 CURVE SMOOTH",
"372 423 OFFCURVE",
"399 397 OFFCURVE",
"399 310 CURVE SMOOTH",
"400 154 LINE SMOOTH",
"400 101 OFFCURVE",
"396 65 OFFCURVE",
"345 65 CURVE",
"345 0 LINE",
"603 0 LINE",
"603 76 LINE",
"588 76 OFFCURVE",
"559 75 OFFCURVE",
"538 73 CURVE",
"541 103 OFFCURVE",
"542 142 OFFCURVE",
"542 161 CURVE SMOOTH",
"542 295 LINE SMOOTH",
"542 331 OFFCURVE",
"539 363 OFFCURVE",
"533 390 CURVE",
"557 409 OFFCURVE",
"587 424 OFFCURVE",
"622 423 CURVE SMOOTH",
"667 421 OFFCURVE",
"697 394 OFFCURVE",
"698 307 CURVE SMOOTH",
"698 154 LINE SMOOTH",
"698 101 OFFCURVE",
"694 65 OFFCURVE",
"648 65 CURVE",
"648 0 LINE",
"901 0 LINE",
"901 76 LINE",
"887 76 OFFCURVE",
"857 75 OFFCURVE",
"836 73 CURVE",
"839 103 OFFCURVE",
"840 142 OFFCURVE",
"840 161 CURVE SMOOTH",
"840 308 LINE SMOOTH",
"840 461 OFFCURVE",
"784 516 OFFCURVE",
"676 516 CURVE SMOOTH"
);
}
);
width = 920;
}
);
leftKerningGroup = n;
rightKerningGroup = n;
unicode = 006D;
},
{
color = 4;
glyphname = n;
layers = (
{
anchors = (
{
name = bottom;
position = "{357, 0}";
},
{
name = top;
position = "{344, 500}";
}
);
layerId = "7BBBACCF-9772-44A1-910F-14DC7866E88D";
paths = (
{
closed = 1;
nodes = (
"347 516 OFFCURVE",
"282 491 OFFCURVE",
"243 460 CURVE",
"241 460 LINE",
"240 473 OFFCURVE",
"239 496 OFFCURVE",
"237 510 CURVE",
"188 510 LINE",
"174 497 OFFCURVE",
"126 480 OFFCURVE",
"34 480 CURVE",
"34 404 LINE",
"48 405 OFFCURVE",
"83 406 OFFCURVE",
"104 407 CURVE",
"101 377 OFFCURVE",
"100 346 OFFCURVE",
"100 322 CURVE SMOOTH",
"100 154 LINE SMOOTH",
"100 101 OFFCURVE",
"96 65 OFFCURVE",
"41 65 CURVE",
"41 0 LINE",
"303 0 LINE",
"303 76 LINE",
"289 76 OFFCURVE",
"259 75 OFFCURVE",
"238 73 CURVE",
"241 103 OFFCURVE",
"242 142 OFFCURVE",
"242 161 CURVE SMOOTH",
"242 387 LINE",
"264 407 OFFCURVE",
"300 424 OFFCURVE",
"333 424 CURVE SMOOTH",
"392 424 OFFCURVE",
"414 383 OFFCURVE",
"414 296 CURVE SMOOTH",
"415 154 LINE SMOOTH",
"415 101 OFFCURVE",
"411 65 OFFCURVE",
"355 65 CURVE",
"355 0 LINE",
"617 0 LINE",
"617 76 LINE",
"603 76 OFFCURVE",
"574 75 OFFCURVE",
"552 73 CURVE",
"555 103 OFFCURVE",
"556 142 OFFCURVE",
"556 161 CURVE SMOOTH",
"556 295 LINE SMOOTH",
"556 449 OFFCURVE",
"509 516 OFFCURVE",
"387 516 CURVE SMOOTH"
);
}
);
width = 636;
}
);
leftKerningGroup = n;
rightKerningGroup = n;
unicode = 006E;
},
{
color = 4;
glyphname = o;
layers = (
{
anchors = (
{
name = top;
position = "{283, 500}";
}
);
layerId = "7BBBACCF-9772-44A1-910F-14DC7866E88D";
paths = (
{
closed = 1;
nodes = (
"146 516 OFFCURVE",
"31 405 OFFCURVE",
"31 239 CURVE SMOOTH",
"31 82 OFFCURVE",
"141 -16 OFFCURVE",
"286 -16 CURVE SMOOTH",
"432 -16 OFFCURVE",
"535 91 OFFCURVE",
"535 259 CURVE SMOOTH",
"535 419 OFFCURVE",
"426 516 OFFCURVE",
"283 516 CURVE SMOOTH"
);
},
{
closed = 1;
nodes = (
"362 448 OFFCURVE",
"387 333 OFFCURVE",
"387 234 CURVE SMOOTH",
"387 149 OFFCURVE",
"369 56 OFFCURVE",
"290 55 CURVE SMOOTH",
"208 53 OFFCURVE",
"178 164 OFFCURVE",
"178 266 CURVE SMOOTH",
"178 353 OFFCURVE",
"203 444 OFFCURVE",
"281 446 CURVE SMOOTH"
);
}
);
width = 566;
}
);
leftKerningGroup = o;
rightKerningGroup = o;
unicode = 006F;
},
{
color = 4;
glyphname = oslash;
layers = (
{
layerId = "7BBBACCF-9772-44A1-910F-14DC7866E88D";
paths = (
{
closed = 1;
nodes = (
"394 494 LINE",
"360 508 OFFCURVE",
"323 516 OFFCURVE",
"283 516 CURVE SMOOTH",
"146 516 OFFCURVE",
"31 405 OFFCURVE",
"31 239 CURVE SMOOTH",
"31 157 OFFCURVE",
"60 92 OFFCURVE",
"108 48 CURVE",
"55 -36 LINE",
"116 -83 LINE",
"174 6 LINE",
"207 -8 OFFCURVE",
"245 -16 OFFCURVE",
"286 -16 CURVE SMOOTH",
"432 -16 OFFCURVE",
"535 91 OFFCURVE",
"535 259 CURVE SMOOTH",
"535 340 OFFCURVE",
"506 406 OFFCURVE",
"460 450 CURVE",
"512 531 LINE",
"445 574 LINE"
);
},
{
closed = 1;
nodes = (
"385 296 OFFCURVE",
"387 264 OFFCURVE",
"387 234 CURVE SMOOTH",
"387 149 OFFCURVE",
"369 56 OFFCURVE",
"290 55 CURVE SMOOTH",
"263 54 OFFCURVE",
"242 66 OFFCURVE",
"225 85 CURVE",
"379 326 LINE",
"380 326 LINE"
);
},
{
closed = 1;
nodes = (
"307 446 OFFCURVE",
"328 435 OFFCURVE",
"343 415 CURVE",
"188 171 LINE",
"187 171 LINE",
"180 201 OFFCURVE",
"178 234 OFFCURVE",
"178 266 CURVE SMOOTH",
"178 353 OFFCURVE",
"203 444 OFFCURVE",
"281 446 CURVE SMOOTH"
);
}
);
width = 566;
}
);
leftKerningGroup = o;
rightKerningGroup = o;
unicode = 00F8;
},
{
color = 4;
glyphname = oe;
layers = (
{
layerId = "7BBBACCF-9772-44A1-910F-14DC7866E88D";
paths = (
{
closed = 1;
nodes = (
"549 516 OFFCURVE",
"504 483 OFFCURVE",
"461 435 CURVE",
"459 435 LINE",
"418 486 OFFCURVE",
"374 516 OFFCURVE",
"283 516 CURVE SMOOTH",
"146 516 OFFCURVE",
"31 405 OFFCURVE",
"31 239 CURVE SMOOTH",
"31 82 OFFCURVE",
"141 -16 OFFCURVE",
"286 -16 CURVE SMOOTH",
"353 -16 OFFCURVE",
"413 12 OFFCURVE",
"454 62 CURVE",
"455 62 LINE",
"493 12 OFFCURVE",
"559 -16 OFFCURVE",
"628 -16 CURVE SMOOTH",
"696 -16 OFFCURVE",
"789 3 OFFCURVE",
"861 106 CURVE",
"816 148 LINE",
"770 92 OFFCURVE",
"709 73 OFFCURVE",
"669 73 CURVE SMOOTH",
"560 73 OFFCURVE",
"523 167 OFFCURVE",
"523 263 CURVE",
"853 269 LINE",
"854 458 OFFCURVE",
"742 516 OFFCURVE",
"633 516 CURVE SMOOTH"
);
},
{
closed = 1;
nodes = (
"362 448 OFFCURVE",
"385 333 OFFCURVE",
"387 249 CURVE SMOOTH",
"389 172 OFFCURVE",
"379 56 OFFCURVE",
"290 55 CURVE SMOOTH",
"208 53 OFFCURVE",
"178 164 OFFCURVE",
"178 266 CURVE SMOOTH",
"178 353 OFFCURVE",
"203 444 OFFCURVE",
"281 446 CURVE SMOOTH"
);
},
{
closed = 1;
nodes = (
"679 446 OFFCURVE",
"712 416 OFFCURVE",
"715 333 CURVE",
"531 333 LINE",
"541 400 OFFCURVE",
"573 446 OFFCURVE",
"632 446 CURVE SMOOTH"
);
}
);
width = 888;
}
);
leftKerningGroup = o;
leftMetricsKey = o;
rightKerningGroup = e;
rightMetricsKey = e;
unicode = 0153;
},
{
color = 4;
glyphname = p;
layers = (
{
layerId = "7BBBACCF-9772-44A1-910F-14DC7866E88D";
paths = (
{
closed = 1;
nodes = (
"326 516 OFFCURVE",
"279 502 OFFCURVE",
"233 462 CURVE",
"232 462 LINE",
"231 474 OFFCURVE",
"229 496 OFFCURVE",
"227 510 CURVE",
"178 510 LINE",
"164 497 OFFCURVE",
"117 480 OFFCURVE",
"24 480 CURVE",
"24 404 LINE",
"39 405 OFFCURVE",
"73 406 OFFCURVE",
"95 407 CURVE",
"92 377 OFFCURVE",
"91 346 OFFCURVE",
"91 322 CURVE SMOOTH",
"91 -101 LINE SMOOTH",
"91 -154 OFFCURVE",
"87 -190 OFFCURVE",
"31 -190 CURVE",
"31 -255 LINE",
"293 -255 LINE",
"293 -179 LINE",
"279 -179 OFFCURVE",
"250 -180 OFFCURVE",
"229 -182 CURVE",
"231 -152 OFFCURVE",
"232 -113 OFFCURVE",
"232 -94 CURVE SMOOTH",
"232 2 LINE",
"257 -7 OFFCURVE",
"285 -16 OFFCURVE",
"321 -16 CURVE SMOOTH",
"470 -16 OFFCURVE",
"569 102 OFFCURVE",
"569 263 CURVE SMOOTH",
"569 417 OFFCURVE",
"487 516 OFFCURVE",
"367 516 CURVE SMOOTH"
);
},
{
closed = 1;
nodes = (
"390 428 OFFCURVE",
"422 339 OFFCURVE",
"422 248 CURVE SMOOTH",
"422 149 OFFCURVE",
"397 61 OFFCURVE",
"305 59 CURVE SMOOTH",
"276 58 OFFCURVE",
"246 67 OFFCURVE",
"232 77 CURVE",
"232 382 LINE",
"250 408 OFFCURVE",
"280 425 OFFCURVE",
"313 426 CURVE SMOOTH"
);
}
);
width = 601;
}
);
rightKerningGroup = o;
unicode = 0070;
},
{
color = 4;
glyphname = thorn;
layers = (
{
layerId = "7BBBACCF-9772-44A1-910F-14DC7866E88D";
paths = (
{
closed = 1;
nodes = (
"150 755 LINE",
"136 742 OFFCURVE",
"89 725 OFFCURVE",
"-4 725 CURVE",
"-4 649 LINE",
"10 650 OFFCURVE",
"45 651 OFFCURVE",
"66 652 CURVE",
"63 623 OFFCURVE",
"63 589 OFFCURVE",
"63 565 CURVE SMOOTH",
"63 -101 LINE SMOOTH",
"63 -154 OFFCURVE",
"59 -190 OFFCURVE",
"3 -190 CURVE",
"3 -255 LINE",
"265 -255 LINE",
"265 -179 LINE",
"251 -179 OFFCURVE",
"222 -180 OFFCURVE",
"200 -182 CURVE",
"203 -152 OFFCURVE",
"204 -113 OFFCURVE",
"204 -94 CURVE SMOOTH",
"204 2 LINE",
"229 -7 OFFCURVE",
"257 -16 OFFCURVE",
"293 -16 CURVE SMOOTH",
"441 -16 OFFCURVE",
"541 102 OFFCURVE",
"541 263 CURVE SMOOTH",
"541 417 OFFCURVE",
"459 516 OFFCURVE",
"339 516 CURVE SMOOTH",
"297 516 OFFCURVE",
"251 502 OFFCURVE",
"206 462 CURVE",
"204 462 LINE",
"204 755 LINE"
);
},
{
closed = 1;
nodes = (
"362 428 OFFCURVE",
"394 339 OFFCURVE",
"394 248 CURVE SMOOTH",
"394 149 OFFCURVE",
"369 61 OFFCURVE",
"276 59 CURVE SMOOTH",
"248 58 OFFCURVE",
"218 67 OFFCURVE",
"204 77 CURVE",
"204 382 LINE",
"222 408 OFFCURVE",
"252 425 OFFCURVE",
"285 426 CURVE SMOOTH"
);
}
);
width = 573;
}
);
leftKerningGroup = b;
rightKerningGroup = o;
unicode = 00FE;
},
{
color = 4;
glyphname = q;
layers = (
{
layerId = "7BBBACCF-9772-44A1-910F-14DC7866E88D";
paths = (
{
closed = 1;
nodes = (
"131 516 OFFCURVE",
"32 398 OFFCURVE",
"32 237 CURVE SMOOTH",
"32 83 OFFCURVE",
"114 -16 OFFCURVE",
"234 -16 CURVE SMOOTH",
"281 -16 OFFCURVE",
"327 -1 OFFCURVE",
"369 40 CURVE",
"370 40 LINE",
"369 -101 LINE SMOOTH",
"369 -154 OFFCURVE",
"365 -190 OFFCURVE",
"310 -190 CURVE",
"310 -255 LINE",
"572 -255 LINE",
"572 -179 LINE",
"558 -179 OFFCURVE",
"528 -180 OFFCURVE",
"507 -182 CURVE",
"510 -152 OFFCURVE",
"511 -113 OFFCURVE",
"511 -94 CURVE SMOOTH",
"511 510 LINE",
"457 510 LINE",
"449 500 OFFCURVE",
"432 494 OFFCURVE",
"422 494 CURVE SMOOTH",
"396 494 OFFCURVE",
"356 516 OFFCURVE",
"282 516 CURVE SMOOTH"
);
},
{
closed = 1;
nodes = (
"325 443 OFFCURVE",
"369 430 OFFCURVE",
"369 355 CURVE SMOOTH",
"369 121 LINE",
"352 93 OFFCURVE",
"319 74 OFFCURVE",
"286 74 CURVE SMOOTH",
"209 74 OFFCURVE",
"180 167 OFFCURVE",
"179 252 CURVE SMOOTH",
"177 346 OFFCURVE",
"204 442 OFFCURVE",
"292 443 CURVE SMOOTH"
);
}
);
width = 573;
}
);
leftKerningGroup = d;
unicode = 0071;
},
{
color = 4;
glyphname = r;
layers = (
{
anchors = (
{
name = bottom;
position = "{240, 0}";
},
{
name = top;
position = "{288, 500}";
}
);
layerId = "7BBBACCF-9772-44A1-910F-14DC7866E88D";
paths = (
{
closed = 1;
nodes = (
"318 516 OFFCURVE",
"269 459 OFFCURVE",
"243 424 CURVE",
"241 424 LINE",
"241 452 OFFCURVE",
"239 496 OFFCURVE",
"237 510 CURVE",
"188 510 LINE",
"174 497 OFFCURVE",
"126 480 OFFCURVE",
"34 480 CURVE",
"34 404 LINE",
"48 405 OFFCURVE",
"83 406 OFFCURVE",
"104 407 CURVE",
"101 377 OFFCURVE",
"100 346 OFFCURVE",
"100 322 CURVE SMOOTH",
"100 154 LINE SMOOTH",
"100 101 OFFCURVE",
"96 65 OFFCURVE",
"41 65 CURVE",
"41 0 LINE",
"303 0 LINE",
"303 76 LINE",
"289 76 OFFCURVE",
"259 75 OFFCURVE",
"238 73 CURVE",
"241 103 OFFCURVE",
"242 142 OFFCURVE",
"242 161 CURVE SMOOTH",
"242 324 LINE",
"254 361 OFFCURVE",
"299 421 OFFCURVE",
"339 421 CURVE",
"343 375 OFFCURVE",
"377 363 OFFCURVE",
"404 363 CURVE SMOOTH",
"455 362 OFFCURVE",
"474 403 OFFCURVE",
"474 433 CURVE SMOOTH",
"474 491 OFFCURVE",
"434 516 OFFCURVE",
"387 516 CURVE SMOOTH"
);
}
);
width = 480;
}
);
leftKerningGroup = n;
rightKerningGroup = r;
unicode = 0072;
},
{
color = 4;
glyphname = s;
layers = (
{
anchors = (
{
name = bottom;
position = "{250, 0}";
},
{
name = top;
position = "{235, 500}";
}
);
layerId = "7BBBACCF-9772-44A1-910F-14DC7866E88D";
paths = (
{
closed = 1;
nodes = (
"96 516 OFFCURVE",
"39 432 OFFCURVE",
"39 355 CURVE SMOOTH",
"39 247 OFFCURVE",
"135 217 OFFCURVE",
"218 185 CURVE SMOOTH",
"293 156 OFFCURVE",
"333 144 OFFCURVE",
"334 106 CURVE SMOOTH",
"334 71 OFFCURVE",
"298 56 OFFCURVE",
"265 56 CURVE SMOOTH",
"180 56 OFFCURVE",
"116 104 OFFCURVE",
"110 165 CURVE",
"45 165 LINE",
"49 -7 LINE",
"125 -7 LINE",
"122 23 LINE",
"123 23 LINE",
"154 0 OFFCURVE",
"213 -16 OFFCURVE",
"271 -16 CURVE SMOOTH",
"364 -16 OFFCURVE",
"453 34 OFFCURVE",
"453 138 CURVE SMOOTH",
"453 232 OFFCURVE",
"378 278 OFFCURVE",
"277 313 CURVE SMOOTH",
"208 336 OFFCURVE",
"155 346 OFFCURVE",
"155 393 CURVE SMOOTH",
"155 431 OFFCURVE",
"187 446 OFFCURVE",
"221 446 CURVE SMOOTH",
"293 446 OFFCURVE",
"346 403 OFFCURVE",
"358 334 CURVE",
"423 334 LINE",
"423 511 LINE",
"347 511 LINE",
"348 482 LINE",
"347 482 LINE",
"315 505 OFFCURVE",
"263 516 OFFCURVE",
"227 516 CURVE SMOOTH"
);
}
);
width = 485;
}
);
leftKerningGroup = s;
rightKerningGroup = s;
unicode = 0073;
},
{
color = 4;
glyphname = germandbls;
layers = (
{
layerId = "7BBBACCF-9772-44A1-910F-14DC7866E88D";
paths = (
{
closed = 1;
nodes = (
"235 755 OFFCURVE",
"119 699 OFFCURVE",
"104 500 CURVE",
"30 500 LINE",
"30 417 LINE",
"102 419 LINE",
"102 154 LINE SMOOTH",
"102 101 OFFCURVE",
"98 65 OFFCURVE",
"42 65 CURVE",
"42 0 LINE",
"310 0 LINE",
"310 76 LINE",
"295 76 OFFCURVE",
"261 75 OFFCURVE",
"240 73 CURVE",
"243 103 OFFCURVE",
"244 144 OFFCURVE",
"244 163 CURVE",
"244 487 LINE SMOOTH",
"244 640 OFFCURVE",
"308 678 OFFCURVE",
"368 680 CURVE SMOOTH",
"418 681 OFFCURVE",
"493 665 OFFCURVE",
"494 512 CURVE",
"403 494 OFFCURVE",
"367 427 OFFCURVE",
"367 360 CURVE SMOOTH",
"367 252 OFFCURVE",
"444 221 OFFCURVE",
"527 189 CURVE SMOOTH",
"603 160 OFFCURVE",
"638 144 OFFCURVE",
"638 106 CURVE SMOOTH",
"639 74 OFFCURVE",
"603 56 OFFCURVE",
"574 56 CURVE SMOOTH",
"489 56 OFFCURVE",
"444 104 OFFCURVE",
"438 165 CURVE",
"374 165 LINE",
"378 -7 LINE",
"454 -7 LINE",
"451 23 LINE",
"452 23 LINE",
"483 0 OFFCURVE",
"522 -16 OFFCURVE",
"580 -16 CURVE SMOOTH",
"673 -16 OFFCURVE",
"757 34 OFFCURVE",
"757 138 CURVE SMOOTH",
"757 232 OFFCURVE",
"687 282 OFFCURVE",
"586 316 CURVE SMOOTH",
"517 340 OFFCURVE",
"483 352 OFFCURVE",
"483 393 CURVE SMOOTH",
"484 445 OFFCURVE",
"557 449 OFFCURVE",
"624 444 CURVE",
"653 735 OFFCURVE",
"450 755 OFFCURVE",
"375 755 CURVE SMOOTH"
);
}
);
width = 771;
}
);
leftKerningGroup = f;
unicode = 00DF;
},
{
color = 4;
glyphname = t;
layers = (
{
anchors = (
{
name = bottom;
position = "{247, 0}";
},
{
name = center;
position = "{207, 250}";
}
);
layerId = "7BBBACCF-9772-44A1-910F-14DC7866E88D";
paths = (
{
closed = 1;
nodes = (
"154 625 LINE",
"139 574 OFFCURVE",
"85 501 OFFCURVE",
"17 500 CURVE",
"17 417 LINE",
"32 417 OFFCURVE",
"62 417 OFFCURVE",
"85 417 CURVE",
"83 176 LINE SMOOTH",
"83 9 OFFCURVE",
"173 -16 OFFCURVE",
"239 -16 CURVE SMOOTH",
"274 -16 OFFCURVE",
"353 -14 OFFCURVE",
"425 92 CURVE",
"377 137 LINE",
"339 84 OFFCURVE",
"304 77 OFFCURVE",
"286 77 CURVE SMOOTH",
"235 77 OFFCURVE",
"226 128 OFFCURVE",
"226 174 CURVE SMOOTH",
"226 179 OFFCURVE",
"226 231 OFFCURVE",
"227 420 CURVE",
"354 423 LINE",
"354 500 LINE",
"227 500 LINE",
"228 625 LINE"
);
}
);
width = 413;
}
);
leftKerningGroup = t;
rightKerningGroup = t;
unicode = 0074;
},
{
color = 4;
glyphname = u;
layers = (
{
anchors = (
{
name = ogonek;
position = "{594, 0}";
},
{
name = top;
position = "{306, 500}";
}
);
layerId = "7BBBACCF-9772-44A1-910F-14DC7866E88D";
paths = (
{
closed = 1;
nodes = (
"478 510 LINE",
"464 497 OFFCURVE",
"417 480 OFFCURVE",
"325 480 CURVE",
"325 404 LINE",
"339 405 OFFCURVE",
"374 406 OFFCURVE",
"395 407 CURVE",
"392 377 OFFCURVE",
"391 344 OFFCURVE",
"391 320 CURVE SMOOTH",
"391 124 LINE",
"368 98 OFFCURVE",
"329 76 OFFCURVE",
"295 76 CURVE SMOOTH",
"245 76 OFFCURVE",
"224 117 OFFCURVE",
"224 204 CURVE SMOOTH",
"224 510 LINE",
"169 510 LINE",
"155 497 OFFCURVE",
"108 480 OFFCURVE",
"15 480 CURVE",
"15 404 LINE",
"29 405 OFFCURVE",
"64 406 OFFCURVE",
"85 407 CURVE",
"83 377 OFFCURVE",
"82 344 OFFCURVE",
"82 320 CURVE SMOOTH",
"82 205 LINE SMOOTH",
"82 51 OFFCURVE",
"128 -16 OFFCURVE",
"248 -16 CURVE SMOOTH",
"312 -16 OFFCURVE",
"357 17 OFFCURVE",
"397 52 CURVE",
"398 52 LINE",
"404 0 LINE",
"594 0 LINE",
"594 76 LINE",
"580 76 OFFCURVE",
"550 75 OFFCURVE",
"529 73 CURVE",
"532 103 OFFCURVE",
"533 142 OFFCURVE",
"533 161 CURVE SMOOTH",
"533 510 LINE"
);
}
);
width = 618;
}
);
leftKerningGroup = u;
rightKerningGroup = u;
unicode = 0075;
},
{
color = 4;
glyphname = v;
layers = (
{
layerId = "7BBBACCF-9772-44A1-910F-14DC7866E88D";
paths = (
{
closed = 1;
nodes = (
"345 500 LINE",
"345 424 LINE",
"407 428 LINE",
"407 427 LINE",
"395 407 OFFCURVE",
"386 390 OFFCURVE",
"374 357 CURVE SMOOTH",
"301 151 LINE",
"300 151 LINE",
"216 358 LINE SMOOTH",
"202 398 OFFCURVE",
"198 434 OFFCURVE",
"240 436 CURVE",
"240 500 LINE",
"6 500 LINE",
"6 424 LINE",
"43 426 LINE",
"48 402 OFFCURVE",
"47 393 OFFCURVE",
"69 344 CURVE SMOOTH",
"227 -3 LINE",
"314 -3 LINE",
"442 316 LINE SMOOTH",
"458 356 OFFCURVE",
"488 428 OFFCURVE",
"535 436 CURVE",
"535 500 LINE"
);
}
);
width = 538;
}
);
unicode = 0076;
},
{
color = 4;
glyphname = w;
layers = (
{
anchors = (
{
name = top;
position = "{418, 500}";
}
);
layerId = "7BBBACCF-9772-44A1-910F-14DC7866E88D";
paths = (
{
closed = 1;
nodes = (
"618 500 LINE",
"618 424 LINE",
"675 428 LINE",
"675 427 LINE",
"663 404 OFFCURVE",
"657 384 OFFCURVE",
"646 348 CURVE SMOOTH",
"607 221 LINE SMOOTH",
"599 196 OFFCURVE",
"588 160 OFFCURVE",
"584 134 CURVE",
"583 134 LINE",
"576 161 OFFCURVE",
"567 196 OFFCURVE",
"559 224 CURVE SMOOTH",
"479 500 LINE",
"370 500 LINE",
"297 249 LINE SMOOTH",
"282 199 OFFCURVE",
"277 169 OFFCURVE",
"271 141 CURVE",
"270 141 LINE",
"265 173 OFFCURVE",
"257 207 OFFCURVE",
"249 236 CURVE SMOOTH",
"215 358 LINE SMOOTH",
"204 399 OFFCURVE",
"206 434 OFFCURVE",
"248 436 CURVE",
"248 500 LINE",
"8 500 LINE",
"8 424 LINE",
"47 426 LINE",
"52 402 OFFCURVE",
"54 395 OFFCURVE",
"72 344 CURVE SMOOTH",
"193 -3 LINE",
"292 -3 LINE",
"347 162 LINE SMOOTH",
"354 184 OFFCURVE",
"383 277 OFFCURVE",
"393 333 CURVE",
"394 333 LINE",
"405 291 OFFCURVE",
"422 232 OFFCURVE",
"429 210 CURVE SMOOTH",
"498 -3 LINE",
"604 -3 LINE",
"718 328 LINE SMOOTH",
"727 354 OFFCURVE",
"755 436 OFFCURVE",
"808 436 CURVE",
"808 500 LINE"
);
}
);
width = 811;
}
);
unicode = 0077;
},
{
color = 4;
glyphname = x;
layers = (
{
layerId = "7BBBACCF-9772-44A1-910F-14DC7866E88D";
paths = (
{
closed = 1;
nodes = (
"324 500 LINE",
"324 424 LINE",
"373 428 LINE",
"373 427 LINE",
"355 411 OFFCURVE",
"340 392 OFFCURVE",
"324 373 CURVE SMOOTH",
"286 327 LINE",
"285 327 LINE",
"239 381 LINE SMOOTH",
"215 409 OFFCURVE",
"205 434 OFFCURVE",
"242 436 CURVE",
"242 500 LINE",
"21 500 LINE",
"21 424 LINE",
"48 426 LINE",
"57 402 OFFCURVE",
"89 364 OFFCURVE",
"105 344 CURVE SMOOTH",
"203 229 LINE",
"116 129 LINE SMOOTH",
"89 98 OFFCURVE",
"67 75 OFFCURVE",
"40 64 CURVE",
"40 0 LINE",
"206 0 LINE",
"206 76 LINE",
"160 72 LINE",
"160 73 LINE",
"172 81 OFFCURVE",
"198 111 OFFCURVE",
"205 120 CURVE SMOOTH",
"251 176 LINE",
"252 176 LINE",
"312 113 LINE SMOOTH",
"336 86 OFFCURVE",
"337 66 OFFCURVE",
"295 64 CURVE",
"295 0 LINE",
"531 0 LINE",
"531 76 LINE",
"497 74 LINE",
"484 98 OFFCURVE",
"467 118 OFFCURVE",
"449 139 CURVE SMOOTH",
"333 274 LINE",
"400 356 LINE SMOOTH",
"429 393 OFFCURVE",
"460 419 OFFCURVE",
"500 436 CURVE",
"500 500 LINE"
);
}
);
width = 548;
}
);
unicode = 0078;
},
{
color = 4;
glyphname = y;
layers = (
{
anchors = (
{
name = top;
position = "{295, 500}";
}
);
layerId = "7BBBACCF-9772-44A1-910F-14DC7866E88D";
paths = (
{
closed = 1;
nodes = (
"369 500 LINE",
"369 424 LINE",
"426 428 LINE",
"426 427 LINE",
"408 405 OFFCURVE",
"392 358 OFFCURVE",
"384 333 CURVE SMOOTH",
"355 247 OFFCURVE",
"333 168 OFFCURVE",
"321 134 CURVE",
"320 134 LINE",
"222 358 LINE SMOOTH",
"206 392 OFFCURVE",
"203 430 OFFCURVE",
"254 436 CURVE",
"254 500 LINE",
"5 500 LINE",
"5 424 LINE",
"51 426 LINE",
"55 396 OFFCURVE",
"61 365 OFFCURVE",
"99 291 CURVE SMOOTH",
"257 -26 LINE",
"234 -110 OFFCURVE",
"199 -190 OFFCURVE",
"172 -190 CURVE",
"172 -189 LINE",
"179 -147 OFFCURVE",
"152 -119 OFFCURVE",
"120 -120 CURVE SMOOTH",
"83 -121 OFFCURVE",
"57 -153 OFFCURVE",
"57 -189 CURVE SMOOTH",
"57 -238 OFFCURVE",
"97 -271 OFFCURVE",
"148 -271 CURVE SMOOTH",
"239 -271 OFFCURVE",
"278 -198 OFFCURVE",
"334 -35 CURVE SMOOTH",
"459 322 LINE SMOOTH",
"480 382 OFFCURVE",
"506 426 OFFCURVE",
"547 436 CURVE",
"547 500 LINE"
);
}
);
width = 551;
}
);
leftKerningGroup = y;
rightKerningGroup = y;
unicode = 0079;
},
{
color = 4;
glyphname = z;
layers = (
{
anchors = (
{
name = top;
position = "{267, 500}";
}
);
layerId = "7BBBACCF-9772-44A1-910F-14DC7866E88D";
paths = (
{
closed = 1;
nodes = (
"58 500 LINE",
"44 307 LINE",
"106 307 LINE",
"116 376 OFFCURVE",
"135 432 OFFCURVE",
"181 433 CURVE SMOOTH",
"316 435 LINE",
"316 434 LINE",
"311 429 OFFCURVE",
"287 404 OFFCURVE",
"265 375 CURVE SMOOTH",
"35 72 LINE",
"35 0 LINE",
"466 0 LINE",
"481 196 LINE",
"419 196 LINE",
"409 125 OFFCURVE",
"388 67 OFFCURVE",
"325 69 CURVE SMOOTH",
"184 72 LINE",
"184 73 LINE",
"202 89 OFFCURVE",
"221 108 OFFCURVE",
"240 134 CURVE SMOOTH",
"463 437 LINE",
"463 500 LINE"
);
}
);
width = 514;
}
);
leftKerningGroup = z;
rightKerningGroup = z;
unicode = 007A;
},
{
color = 4;
glyphname = fi;
layers = (
{
layerId = "7BBBACCF-9772-44A1-910F-14DC7866E88D";
paths = (
{
closed = 1;
nodes = (
"211 755 OFFCURVE",
"111 684 OFFCURVE",
"103 500 CURVE",
"30 500 LINE",
"30 417 LINE",
"103 418 LINE",
"103 154 LINE SMOOTH",
"103 101 OFFCURVE",
"99 65 OFFCURVE",
"43 65 CURVE",
"43 0 LINE",
"310 0 LINE",
"310 76 LINE",
"296 76 OFFCURVE",
"262 75 OFFCURVE",
"240 73 CURVE",
"243 103 OFFCURVE",
"244 144 OFFCURVE",
"244 163 CURVE SMOOTH",
"243 421 LINE",
"444 426 LINE",
"441 396 OFFCURVE",
"440 363 OFFCURVE",
"440 339 CURVE SMOOTH",
"440 154 LINE SMOOTH",
"440 101 OFFCURVE",
"437 65 OFFCURVE",
"381 65 CURVE",
"381 0 LINE",
"643 0 LINE",
"643 76 LINE",
"629 76 OFFCURVE",
"600 75 OFFCURVE",
"578 73 CURVE",
"581 103 OFFCURVE",
"582 142 OFFCURVE",
"582 161 CURVE SMOOTH",
"582 510 LINE",
"528 510 LINE",
"514 497 OFFCURVE",
"417 500 OFFCURVE",
"325 500 CURVE SMOOTH",
"242 500 LINE",
"242 524 LINE SMOOTH",
"242 603 OFFCURVE",
"253 684 OFFCURVE",
"362 684 CURVE SMOOTH",
"428 684 OFFCURVE",
"451 658 OFFCURVE",
"456 652 CURVE",
"443 607 OFFCURVE",
"471 570 OFFCURVE",
"517 571 CURVE SMOOTH",
"557 572 OFFCURVE",
"577 604 OFFCURVE",
"578 639 CURVE SMOOTH",
"578 672 OFFCURVE",
"550 755 OFFCURVE",
"362 755 CURVE SMOOTH"
);
}
);
width = 667;
}
);
leftKerningGroup = f;
rightKerningGroup = i;
unicode = FB01;
},
{
color = 4;
glyphname = fl;
layers = (
{
layerId = "7BBBACCF-9772-44A1-910F-14DC7866E88D";
paths = (
{
closed = 1;
nodes = (
"535 755 LINE",
"519 741 OFFCURVE",
"503 733 OFFCURVE",
"476 733 CURVE SMOOTH",
"425 733 OFFCURVE",
"379 755 OFFCURVE",
"304 755 CURVE SMOOTH",
"184 755 OFFCURVE",
"103 688 OFFCURVE",
"103 515 CURVE SMOOTH",
"103 500 LINE",
"30 500 LINE",
"30 417 LINE",
"103 418 LINE",
"103 154 LINE SMOOTH",
"103 101 OFFCURVE",
"99 65 OFFCURVE",
"43 65 CURVE",
"43 0 LINE",
"310 0 LINE",
"310 76 LINE",
"296 76 OFFCURVE",
"262 75 OFFCURVE",
"240 73 CURVE",
"243 103 OFFCURVE",
"244 144 OFFCURVE",
"244 163 CURVE SMOOTH",
"243 420 LINE",
"354 423 LINE",
"354 500 LINE",
"242 500 LINE",
"242 572 LINE SMOOTH",
"241 626 OFFCURVE",
"264 679 OFFCURVE",
"330 679 CURVE SMOOTH",
"384 679 OFFCURVE",
"407 668 OFFCURVE",
"447 646 CURVE",
"447 154 LINE SMOOTH",
"447 101 OFFCURVE",
"443 65 OFFCURVE",
"388 65 CURVE",
"388 0 LINE",
"650 0 LINE",
"650 76 LINE",
"636 76 OFFCURVE",
"606 75 OFFCURVE",
"585 73 CURVE",
"588 103 OFFCURVE",
"589 142 OFFCURVE",
"589 161 CURVE SMOOTH",
"589 755 LINE"
);
}
);
width = 675;
}
);
leftKerningGroup = f;
rightKerningGroup = l;
unicode = FB02;
},
{
color = 4;
glyphname = ordfeminine;
layers = (
{
layerId = "7BBBACCF-9772-44A1-910F-14DC7866E88D";
paths = (
{
closed = 1;
nodes = (
"108 716 OFFCURVE",
"50 669 OFFCURVE",
"50 618 CURVE SMOOTH",
"50 590 OFFCURVE",
"67 569 OFFCURVE",
"98 569 CURVE SMOOTH",
"134 568 OFFCURVE",
"148 600 OFFCURVE",
"148 619 CURVE SMOOTH",
"148 627 OFFCURVE",
"146 640 OFFCURVE",
"141 647 CURVE",
"150 657 OFFCURVE",
"167 661 OFFCURVE",
"179 661 CURVE SMOOTH",
"212 659 OFFCURVE",
"215 631 OFFCURVE",
"215 605 CURVE SMOOTH",
"215 562 LINE",
"131 556 OFFCURVE",
"35 523 OFFCURVE",
"35 447 CURVE SMOOTH",
"35 396 OFFCURVE",
"71 367 OFFCURVE",
"133 367 CURVE SMOOTH",
"162 367 OFFCURVE",
"204 387 OFFCURVE",
"223 424 CURVE",
"224 424 LINE",
"228 385 OFFCURVE",
"257 367 OFFCURVE",
"285 367 CURVE SMOOTH",
"313 367 OFFCURVE",
"346 386 OFFCURVE",
"366 414 CURVE",
"346 443 LINE",
"339 438 OFFCURVE",
"334 438 OFFCURVE",
"329 438 CURVE SMOOTH",
"313 438 OFFCURVE",
"312 459 OFFCURVE",
"312 472 CURVE SMOOTH",
"312 506 OFFCURVE",
"313 552 OFFCURVE",
"313 586 CURVE SMOOTH",
"313 676 OFFCURVE",
"269 716 OFFCURVE",
"189 716 CURVE SMOOTH"
);
},
{
closed = 1;
nodes = (
"215 466 LINE",
"198 449 OFFCURVE",
"182 441 OFFCURVE",
"166 441 CURVE SMOOTH",
"147 441 OFFCURVE",
"139 452 OFFCURVE",
"138 464 CURVE SMOOTH",
"135 493 OFFCURVE",
"175 511 OFFCURVE",
"215 514 CURVE"
);
}
);
width = 386;
}
);
unicode = 00AA;
},
{
color = 4;
glyphname = ordmasculine;
layers = (
{
layerId = "7BBBACCF-9772-44A1-910F-14DC7866E88D";
paths = (
{
closed = 1;
nodes = (
"92 716 OFFCURVE",
"30 637 OFFCURVE",
"30 533 CURVE SMOOTH",
"30 435 OFFCURVE",
"92 364 OFFCURVE",
"188 364 CURVE SMOOTH",
"288 364 OFFCURVE",
"349 439 OFFCURVE",
"348 545 CURVE SMOOTH",
"347 646 OFFCURVE",
"288 716 OFFCURVE",
"191 716 CURVE SMOOTH"
);
},
{
closed = 1;
nodes = (
"229 664 OFFCURVE",
"244 610 OFFCURVE",
"244 531 CURVE SMOOTH",
"244 459 OFFCURVE",
"225 421 OFFCURVE",
"193 420 CURVE SMOOTH",
"154 419 OFFCURVE",
"137 469 OFFCURVE",
"137 550 CURVE SMOOTH",
"137 623 OFFCURVE",
"157 660 OFFCURVE",
"189 662 CURVE SMOOTH"
);
}
);
width = 378;
}
);
unicode = 00BA;
},
{
color = 4;
glyphname = "Be-cy";
layers = (
{
layerId = "7BBBACCF-9772-44A1-910F-14DC7866E88D";
paths = (
{
closed = 1;
nodes = (
"266 407 LINE",
"266 547 LINE SMOOTH",
"266 625 OFFCURVE",
"291 634 OFFCURVE",
"333 634 CURVE SMOOTH",
"398 635 LINE SMOOTH",
"452 636 OFFCURVE",
"520 615 OFFCURVE",
"520 506 CURVE",
"585 506 LINE",
"580 700 LINE",
"50 700 LINE",
"50 623 LINE",
"64 624 OFFCURVE",
"104 625 OFFCURVE",
"125 626 CURVE",
"123 609 OFFCURVE",
"121 572 OFFCURVE",
"121 536 CURVE SMOOTH",
"121 153 LINE SMOOTH",
"121 72 OFFCURVE",
"95 68 OFFCURVE",
"50 66 CURVE",
"50 0 LINE",
"390 0 LINE SMOOTH",
"530 0 OFFCURVE",
"633 70 OFFCURVE",
"633 203 CURVE SMOOTH",
"633 315 OFFCURVE",
"587 416 OFFCURVE",
"326 409 CURVE SMOOTH"
);
},
{
closed = 1;
nodes = (
"266 336 LINE",
"292 338 OFFCURVE",
"313 337 OFFCURVE",
"347 337 CURVE SMOOTH",
"411 337 OFFCURVE",
"476 310 OFFCURVE",
"476 207 CURVE SMOOTH",
"476 130 OFFCURVE",
"440 76 OFFCURVE",
"359 72 CURVE SMOOTH",
"328 71 OFFCURVE",
"297 71 OFFCURVE",
"262 71 CURVE",
"264 88 OFFCURVE",
"266 123 OFFCURVE",
"266 159 CURVE SMOOTH"
);
}
);
width = 661;
}
);
unicode = 0411;
userData = {
public.markColor = "0.67,0.95,0.38,1";
};
},
{
color = 4;
glyphname = "Ge-cy";
layers = (
{
layerId = "7BBBACCF-9772-44A1-910F-14DC7866E88D";
paths = (
{
closed = 1;
nodes = (
"50 700 LINE",
"50 623 LINE",
"64 624 OFFCURVE",
"104 625 OFFCURVE",
"125 626 CURVE",
"123 609 OFFCURVE",
"121 572 OFFCURVE",
"121 536 CURVE SMOOTH",
"121 153 LINE SMOOTH",
"121 72 OFFCURVE",
"95 68 OFFCURVE",
"50 66 CURVE",
"50 0 LINE",
"351 0 LINE",
"351 77 LINE",
"336 77 OFFCURVE",
"283 76 OFFCURVE",
"262 74 CURVE",
"264 91 OFFCURVE",
"266 128 OFFCURVE",
"266 164 CURVE",
"266 547 LINE",
"266 625 OFFCURVE",
"291 633 OFFCURVE",
"333 634 CURVE SMOOTH",
"369 635 LINE SMOOTH",
"423 637 OFFCURVE",
"490 615 OFFCURVE",
"490 506 CURVE",
"556 506 LINE",
"550 700 LINE"
);
}
);
width = 571;
}
);
unicode = 0413;
userData = {
public.markColor = "0.67,0.95,0.38,1";
};
},
{
color = 4;
glyphname = "Gheupturn-cy";
layers = (
{
layerId = "7BBBACCF-9772-44A1-910F-14DC7866E88D";
paths = (
{
closed = 1;
nodes = (
"550 634 LINE",
"556 828 LINE",
"490 828 LINE",
"490 720 OFFCURVE",
"423 700 OFFCURVE",
"369 700 CURVE SMOOTH",
"343 700 LINE",
"343 634 LINE"
);
},
{
closed = 1;
nodes = (
"343 700 LINE",
"50 700 LINE",
"50 623 LINE",
"64 624 OFFCURVE",
"104 625 OFFCURVE",
"125 626 CURVE",
"123 609 OFFCURVE",
"121 572 OFFCURVE",
"121 536 CURVE SMOOTH",
"121 153 LINE SMOOTH",
"121 72 OFFCURVE",
"95 68 OFFCURVE",
"50 66 CURVE",
"50 0 LINE",
"351 0 LINE",
"351 77 LINE",
"336 77 OFFCURVE",
"283 76 OFFCURVE",
"262 74 CURVE",
"264 91 OFFCURVE",
"266 128 OFFCURVE",
"266 164 CURVE",
"266 547 LINE",
"266 625 OFFCURVE",
"291 634 OFFCURVE",
"333 634 CURVE SMOOTH",
"343 634 LINE"
);
}
);
width = 571;
}
);
unicode = 0490;
},
{
color = 4;
glyphname = "De-cy";
layers = (
{
layerId = "7BBBACCF-9772-44A1-910F-14DC7866E88D";
paths = (
{
closed = 1;
nodes = (
"611 547 LINE SMOOTH",
"611 628 OFFCURVE",
"638 632 OFFCURVE",
"683 634 CURVE",
"683 700 LINE",
"122 700 LINE",
"122 623 LINE",
"226 626 LINE",
"226 558 LINE SMOOTH",
"229 248 OFFCURVE",
"162 74 OFFCURVE",
"64 74 CURVE",
"119 8 LINE",
"203 47 OFFCURVE",
"297 206 OFFCURVE",
"302 563 CURVE SMOOTH",
"302 610 OFFCURVE",
"325 621 OFFCURVE",
"369 622 CURVE SMOOTH",
"467 625 LINE",
"467 161 LINE SMOOTH",
"467 81 OFFCURVE",
"423 77 OFFCURVE",
"378 74 CURVE",
"378 0 LINE",
"683 0 LINE",
"683 77 LINE",
"668 77 OFFCURVE",
"629 76 OFFCURVE",
"607 74 CURVE",
"610 91 OFFCURVE",
"611 128 OFFCURVE",
"611 164 CURVE SMOOTH"
);
},
{
closed = 1;
nodes = (
"605 74 LINE",
"27 74 LINE",
"27 -178 LINE",
"99 -178 LINE",
"98 -73 OFFCURVE",
"113 0 OFFCURVE",
"165 0 CURVE SMOOTH",
"575 0 LINE SMOOTH",
"627 0 OFFCURVE",
"642 -73 OFFCURVE",
"641 -178 CURVE",
"713 -178 LINE",
"713 78 LINE"
);
}
);
width = 745;
}
);
unicode = 0414;
userData = {
public.markColor = "0.67,0.95,0.38,1";
};
},
{
color = 4;
glyphname = "Zhe-cy";
layers = (
{
layerId = "7BBBACCF-9772-44A1-910F-14DC7866E88D";
paths = (
{
closed = 1;
nodes = (
"808 319 LINE SMOOTH",
"792 341 OFFCURVE",
"772 361 OFFCURVE",
"746 377 CURVE",
"746 378 LINE",
"866 532 LINE SMOOTH",
"930 614 OFFCURVE",
"976 632 OFFCURVE",
"1021 634 CURVE",
"1021 700 LINE",
"792 700 LINE",
"792 623 LINE",
"807 624 OFFCURVE",
"834 625 OFFCURVE",
"856 627 CURVE",
"856 626 LINE",
"838 612 OFFCURVE",
"826 596 OFFCURVE",
"772 526 CURVE SMOOTH",
"671 395 LINE",
"597 395 LINE",
"597 547 LINE SMOOTH",
"597 628 OFFCURVE",
"624 632 OFFCURVE",
"668 634 CURVE",
"668 700 LINE",
"381 700 LINE",
"381 623 LINE",
"396 624 OFFCURVE",
"435 625 OFFCURVE",
"457 626 CURVE",
"454 609 OFFCURVE",
"453 572 OFFCURVE",
"453 536 CURVE SMOOTH",
"453 395 LINE",
"382 395 LINE",
"282 526 LINE SMOOTH",
"244 575 OFFCURVE",
"214 613 OFFCURVE",
"197 626 CURVE",
"197 627 LINE",
"218 625 OFFCURVE",
"246 624 OFFCURVE",
"260 623 CURVE",
"260 700 LINE",
"29 700 LINE",
"29 634 LINE",
"74 632 OFFCURVE",
"119 614 OFFCURVE",
"184 532 CURVE SMOOTH",
"304 378 LINE",
"304 377 LINE",
"278 361 OFFCURVE",
"257 341 OFFCURVE",
"242 319 CURVE SMOOTH",
"139 174 LINE SMOOTH",
"98 117 OFFCURVE",
"52 68 OFFCURVE",
"7 66 CURVE",
"7 0 LINE",
"162 0 LINE",
"178 1 OFFCURVE",
"232 63 OFFCURVE",
"259 102 CURVE SMOOTH",
"358 246 LINE",
"376 271 OFFCURVE",
"398 302 OFFCURVE",
"417 315 CURVE",
"453 315 LINE",
"453 153 LINE SMOOTH",
"453 72 OFFCURVE",
"426 68 OFFCURVE",
"381 66 CURVE",
"381 0 LINE",
"668 0 LINE",
"668 77 LINE",
"654 77 OFFCURVE",
"615 76 OFFCURVE",
"593 74 CURVE",
"596 91 OFFCURVE",
"597 128 OFFCURVE",
"597 164 CURVE SMOOTH",
"597 315 LINE",
"633 315 LINE",
"651 302 OFFCURVE",
"673 271 OFFCURVE",
"692 246 CURVE",
"791 102 LINE SMOOTH",
"817 63 OFFCURVE",
"872 1 OFFCURVE",
"888 0 CURVE",
"1042 0 LINE",
"1042 66 LINE",
"998 68 OFFCURVE",
"952 117 OFFCURVE",
"911 174 CURVE SMOOTH"
);
}
);
width = 1050;
}
);
leftMetricsKey = "=|Ka-cy";
rightMetricsKey = "Ka-cy";
unicode = 0416;
userData = {
public.markColor = "0.67,0.95,0.38,1";
};
},
{
color = 4;
glyphname = "Ze-cy";
layers = (
{
layerId = "7BBBACCF-9772-44A1-910F-14DC7866E88D";
paths = (
{
closed = 1;
nodes = (
"234 394 LINE",
"234 323 LINE",
"361 323 LINE",
"418 323 OFFCURVE",
"475 283 OFFCURVE",
"475 201 CURVE SMOOTH",
"475 105 OFFCURVE",
"396 65 OFFCURVE",
"316 65 CURVE",
"228 65 OFFCURVE",
"136 111 OFFCURVE",
"80 188 CURVE",
"32 144 LINE",
"124 9 OFFCURVE",
"236 -16 OFFCURVE",
"333 -16 CURVE",
"498 -19 OFFCURVE",
"633 56 OFFCURVE",
"633 190 CURVE SMOOTH",
"633 278 OFFCURVE",
"576 352 OFFCURVE",
"454 371 CURVE",
"454 394 LINE"
);
},
{
closed = 1;
nodes = (
"423 361 LINE",
"541 386 OFFCURVE",
"595 456 OFFCURVE",
"595 543 CURVE SMOOTH",
"595 653 OFFCURVE",
"504 720 OFFCURVE",
"352 716 CURVE",
"273 716 OFFCURVE",
"225 699 OFFCURVE",
"156 667 CURVE",
"155 667 LINE",
"159 709 LINE",
"82 709 LINE",
"82 476 LINE",
"147 476 LINE",
"176 587 OFFCURVE",
"224 644 OFFCURVE",
"322 644 CURVE SMOOTH",
"402 644 OFFCURVE",
"447 604 OFFCURVE",
"447 522 CURVE SMOOTH",
"447 453 OFFCURVE",
"415 394 OFFCURVE",
"324 394 CURVE"
);
}
);
width = 661;
}
);
rightMetricsKey = B;
unicode = 0417;
userData = {
public.markColor = "0.67,0.95,0.38,1";
};
},
{
color = 4;
glyphname = "Ii-cy";
layers = (
{
layerId = "7BBBACCF-9772-44A1-910F-14DC7866E88D";
paths = (
{
closed = 1;
nodes = (
"266 547 LINE SMOOTH",
"266 628 OFFCURVE",
"292 632 OFFCURVE",
"337 634 CURVE",
"337 700 LINE",
"50 700 LINE",
"50 623 LINE",
"64 624 OFFCURVE",
"104 625 OFFCURVE",
"125 626 CURVE",
"123 609 OFFCURVE",
"121 572 OFFCURVE",
"121 536 CURVE SMOOTH",
"121 153 LINE SMOOTH",
"121 72 OFFCURVE",
"95 68 OFFCURVE",
"50 66 CURVE",
"50 0 LINE",
"337 0 LINE",
"337 77 LINE",
"323 77 OFFCURVE",
"283 76 OFFCURVE",
"262 74 CURVE",
"264 91 OFFCURVE",
"266 128 OFFCURVE",
"266 164 CURVE SMOOTH"
);
},
{
closed = 1;
nodes = (
"553 153 LINE SMOOTH",
"553 72 OFFCURVE",
"527 68 OFFCURVE",
"482 66 CURVE",
"482 0 LINE",
"769 0 LINE",
"769 77 LINE",
"755 77 OFFCURVE",
"715 76 OFFCURVE",
"694 74 CURVE",
"696 91 OFFCURVE",
"698 128 OFFCURVE",
"698 164 CURVE SMOOTH",
"698 547 LINE SMOOTH",
"698 628 OFFCURVE",
"724 632 OFFCURVE",
"769 634 CURVE",
"769 700 LINE",
"482 700 LINE",
"482 623 LINE",
"496 624 OFFCURVE",
"536 625 OFFCURVE",
"557 626 CURVE",
"555 609 OFFCURVE",
"553 572 OFFCURVE",
"553 536 CURVE SMOOTH"
);
},
{
closed = 1;
nodes = (
"630 670 LINE",
"128 80 LINE",
"179 29 LINE",
"678 622 LINE"
);
}
);
width = 807;
}
);
unicode = 0418;
userData = {
public.markColor = "0.67,0.95,0.38,1";
};
},
{
color = 4;
glyphname = "Iishort-cy";
layers = (
{
components = (
{
name = "Ii-cy";
}
);
layerId = "7BBBACCF-9772-44A1-910F-14DC7866E88D";
paths = (
{
closed = 1;
nodes = (
"499 928 OFFCURVE",
"486 885 OFFCURVE",
"486 870 CURVE SMOOTH",
"486 858 OFFCURVE",
"489 844 OFFCURVE",
"496 830 CURVE",
"477 817 OFFCURVE",
"445 810 OFFCURVE",
"415 810 CURVE SMOOTH",
"384 810 OFFCURVE",
"353 817 OFFCURVE",
"333 830 CURVE",
"340 844 OFFCURVE",
"343 858 OFFCURVE",
"343 870 CURVE SMOOTH",
"343 885 OFFCURVE",
"331 928 OFFCURVE",
"284 926 CURVE SMOOTH",
"245 926 OFFCURVE",
"229 895 OFFCURVE",
"229 863 CURVE SMOOTH",
"229 795 OFFCURVE",
"315 760 OFFCURVE",
"415 760 CURVE SMOOTH",
"514 760 OFFCURVE",
"601 795 OFFCURVE",
"601 863 CURVE SMOOTH",
"601 895 OFFCURVE",
"584 926 OFFCURVE",
"545 926 CURVE SMOOTH"
);
}
);
width = 807;
}
);
unicode = 0419;
},
{
color = 4;
glyphname = "El-cy";
layers = (
{
layerId = "7BBBACCF-9772-44A1-910F-14DC7866E88D";
paths = (
{
closed = 1;
nodes = (
"666 547 LINE SMOOTH",
"666 628 OFFCURVE",
"692 632 OFFCURVE",
"737 634 CURVE",
"737 700 LINE",
"185 700 LINE",
"185 623 LINE",
"300 626 LINE",
"297 510 LINE SMOOTH",
"289 192 OFFCURVE",
"213 65 OFFCURVE",
"177 65 CURVE SMOOTH",
"171 65 OFFCURVE",
"165 66 OFFCURVE",
"162 68 CURVE",
"168 76 OFFCURVE",
"170 83 OFFCURVE",
"170 96 CURVE SMOOTH",
"170 132 OFFCURVE",
"150 161 OFFCURVE",
"103 161 CURVE SMOOTH",
"46 161 OFFCURVE",
"21 120 OFFCURVE",
"21 73 CURVE SMOOTH",
"21 16 OFFCURVE",
"68 -16 OFFCURVE",
"140 -16 CURVE SMOOTH",
"258 -16 OFFCURVE",
"365 132 OFFCURVE",
"374 563 CURVE SMOOTH",
"375 607 OFFCURVE",
"396 621 OFFCURVE",
"441 622 CURVE SMOOTH",
"521 625 LINE",
"521 153 LINE SMOOTH",
"521 72 OFFCURVE",
"495 68 OFFCURVE",
"450 66 CURVE",
"450 0 LINE",
"737 0 LINE",
"737 77 LINE",
"723 77 OFFCURVE",
"684 76 OFFCURVE",
"662 74 CURVE",
"665 91 OFFCURVE",
"666 128 OFFCURVE",
"666 164 CURVE SMOOTH"
);
}
);
width = 787;
}
);
rightMetricsKey = "En-cy";
unicode = 041B;
userData = {
public.markColor = "0.67,0.95,0.38,1";
};
},
{
color = 4;
glyphname = "Pe-cy";
layers = (
{
layerId = "7BBBACCF-9772-44A1-910F-14DC7866E88D";
paths = (
{
closed = 1;
nodes = (
"671 547 LINE",
"671 628 OFFCURVE",
"697 632 OFFCURVE",
"742 634 CURVE",
"742 700 LINE",
"50 700 LINE",
"50 623 LINE",
"64 624 OFFCURVE",
"104 625 OFFCURVE",
"125 626 CURVE",
"123 609 OFFCURVE",
"121 572 OFFCURVE",
"121 536 CURVE SMOOTH",
"121 153 LINE SMOOTH",
"121 72 OFFCURVE",
"95 68 OFFCURVE",
"50 66 CURVE",
"50 0 LINE",
"337 0 LINE",
"337 77 LINE",
"323 77 OFFCURVE",
"283 76 OFFCURVE",
"262 74 CURVE",
"264 91 OFFCURVE",
"266 128 OFFCURVE",
"266 164 CURVE SMOOTH",
"266 535 LINE SMOOTH",
"266 615 OFFCURVE",
"291 620 OFFCURVE",
"335 622 CURVE",
"526 625 LINE",
"526 153 LINE SMOOTH",
"526 72 OFFCURVE",
"500 68 OFFCURVE",
"455 66 CURVE",
"455 0 LINE",
"742 0 LINE",
"742 77 LINE",
"728 77 OFFCURVE",
"688 76 OFFCURVE",
"667 74 CURVE",
"669 91 OFFCURVE",
"671 128 OFFCURVE",
"671 164 CURVE"
);
}
);
width = 792;
}
);
rightMetricsKey = "En-cy";
unicode = 041F;
userData = {
public.markColor = "0.67,0.95,0.38,1";
};
},
{
color = 4;
glyphname = "U-cy";
layers = (
{
layerId = "7BBBACCF-9772-44A1-910F-14DC7866E88D";
paths = (
{
closed = 1;
nodes = (
"371 291 LINE",
"364 325 OFFCURVE",
"353 354 OFFCURVE",
"319 415 CURVE SMOOTH",
"241 557 LINE SMOOTH",
"210 613 OFFCURVE",
"242 638 OFFCURVE",
"300 634 CURVE",
"300 700 LINE",
"12 700 LINE",
"12 623 LINE",
"61 626 LINE",
"61 604 OFFCURVE",
"80 561 OFFCURVE",
"99 531 CURVE SMOOTH",
"326 157 LINE"
);
},
{
closed = 1;
nodes = (
"321 191 LINE",
"273 92 OFFCURVE",
"245 53 OFFCURVE",
"215 53 CURVE SMOOTH",
"208 53 OFFCURVE",
"204 56 OFFCURVE",
"201 60 CURVE",
"211 74 OFFCURVE",
"216 89 OFFCURVE",
"216 104 CURVE SMOOTH",
"216 137 OFFCURVE",
"192 166 OFFCURVE",
"147 166 CURVE SMOOTH",
"94 166 OFFCURVE",
"71 124 OFFCURVE",
"71 83 CURVE SMOOTH",
"71 24 OFFCURVE",
"118 -16 OFFCURVE",
"182 -16 CURVE SMOOTH",
"248 -16 OFFCURVE",
"326 25 OFFCURVE",
"389 170 CURVE SMOOTH",
"544 527 LINE SMOOTH",
"577 603 OFFCURVE",
"612 627 OFFCURVE",
"659 634 CURVE",
"659 700 LINE",
"438 700 LINE",
"438 623 LINE",
"514 627 LINE",
"514 626 LINE",
"497 605 OFFCURVE",
"475 572 OFFCURVE",
"461 535 CURVE SMOOTH"
);
}
);
width = 658;
}
);
unicode = 0423;
userData = {
public.markColor = "0.67,0.95,0.38,1";
};
},
{
color = 4;
glyphname = "Ushort-cy";
layers = (
{
components = (
{
name = "U-cy";
}
);
layerId = "7BBBACCF-9772-44A1-910F-14DC7866E88D";
paths = (
{
closed = 1;
nodes = (
"445 928 OFFCURVE",
"433 885 OFFCURVE",
"433 870 CURVE SMOOTH",
"433 858 OFFCURVE",
"436 844 OFFCURVE",
"442 830 CURVE",
"423 817 OFFCURVE",
"392 810 OFFCURVE",
"361 810 CURVE SMOOTH",
"330 810 OFFCURVE",
"299 817 OFFCURVE",
"279 830 CURVE",
"286 844 OFFCURVE",
"289 858 OFFCURVE",
"289 870 CURVE SMOOTH",
"289 885 OFFCURVE",
"277 928 OFFCURVE",
"230 926 CURVE SMOOTH",
"191 926 OFFCURVE",
"175 895 OFFCURVE",
"175 863 CURVE SMOOTH",
"175 795 OFFCURVE",
"262 760 OFFCURVE",
"361 760 CURVE SMOOTH",
"460 760 OFFCURVE",
"547 795 OFFCURVE",
"547 863 CURVE SMOOTH",
"547 895 OFFCURVE",
"530 926 OFFCURVE",
"492 926 CURVE SMOOTH"
);
}
);
width = 658;
}
);
unicode = 040E;
},
{
color = 4;
glyphname = "Ef-cy";
layers = (
{
layerId = "7BBBACCF-9772-44A1-910F-14DC7866E88D";
paths = (
{
closed = 1;
nodes = (
"160 645 OFFCURVE",
"35 509 OFFCURVE",
"35 343 CURVE SMOOTH",
"35 197 OFFCURVE",
"139 70 OFFCURVE",
"417 70 CURVE SMOOTH",
"690 70 OFFCURVE",
"822 200 OFFCURVE",
"822 350 CURVE SMOOTH",
"822 499 OFFCURVE",
"701 645 OFFCURVE",
"419 645 CURVE SMOOTH"
);
},
{
closed = 1;
nodes = (
"593 581 OFFCURVE",
"674 486 OFFCURVE",
"674 333 CURVE SMOOTH",
"674 193 OFFCURVE",
"599 134 OFFCURVE",
"427 134 CURVE SMOOTH",
"263 134 OFFCURVE",
"183 213 OFFCURVE",
"183 355 CURVE SMOOTH",
"183 491 OFFCURVE",
"254 581 OFFCURVE",
"417 581 CURVE SMOOTH"
);
},
{
closed = 1;
nodes = (
"286 769 LINE",
"286 692 LINE",
"361 695 LINE",
"358 678 OFFCURVE",
"357 641 OFFCURVE",
"357 605 CURVE SMOOTH",
"357 99 LINE SMOOTH",
"357 19 OFFCURVE",
"331 15 OFFCURVE",
"286 12 CURVE",
"286 -54 LINE",
"563 -54 LINE",
"563 23 LINE",
"488 21 LINE",
"490 38 OFFCURVE",
"492 74 OFFCURVE",
"492 110 CURVE SMOOTH",
"492 616 LINE SMOOTH",
"492 697 OFFCURVE",
"518 701 OFFCURVE",
"563 703 CURVE",
"563 769 LINE"
);
}
);
width = 857;
}
);
leftMetricsKey = O;
rightMetricsKey = O;
unicode = 0424;
userData = {
public.markColor = "0.67,0.95,0.38,1";
};
},
{
color = 4;
glyphname = "Che-cy";
layers = (
{
anchors = (
{
name = bottomright;
position = "{729, 0}";
},
{
name = center;
position = "{378, 302}";
},
{
name = top;
position = "{390, 700}";
}
);
layerId = "7BBBACCF-9772-44A1-910F-14DC7866E88D";
paths = (
{
closed = 1;
nodes = (
"513 153 LINE",
"513 72 OFFCURVE",
"487 68 OFFCURVE",
"442 66 CURVE",
"442 0 LINE",
"729 0 LINE",
"729 77 LINE",
"715 77 OFFCURVE",
"675 76 OFFCURVE",
"654 74 CURVE",
"656 91 OFFCURVE",
"658 128 OFFCURVE",
"658 164 CURVE SMOOTH",
"658 547 LINE SMOOTH",
"658 628 OFFCURVE",
"684 632 OFFCURVE",
"729 634 CURVE",
"729 700 LINE",
"442 700 LINE",
"442 623 LINE",
"456 624 OFFCURVE",
"496 625 OFFCURVE",
"517 626 CURVE",
"515 609 OFFCURVE",
"513 572 OFFCURVE",
"513 536 CURVE"
);
},
{
closed = 1;
nodes = (
"248 466 LINE",
"248 547 LINE SMOOTH",
"248 628 OFFCURVE",
"274 632 OFFCURVE",
"319 634 CURVE",
"319 700 LINE",
"32 700 LINE",
"32 623 LINE",
"46 624 OFFCURVE",
"85 625 OFFCURVE",
"107 626 CURVE",
"104 609 OFFCURVE",
"103 572 OFFCURVE",
"103 536 CURVE SMOOTH",
"103 467 LINE"
);
},
{
closed = 1;
nodes = (
"370 254 OFFCURVE",
"461 279 OFFCURVE",
"513 310 CURVE",
"513 383 LINE",
"484 363 OFFCURVE",
"423 346 OFFCURVE",
"365 346 CURVE SMOOTH",
"286 346 OFFCURVE",
"249 384 OFFCURVE",
"248 466 CURVE",
"103 467 LINE",
"104 318 OFFCURVE",
"176 254 OFFCURVE",
"301 254 CURVE SMOOTH"
);
}
);
width = 779;
}
);
unicode = 0427;
userData = {
public.markColor = "0.67,0.95,0.38,1";
};
},
{
color = 4;
glyphname = "Tse-cy";
layers = (
{
components = (
{
name = "Pe-cy";
transform = "{-1, 0, 0, -1, 802, 700}";
}
);
layerId = "7BBBACCF-9772-44A1-910F-14DC7866E88D";
paths = (
{
closed = 1;
nodes = (
"752 77 LINE",
"644 72 LINE",
"644 0 LINE",
"696 0 OFFCURVE",
"711 -73 OFFCURVE",
"709 -177 CURVE",
"782 -177 LINE",
"782 78 LINE"
);
}
);
width = 813;
}
);
unicode = 0426;
userData = {
public.markColor = "0.67,0.95,0.38,1";
};
},
{
color = 4;
glyphname = "Sha-cy";
layers = (
{
layerId = "7BBBACCF-9772-44A1-910F-14DC7866E88D";
paths = (
{
closed = 1;
nodes = (
"979 547 LINE SMOOTH",
"979 628 OFFCURVE",
"1005 632 OFFCURVE",
"1050 634 CURVE",
"1050 700 LINE",
"763 700 LINE",
"763 623 LINE",
"777 624 OFFCURVE",
"816 625 OFFCURVE",
"838 626 CURVE",
"835 609 OFFCURVE",
"834 572 OFFCURVE",
"834 536 CURVE SMOOTH",
"834 165 LINE SMOOTH",
"834 84 OFFCURVE",
"808 79 OFFCURVE",
"764 78 CURVE SMOOTH",
"618 76 LINE",
"621 93 OFFCURVE",
"622 129 OFFCURVE",
"622 164 CURVE SMOOTH",
"622 547 LINE SMOOTH",
"622 628 OFFCURVE",
"648 632 OFFCURVE",
"693 634 CURVE",
"693 700 LINE",
"406 700 LINE",
"406 623 LINE",
"420 624 OFFCURVE",
"460 625 OFFCURVE",
"481 626 CURVE",
"479 609 OFFCURVE",
"478 572 OFFCURVE",
"478 536 CURVE SMOOTH",
"478 165 LINE SMOOTH",
"478 84 OFFCURVE",
"451 81 OFFCURVE",
"408 78 CURVE",
"266 76 LINE",
"266 547 LINE SMOOTH",
"266 628 OFFCURVE",
"292 632 OFFCURVE",
"337 634 CURVE",
"337 700 LINE",
"50 700 LINE",
"50 623 LINE",
"64 624 OFFCURVE",
"104 625 OFFCURVE",
"125 626 CURVE",
"123 609 OFFCURVE",
"121 572 OFFCURVE",
"121 536 CURVE SMOOTH",
"121 153 LINE SMOOTH",
"121 72 OFFCURVE",
"95 68 OFFCURVE",
"50 66 CURVE",
"50 0 LINE",
"1050 0 LINE",
"1050 77 LINE",
"1036 77 OFFCURVE",
"996 76 OFFCURVE",
"975 74 CURVE",
"977 91 OFFCURVE",
"979 128 OFFCURVE",
"979 164 CURVE SMOOTH"
);
}
);
width = 1100;
}
);
unicode = 0428;
userData = {
public.markColor = "0.67,0.95,0.38,1";
};
},
{
color = 4;
glyphname = "Shcha-cy";
layers = (
{
components = (
{
name = "Sha-cy";
}
);
layerId = "7BBBACCF-9772-44A1-910F-14DC7866E88D";
paths = (
{
closed = 1;
nodes = (
"1050 77 LINE",
"941 72 LINE",
"941 0 LINE",
"994 0 OFFCURVE",
"1009 -73 OFFCURVE",
"1007 -177 CURVE",
"1080 -177 LINE",
"1080 78 LINE"
);
}
);
width = 1111;
}
);
leftMetricsKey = "En-cy";
unicode = 0429;
userData = {
public.markColor = "0.67,0.95,0.38,1";
};
},
{
color = 4;
glyphname = "Dzhe-cy";
layers = (
{
components = (
{
name = "Pe-cy";
transform = "{-1, 0, 0, -1, 802, 700}";
}
);
layerId = "7BBBACCF-9772-44A1-910F-14DC7866E88D";
paths = (
{
closed = 1;
nodes = (
"425 72 LINE",
"316 67 LINE",
"316 0 LINE",
"369 0 OFFCURVE",
"384 -73 OFFCURVE",
"382 -177 CURVE",
"455 -177 LINE",
"455 73 LINE"
);
}
);
width = 802;
}
);
unicode = 040F;
},
{
color = 4;
glyphname = "Softsign-cy";
layers = (
{
layerId = "7BBBACCF-9772-44A1-910F-14DC7866E88D";
paths = (
{
closed = 1;
nodes = (
"266 407 LINE",
"266 547 LINE SMOOTH",
"266 628 OFFCURVE",
"292 632 OFFCURVE",
"337 634 CURVE",
"337 700 LINE",
"50 700 LINE",
"50 623 LINE",
"64 624 OFFCURVE",
"104 625 OFFCURVE",
"125 626 CURVE",
"123 609 OFFCURVE",
"121 572 OFFCURVE",
"121 536 CURVE SMOOTH",
"121 153 LINE SMOOTH",
"121 72 OFFCURVE",
"95 68 OFFCURVE",
"50 66 CURVE",
"50 0 LINE",
"366 0 LINE SMOOTH",
"506 0 OFFCURVE",
"609 69 OFFCURVE",
"609 199 CURVE SMOOTH",
"609 305 OFFCURVE",
"540 418 OFFCURVE",
"301 409 CURVE SMOOTH"
);
},
{
closed = 1;
nodes = (
"266 336 LINE",
"322 337 LINE SMOOTH",
"397 339 OFFCURVE",
"451 306 OFFCURVE",
"451 207 CURVE SMOOTH",
"451 128 OFFCURVE",
"416 76 OFFCURVE",
"335 72 CURVE SMOOTH",
"311 71 OFFCURVE",
"286 71 OFFCURVE",
"262 71 CURVE",
"264 88 OFFCURVE",
"266 123 OFFCURVE",
"266 159 CURVE SMOOTH"
);
}
);
width = 650;
}
);
leftMetricsKey = "En-cy";
unicode = 042C;
userData = {
public.markColor = "0.67,0.95,0.38,1";
};
},
{
color = 4;
glyphname = "Hardsign-cy";
layers = (
{
layerId = "7BBBACCF-9772-44A1-910F-14DC7866E88D";
paths = (
{
closed = 1;
nodes = (
"396 407 LINE",
"396 547 LINE SMOOTH",
"396 628 OFFCURVE",
"422 632 OFFCURVE",
"467 634 CURVE",
"467 700 LINE",
"21 700 LINE",
"16 474 LINE",
"82 474 LINE",
"82 582 OFFCURVE",
"129 631 OFFCURVE",
"205 632 CURVE SMOOTH",
"251 632 LINE",
"251 153 LINE SMOOTH",
"251 72 OFFCURVE",
"225 68 OFFCURVE",
"180 66 CURVE",
"180 0 LINE",
"496 0 LINE SMOOTH",
"636 0 OFFCURVE",
"739 69 OFFCURVE",
"739 199 CURVE SMOOTH",
"739 305 OFFCURVE",
"670 418 OFFCURVE",
"432 409 CURVE SMOOTH"
);
},
{
closed = 1;
nodes = (
"396 336 LINE",
"453 337 LINE SMOOTH",
"527 339 OFFCURVE",
"582 306 OFFCURVE",
"582 207 CURVE SMOOTH",
"582 128 OFFCURVE",
"546 76 OFFCURVE",
"465 72 CURVE SMOOTH",
"441 71 OFFCURVE",
"416 71 OFFCURVE",
"392 71 CURVE",
"395 88 OFFCURVE",
"396 123 OFFCURVE",
"396 159 CURVE SMOOTH"
);
}
);
width = 781;
}
);
leftMetricsKey = "Te-cy";
rightMetricsKey = "Softsign-cy";
unicode = 042A;
userData = {
public.markColor = "0.67,0.95,0.38,1";
};
},
{
color = 4;
glyphname = "Lje-cy";
layers = (
{
layerId = "7BBBACCF-9772-44A1-910F-14DC7866E88D";
paths = (
{
closed = 1;
nodes = (
"666 407 LINE",
"666 547 LINE SMOOTH",
"666 628 OFFCURVE",
"692 632 OFFCURVE",
"737 634 CURVE",
"737 700 LINE",
"161 700 LINE",
"161 623 LINE",
"297 626 LINE",
"257 221 OFFCURVE",
"235 55 OFFCURVE",
"177 55 CURVE SMOOTH",
"169 55 OFFCURVE",
"165 56 OFFCURVE",
"162 59 CURVE",
"167 70 OFFCURVE",
"171 84 OFFCURVE",
"170 96 CURVE SMOOTH",
"169 129 OFFCURVE",
"148 163 OFFCURVE",
"102 161 CURVE SMOOTH",
"54 158 OFFCURVE",
"29 120 OFFCURVE",
"29 73 CURVE SMOOTH",
"29 16 OFFCURVE",
"68 -16 OFFCURVE",
"152 -16 CURVE SMOOTH",
"271 -16 OFFCURVE",
"316 45 OFFCURVE",
"374 563 CURVE SMOOTH",
"379 610 OFFCURVE",
"396 621 OFFCURVE",
"441 622 CURVE SMOOTH",
"521 625 LINE",
"521 153 LINE SMOOTH",
"521 72 OFFCURVE",
"495 68 OFFCURVE",
"450 66 CURVE",
"450 0 LINE",
"766 0 LINE SMOOTH",
"906 0 OFFCURVE",
"1009 69 OFFCURVE",
"1009 199 CURVE SMOOTH",
"1009 305 OFFCURVE",
"940 418 OFFCURVE",
"702 409 CURVE SMOOTH"
);
},
{
closed = 1;
nodes = (
"666 336 LINE",
"723 337 LINE SMOOTH",
"797 339 OFFCURVE",
"852 306 OFFCURVE",
"852 207 CURVE SMOOTH",
"852 128 OFFCURVE",
"816 76 OFFCURVE",
"735 72 CURVE SMOOTH",
"711 71 OFFCURVE",
"686 71 OFFCURVE",
"662 71 CURVE",
"665 88 OFFCURVE",
"666 123 OFFCURVE",
"666 159 CURVE SMOOTH"
);
}
);
width = 1051;
}
);
rightMetricsKey = "Softsign-cy";
unicode = 0409;
},
{
color = 4;
glyphname = "Nje-cy";
layers = (
{
layerId = "7BBBACCF-9772-44A1-910F-14DC7866E88D";
paths = (
{
closed = 1;
nodes = (
"686 407 LINE",
"686 547 LINE SMOOTH",
"686 628 OFFCURVE",
"712 632 OFFCURVE",
"757 634 CURVE",
"757 700 LINE",
"470 700 LINE",
"470 623 LINE",
"484 624 OFFCURVE",
"523 625 OFFCURVE",
"545 626 CURVE",
"542 609 OFFCURVE",
"541 572 OFFCURVE",
"541 536 CURVE SMOOTH",
"541 407 LINE",
"266 407 LINE",
"266 547 LINE SMOOTH",
"266 628 OFFCURVE",
"292 632 OFFCURVE",
"337 634 CURVE",
"337 700 LINE",
"50 700 LINE",
"50 623 LINE",
"64 624 OFFCURVE",
"104 625 OFFCURVE",
"125 626 CURVE",
"123 609 OFFCURVE",
"121 572 OFFCURVE",
"121 536 CURVE SMOOTH",
"121 153 LINE SMOOTH",
"121 72 OFFCURVE",
"95 68 OFFCURVE",
"50 66 CURVE",
"50 0 LINE",
"337 0 LINE",
"337 77 LINE",
"323 77 OFFCURVE",
"283 76 OFFCURVE",
"262 74 CURVE",
"264 91 OFFCURVE",
"266 128 OFFCURVE",
"266 164 CURVE SMOOTH",
"266 328 LINE",
"541 332 LINE",
"541 153 LINE SMOOTH",
"541 72 OFFCURVE",
"515 68 OFFCURVE",
"470 66 CURVE",
"470 0 LINE",
"786 0 LINE SMOOTH",
"926 0 OFFCURVE",
"1029 69 OFFCURVE",
"1029 199 CURVE SMOOTH",
"1029 305 OFFCURVE",
"960 418 OFFCURVE",
"721 409 CURVE SMOOTH"
);
},
{
closed = 1;
nodes = (
"686 336 LINE",
"742 337 LINE SMOOTH",
"817 339 OFFCURVE",
"871 306 OFFCURVE",
"871 207 CURVE SMOOTH",
"871 128 OFFCURVE",
"836 76 OFFCURVE",
"755 72 CURVE SMOOTH",
"731 71 OFFCURVE",
"706 71 OFFCURVE",
"682 71 CURVE",
"684 88 OFFCURVE",
"686 123 OFFCURVE",
"686 159 CURVE SMOOTH"
);
}
);
width = 1070;
}
);
leftMetricsKey = "En-cy";
rightMetricsKey = "Softsign-cy";
unicode = 040A;
},
{
color = 4;
glyphname = "E-cy";
layers = (
{
layerId = "7BBBACCF-9772-44A1-910F-14DC7866E88D";
paths = (
{
closed = 1;
nodes = (
"144 328 LINE",
"321 329 LINE SMOOTH",
"375 329 OFFCURVE",
"419 325 OFFCURVE",
"419 241 CURVE",
"485 241 LINE",
"485 484 LINE",
"408 484 LINE",
"410 459 OFFCURVE",
"411 425 OFFCURVE",
"413 397 CURVE",
"144 397 LINE"
);
},
{
closed = 1;
nodes = (
"152 716 OFFCURVE",
"35 522 OFFCURVE",
"35 340 CURVE SMOOTH",
"35 141 OFFCURVE",
"172 -16 OFFCURVE",
"378 -16 CURVE SMOOTH",
"460 -16 OFFCURVE",
"581 9 OFFCURVE",
"679 144 CURVE",
"631 188 LINE",
"575 111 OFFCURVE",
"486 65 OFFCURVE",
"402 65 CURVE SMOOTH",
"268 65 OFFCURVE",
"192 188 OFFCURVE",
"192 360 CURVE SMOOTH",
"192 504 OFFCURVE",
"258 644 OFFCURVE",
"398 644 CURVE SMOOTH",
"491 643 OFFCURVE",
"548 587 OFFCURVE",
"566 476 CURVE",
"631 476 LINE",
"631 709 LINE",
"554 709 LINE",
"558 667 LINE",
"557 667 LINE",
"503 699 OFFCURVE",
"437 716 OFFCURVE",
"385 716 CURVE SMOOTH"
);
}
);
width = 706;
}
);
leftMetricsKey = O;
unicode = 0404;
},
{
color = 4;
glyphname = "Ereversed-cy";
layers = (
{
layerId = "7BBBACCF-9772-44A1-910F-14DC7866E88D";
paths = (
{
closed = 1;
nodes = (
"263 397 LINE",
"267 459 LINE",
"195 459 LINE",
"195 241 LINE",
"256 241 LINE",
"256 325 OFFCURVE",
"300 329 OFFCURVE",
"354 329 CURVE SMOOTH",
"532 328 LINE",
"532 397 LINE"
);
},
{
closed = 1;
nodes = (
"269 716 OFFCURVE",
"202 699 OFFCURVE",
"149 667 CURVE",
"148 667 LINE",
"151 709 LINE",
"74 709 LINE",
"74 490 LINE",
"140 490 LINE",
"158 592 OFFCURVE",
"214 643 OFFCURVE",
"308 644 CURVE SMOOTH",
"447 644 OFFCURVE",
"513 504 OFFCURVE",
"513 360 CURVE SMOOTH",
"513 188 OFFCURVE",
"438 65 OFFCURVE",
"303 65 CURVE SMOOTH",
"220 65 OFFCURVE",
"130 111 OFFCURVE",
"75 188 CURVE",
"27 144 LINE",
"125 9 OFFCURVE",
"245 -16 OFFCURVE",
"328 -16 CURVE SMOOTH",
"534 -16 OFFCURVE",
"670 141 OFFCURVE",
"670 340 CURVE SMOOTH",
"670 522 OFFCURVE",
"554 716 OFFCURVE",
"321 716 CURVE SMOOTH"
);
}
);
width = 705;
}
);
rightMetricsKey = O;
unicode = 042D;
userData = {
public.markColor = "0.67,0.95,0.38,1";
};
},
{
color = 4;
glyphname = "Tshe-cy";
layers = (
{
layerId = "7BBBACCF-9772-44A1-910F-14DC7866E88D";
paths = (
{
closed = 1;
nodes = (
"646 210 LINE",
"646 153 LINE SMOOTH",
"646 72 OFFCURVE",
"620 68 OFFCURVE",
"575 66 CURVE",
"575 0 LINE",
"862 0 LINE",
"862 77 LINE",
"848 77 OFFCURVE",
"809 76 OFFCURVE",
"787 74 CURVE",
"790 91 OFFCURVE",
"791 128 OFFCURVE",
"791 164 CURVE SMOOTH",
"791 208 LINE"
);
},
{
closed = 1;
nodes = (
"515 422 OFFCURVE",
"444 396 OFFCURVE",
"396 366 CURVE",
"396 293 LINE",
"421 313 OFFCURVE",
"477 330 OFFCURVE",
"529 330 CURVE SMOOTH",
"608 330 OFFCURVE",
"646 292 OFFCURVE",
"646 210 CURVE",
"791 208 LINE",
"791 357 OFFCURVE",
"718 422 OFFCURVE",
"593 422 CURVE SMOOTH"
);
},
{
closed = 1;
nodes = (
"21 700 LINE",
"16 474 LINE",
"82 474 LINE",
"82 582 OFFCURVE",
"129 631 OFFCURVE",
"205 632 CURVE SMOOTH",
"251 632 LINE",
"251 153 LINE SMOOTH",
"251 72 OFFCURVE",
"225 68 OFFCURVE",
"180 66 CURVE",
"180 0 LINE",
"472 0 LINE",
"472 77 LINE",
"458 77 OFFCURVE",
"414 76 OFFCURVE",
"392 74 CURVE",
"395 91 OFFCURVE",
"396 128 OFFCURVE",
"396 164 CURVE SMOOTH",
"396 633 LINE",
"444 633 LINE SMOOTH",
"520 634 OFFCURVE",
"567 590 OFFCURVE",
"567 500 CURVE",
"633 500 LINE",
"627 700 LINE"
);
}
);
width = 894;
}
);
unicode = 040B;
},
{
color = 4;
glyphname = "Iu-cy";
layers = (
{
layerId = "7BBBACCF-9772-44A1-910F-14DC7866E88D";
paths = (
{
closed = 1;
nodes = (
"536 391 LINE",
"266 391 LINE",
"266 547 LINE SMOOTH",
"266 628 OFFCURVE",
"292 632 OFFCURVE",
"337 634 CURVE",
"337 700 LINE",
"50 700 LINE",
"50 623 LINE",
"64 624 OFFCURVE",
"104 625 OFFCURVE",
"125 626 CURVE",
"123 609 OFFCURVE",
"121 572 OFFCURVE",
"121 536 CURVE SMOOTH",
"121 153 LINE SMOOTH",
"121 72 OFFCURVE",
"95 68 OFFCURVE",
"50 66 CURVE",
"50 0 LINE",
"337 0 LINE",
"337 77 LINE",
"323 77 OFFCURVE",
"283 76 OFFCURVE",
"262 74 CURVE",
"264 91 OFFCURVE",
"266 128 OFFCURVE",
"266 164 CURVE SMOOTH",
"266 312 LINE",
"536 315 LINE"
);
},
{
closed = 1;
nodes = (
"510 716 OFFCURVE",
"400 518 OFFCURVE",
"400 350 CURVE SMOOTH",
"400 176 OFFCURVE",
"491 -16 OFFCURVE",
"734 -16 CURVE SMOOTH",
"970 -16 OFFCURVE",
"1084 185 OFFCURVE",
"1084 350 CURVE SMOOTH",
"1084 517 OFFCURVE",
"980 716 OFFCURVE",
"737 716 CURVE SMOOTH"
);
},
{
closed = 1;
nodes = (
"863 646 OFFCURVE",
"927 516 OFFCURVE",
"927 333 CURVE SMOOTH",
"927 210 OFFCURVE",
"882 58 OFFCURVE",
"744 57 CURVE SMOOTH",
"604 56 OFFCURVE",
"558 237 OFFCURVE",
"558 362 CURVE SMOOTH",
"558 485 OFFCURVE",
"598 640 OFFCURVE",
"724 643 CURVE SMOOTH"
);
}
);
width = 1119;
}
);
leftMetricsKey = H;
rightMetricsKey = O;
unicode = 042E;
userData = {
public.markColor = "0.67,0.95,0.38,1";
};
},
{
color = 4;
glyphname = "Ia-cy";
layers = (
{
layerId = "7BBBACCF-9772-44A1-910F-14DC7866E88D";
paths = (
{
closed = 1;
nodes = (
"227 703 OFFCURVE",
"110 625 OFFCURVE",
"115 494 CURVE SMOOTH",
"118 377 OFFCURVE",
"209 310 OFFCURVE",
"398 283 CURVE",
"471 272 LINE",
"471 165 LINE SMOOTH",
"471 128 OFFCURVE",
"472 91 OFFCURVE",
"475 74 CURVE",
"453 76 OFFCURVE",
"404 77 OFFCURVE",
"390 77 CURVE",
"390 0 LINE",
"687 0 LINE",
"687 66 LINE",
"642 68 OFFCURVE",
"615 72 OFFCURVE",
"615 153 CURVE SMOOTH",
"615 536 LINE SMOOTH",
"615 572 OFFCURVE",
"614 609 OFFCURVE",
"611 626 CURVE",
"633 625 OFFCURVE",
"672 624 OFFCURVE",
"687 623 CURVE",
"687 700 LINE",
"402 702 LINE SMOOTH"
);
},
{
closed = 1;
nodes = (
"471 632 LINE",
"471 347 LINE",
"457 346 OFFCURVE",
"442 344 OFFCURVE",
"426 344 CURVE SMOOTH",
"319 344 OFFCURVE",
"269 400 OFFCURVE",
"269 497 CURVE SMOOTH",
"269 603 OFFCURVE",
"324 631 OFFCURVE",
"403 632 CURVE SMOOTH"
);
},
{
closed = 1;
nodes = (
"355 320 LINE",
"283 307 OFFCURVE",
"242 301 OFFCURVE",
"201 232 CURVE SMOOTH",
"163 174 LINE SMOOTH",
"125 115 OFFCURVE",
"77 68 OFFCURVE",
"32 66 CURVE",
"32 0 LINE",
"179 0 LINE",
"195 1 OFFCURVE",
"251 62 OFFCURVE",
"276 102 CURVE SMOOTH",
"340 202 LINE SMOOTH",
"381 267 OFFCURVE",
"412 271 OFFCURVE",
"471 272 CURVE",
"445 320 LINE"
);
}
);
width = 736;
}
);
rightMetricsKey = "En-cy";
unicode = 042F;
userData = {
public.markColor = "0.67,0.95,0.38,1";
};
},
{
color = 4;
glyphname = "Dje-cy";
layers = (
{
layerId = "7BBBACCF-9772-44A1-910F-14DC7866E88D";
paths = (
{
closed = 1;
nodes = (
"21 700 LINE",
"16 474 LINE",
"82 474 LINE",
"82 582 OFFCURVE",
"129 631 OFFCURVE",
"205 632 CURVE SMOOTH",
"251 632 LINE",
"251 153 LINE SMOOTH",
"251 72 OFFCURVE",
"225 68 OFFCURVE",
"180 66 CURVE",
"180 0 LINE",
"392 0 LINE",
"392 74 LINE",
"395 91 OFFCURVE",
"396 128 OFFCURVE",
"396 164 CURVE SMOOTH",
"396 633 LINE",
"444 633 LINE SMOOTH",
"520 634 OFFCURVE",
"567 590 OFFCURVE",
"567 500 CURVE",
"633 500 LINE",
"627 700 LINE"
);
},
{
closed = 1;
nodes = (
"396 293 LINE",
"421 313 OFFCURVE",
"477 330 OFFCURVE",
"517 330 CURVE SMOOTH",
"591 330 OFFCURVE",
"628 277 OFFCURVE",
"628 176 CURVE SMOOTH",
"628 92 OFFCURVE",
"618 48 OFFCURVE",
"599 48 CURVE SMOOTH",
"591 48 OFFCURVE",
"585 52 OFFCURVE",
"583 57 CURVE",
"592 101 OFFCURVE",
"565 134 OFFCURVE",
"524 133 CURVE SMOOTH",
"483 132 OFFCURVE",
"461 100 OFFCURVE",
"461 66 CURVE SMOOTH",
"461 23 OFFCURVE",
"495 -17 OFFCURVE",
"566 -17 CURVE SMOOTH",
"693 -17 OFFCURVE",
"752 114 OFFCURVE",
"752 219 CURVE SMOOTH",
"752 324 OFFCURVE",
"692 422 OFFCURVE",
"573 422 CURVE SMOOTH",
"513 422 OFFCURVE",
"444 396 OFFCURVE",
"396 366 CURVE"
);
}
);
width = 823;
}
);
unicode = 0402;
},
{
color = 4;
glyphname = "Ustraitstroke-cy";
layers = (
{
components = (
{
name = Y;
}
);
layerId = "7BBBACCF-9772-44A1-910F-14DC7866E88D";
paths = (
{
closed = 1;
nodes = (
"145 279 LINE",
"145 188 LINE",
"546 191 LINE",
"546 279 LINE"
);
}
);
width = 667;
}
);
unicode = 04B0;
},
{
color = 4;
glyphname = "be-cy";
layers = (
{
layerId = "7BBBACCF-9772-44A1-910F-14DC7866E88D";
paths = (
{
closed = 1;
nodes = (
"447 770 LINE",
"432 744 OFFCURVE",
"423 737 OFFCURVE",
"407 729 CURVE SMOOTH",
"358 706 OFFCURVE",
"255 713 OFFCURVE",
"169 658 CURVE SMOOTH",
"83 603 OFFCURVE",
"41 447 OFFCURVE",
"41 313 CURVE SMOOTH",
"41 94 OFFCURVE",
"146 -16 OFFCURVE",
"290 -16 CURVE SMOOTH",
"432 -16 OFFCURVE",
"535 91 OFFCURVE",
"535 259 CURVE SMOOTH",
"535 401 OFFCURVE",
"435 482 OFFCURVE",
"306 482 CURVE SMOOTH",
"227 481 OFFCURVE",
"145 444 OFFCURVE",
"107 357 CURVE",
"103 357 LINE",
"118 482 OFFCURVE",
"168 555 OFFCURVE",
"235 577 CURVE SMOOTH",
"315 603 OFFCURVE",
"361 591 OFFCURVE",
"413 606 CURVE SMOOTH",
"457 624 OFFCURVE",
"472 652 OFFCURVE",
"494 754 CURVE"
);
},
{
closed = 1;
nodes = (
"218 53 OFFCURVE",
"183 164 OFFCURVE",
"183 266 CURVE SMOOTH",
"183 336 OFFCURVE",
"213 410 OFFCURVE",
"281 412 CURVE SMOOTH",
"362 414 OFFCURVE",
"387 315 OFFCURVE",
"387 234 CURVE SMOOTH",
"387 149 OFFCURVE",
"369 56 OFFCURVE",
"290 55 CURVE SMOOTH"
);
}
);
width = 566;
}
);
unicode = 0431;
userData = {
public.markColor = "0.67,0.95,0.38,1";
};
},
{
color = 4;
glyphname = "ve-cy";
layers = (
{
layerId = "7BBBACCF-9772-44A1-910F-14DC7866E88D";
paths = (
{
closed = 1;
nodes = (
"290 244 LINE",
"456 250 OFFCURVE",
"514 301 OFFCURVE",
"514 382 CURVE SMOOTH",
"514 462 OFFCURVE",
"457 501 OFFCURVE",
"343 501 CURVE SMOOTH",
"43 500 LINE",
"42 435 LINE",
"53 435 OFFCURVE",
"88 436 OFFCURVE",
"104 437 CURVE",
"103 424 OFFCURVE",
"102 398 OFFCURVE",
"102 373 CURVE SMOOTH",
"102 126 LINE SMOOTH",
"102 69 OFFCURVE",
"78 66 OFFCURVE",
"42 65 CURVE",
"42 0 LINE",
"357 0 LINE SMOOTH",
"467 0 OFFCURVE",
"547 49 OFFCURVE",
"547 141 CURVE SMOOTH",
"547 214 OFFCURVE",
"493 266 OFFCURVE",
"363 273 CURVE",
"290 284 LINE",
"243 283 LINE",
"243 389 LINE SMOOTH",
"243 434 OFFCURVE",
"263 438 OFFCURVE",
"289 438 CURVE SMOOTH",
"353 439 OFFCURVE",
"384 425 OFFCURVE",
"384 371 CURVE SMOOTH",
"384 321 OFFCURVE",
"370 288 OFFCURVE",
"290 284 CURVE"
);
},
{
closed = 1;
nodes = (
"366 222 OFFCURVE",
"409 204 OFFCURVE",
"409 144 CURVE SMOOTH",
"409 101 OFFCURVE",
"385 71 OFFCURVE",
"331 69 CURVE SMOOTH",
"310 68 OFFCURVE",
"267 68 OFFCURVE",
"237 68 CURVE",
"239 84 OFFCURVE",
"243 104 OFFCURVE",
"243 128 CURVE SMOOTH",
"243 221 LINE",
"264 222 OFFCURVE",
"294 222 OFFCURVE",
"323 222 CURVE SMOOTH"
);
},
{
closed = 1;
nodes = (
"412 254 LINE",
"427 254 LINE",
"427 280 LINE",
"412 280 LINE"
);
}
);
width = 579;
}
);
leftMetricsKey = "en-cy";
unicode = 0432;
userData = {
public.markColor = "0.67,0.95,0.38,1";
};
},
{
color = 4;
glyphname = "ge-cy";
layers = (
{
layerId = "7BBBACCF-9772-44A1-910F-14DC7866E88D";
paths = (
{
closed = 1;
nodes = (
"311 422 LINE SMOOTH",
"370 422 OFFCURVE",
"399 402 OFFCURVE",
"399 318 CURVE",
"464 318 LINE",
"460 500 LINE",
"166 500 LINE",
"166 422 LINE"
);
},
{
closed = 1;
nodes = (
"244 422 LINE",
"304 422 LINE",
"304 500 LINE",
"42 500 LINE",
"42 424 LINE",
"56 424 OFFCURVE",
"85 425 OFFCURVE",
"106 427 CURVE",
"104 397 OFFCURVE",
"103 358 OFFCURVE",
"103 339 CURVE SMOOTH",
"103 154 LINE SMOOTH",
"103 101 OFFCURVE",
"99 65 OFFCURVE",
"43 65 CURVE",
"43 0 LINE",
"325 0 LINE",
"325 76 LINE",
"240 73 LINE",
"243 103 OFFCURVE",
"244 142 OFFCURVE",
"244 161 CURVE SMOOTH"
);
}
);
width = 496;
}
);
leftMetricsKey = "en-cy";
unicode = 0433;
userData = {
public.markColor = "0.67,0.95,0.38,1";
};
},
{
color = 4;
glyphname = "gheupturn-cy";
layers = (
{
layerId = "7BBBACCF-9772-44A1-910F-14DC7866E88D";
paths = (
{
closed = 1;
nodes = (
"242 346 LINE SMOOTH",
"242 399 OFFCURVE",
"246 435 OFFCURVE",
"301 435 CURVE",
"301 500 LINE",
"39 500 LINE",
"39 424 LINE",
"53 424 OFFCURVE",
"83 425 OFFCURVE",
"104 427 CURVE",
"101 397 OFFCURVE",
"100 358 OFFCURVE",
"100 339 CURVE SMOOTH",
"100 154 LINE SMOOTH",
"100 101 OFFCURVE",
"96 65 OFFCURVE",
"41 65 CURVE",
"41 0 LINE",
"303 0 LINE",
"303 76 LINE",
"238 73 LINE",
"241 103 OFFCURVE",
"242 142 OFFCURVE",
"242 161 CURVE SMOOTH"
);
},
{
closed = 1;
nodes = (
"285 435 LINE",
"458 435 LINE",
"462 607 LINE",
"397 607 LINE",
"397 535 OFFCURVE",
"368 500 OFFCURVE",
"308 500 CURVE SMOOTH",
"285 500 LINE"
);
}
);
width = 484;
}
);
unicode = 0491;
},
{
color = 4;
glyphname = "de-cy";
layers = (
{
layerId = "7BBBACCF-9772-44A1-910F-14DC7866E88D";
paths = (
{
closed = 1;
nodes = (
"542 346 LINE",
"542 399 OFFCURVE",
"546 435 OFFCURVE",
"602 435 CURVE",
"602 500 LINE",
"106 500 LINE",
"106 424 LINE",
"264 437 LINE",
"276 422 LINE",
"409 422 LINE",
"406 394 OFFCURVE",
"405 359 OFFCURVE",
"405 340 CURVE SMOOTH",
"405 167 LINE SMOOTH",
"405 114 OFFCURVE",
"401 78 OFFCURVE",
"346 78 CURVE",
"346 0 LINE",
"603 0 LINE",
"603 76 LINE",
"538 73 LINE",
"541 103 OFFCURVE",
"542 142 OFFCURVE",
"542 161 CURVE"
);
},
{
closed = 1;
nodes = (
"340 474 LINE",
"202 457 LINE",
"201 375 OFFCURVE",
"177 200 OFFCURVE",
"144 132 CURVE SMOOTH",
"127 98 OFFCURVE",
"104 78 OFFCURVE",
"73 78 CURVE",
"134 21 LINE",
"196 63 OFFCURVE",
"244 166 OFFCURVE",
"260 283 CURVE SMOOTH",
"272 380 LINE SMOOTH",
"277 413 OFFCURVE",
"293 422 OFFCURVE",
"325 422 CURVE SMOOTH"
);
},
{
closed = 1;
nodes = (
"612 77 LINE",
"503 72 LINE",
"503 0 LINE",
"556 0 OFFCURVE",
"578 -78 OFFCURVE",
"576 -183 CURVE",
"642 -183 LINE",
"642 78 LINE"
);
},
{
closed = 1;
nodes = (
"22 78 LINE",
"22 -183 LINE",
"87 -183 LINE",
"86 -78 OFFCURVE",
"108 0 OFFCURVE",
"160 0 CURVE SMOOTH",
"372 0 LINE",
"372 78 LINE"
);
}
);
width = 668;
}
);
unicode = 0434;
userData = {
public.markColor = "0.67,0.95,0.38,1";
};
},
{
color = 4;
glyphname = "zhe-cy";
layers = (
{
layerId = "7BBBACCF-9772-44A1-910F-14DC7866E88D";
paths = (
{
closed = 1;
nodes = (
"94 115 OFFCURVE",
"59 65 OFFCURVE",
"18 65 CURVE",
"18 0 LINE",
"130 0 LINE SMOOTH",
"173 0 OFFCURVE",
"200 31 OFFCURVE",
"242 87 CURVE SMOOTH",
"277 135 OFFCURVE",
"322 201 OFFCURVE",
"342 229 CURVE",
"377 228 LINE",
"377 299 LINE",
"320 299 LINE",
"249 382 LINE SMOOTH",
"232 401 OFFCURVE",
"222 413 OFFCURVE",
"210 424 CURVE",
"210 425 LINE",
"263 424 LINE",
"263 500 LINE",
"36 500 LINE",
"36 436 LINE",
"107 428 OFFCURVE",
"149 389 OFFCURVE",
"178 357 CURVE SMOOTH",
"242 286 LINE",
"242 285 LINE",
"222 275 OFFCURVE",
"205 260 OFFCURVE",
"177 223 CURVE SMOOTH",
"110 135 LINE SMOOTH"
);
},
{
closed = 1;
nodes = (
"495 228 LINE",
"538 229 LINE",
"558 201 OFFCURVE",
"602 135 OFFCURVE",
"638 87 CURVE SMOOTH",
"679 31 OFFCURVE",
"707 0 OFFCURVE",
"749 0 CURVE SMOOTH",
"861 0 LINE",
"861 65 LINE",
"820 65 OFFCURVE",
"785 115 OFFCURVE",
"770 135 CURVE SMOOTH",
"703 223 LINE SMOOTH",
"674 260 OFFCURVE",
"658 275 OFFCURVE",
"637 285 CURVE",
"637 286 LINE",
"701 357 LINE SMOOTH",
"730 389 OFFCURVE",
"772 428 OFFCURVE",
"844 436 CURVE",
"844 500 LINE",
"618 500 LINE",
"618 424 LINE",
"671 425 LINE",
"671 424 LINE",
"659 413 OFFCURVE",
"649 401 OFFCURVE",
"632 382 CURVE SMOOTH",
"561 299 LINE",
"495 299 LINE"
);
},
{
closed = 1;
nodes = (
"502 346 LINE SMOOTH",
"502 399 OFFCURVE",
"505 435 OFFCURVE",
"552 435 CURVE",
"552 500 LINE",
"326 500 LINE",
"326 424 LINE",
"376 427 LINE",
"373 397 OFFCURVE",
"372 358 OFFCURVE",
"372 339 CURVE SMOOTH",
"372 154 LINE SMOOTH",
"372 101 OFFCURVE",
"369 65 OFFCURVE",
"322 65 CURVE",
"322 0 LINE",
"552 0 LINE",
"552 76 LINE",
"499 73 LINE",
"501 103 OFFCURVE",
"502 142 OFFCURVE",
"502 161 CURVE SMOOTH"
);
}
);
width = 879;
}
);
leftMetricsKey = "=|ka-cy";
rightMetricsKey = "ka-cy";
unicode = 0436;
userData = {
public.markColor = "0.67,0.95,0.38,1";
};
},
{
color = 4;
glyphname = "ze-cy";
layers = (
{
layerId = "7BBBACCF-9772-44A1-910F-14DC7866E88D";
paths = (
{
closed = 1;
nodes = (
"380 280 LINE",
"380 254 LINE",
"365 254 LINE",
"365 280 LINE"
);
},
{
closed = 1;
nodes = (
"194 505 OFFCURVE",
"233 516 OFFCURVE",
"285 517 CURVE SMOOTH",
"398 519 OFFCURVE",
"464 473 OFFCURVE",
"464 389 CURVE SMOOTH",
"464 309 OFFCURVE",
"404 254 OFFCURVE",
"252 249 CURVE",
"252 289 LINE",
"317 289 OFFCURVE",
"336 328 OFFCURVE",
"336 372 CURVE SMOOTH",
"336 431 OFFCURVE",
"302 453 OFFCURVE",
"263 453 CURVE SMOOTH",
"224 453 OFFCURVE",
"169 430 OFFCURVE",
"144 334 CURVE",
"80 334 LINE",
"80 511 LINE",
"156 511 LINE",
"154 482 LINE",
"155 482 LINE"
);
},
{
closed = 1;
nodes = (
"441 270 OFFCURVE",
"494 217 OFFCURVE",
"494 146 CURVE SMOOTH",
"494 45 OFFCURVE",
"383 -18 OFFCURVE",
"249 -17 CURVE SMOOTH",
"110 -15 OFFCURVE",
"42 51 OFFCURVE",
"42 120 CURVE SMOOTH",
"42 161 OFFCURVE",
"66 195 OFFCURVE",
"111 196 CURVE SMOOTH",
"160 198 OFFCURVE",
"177 159 OFFCURVE",
"177 131 CURVE SMOOTH",
"177 120 OFFCURVE",
"173 101 OFFCURVE",
"165 88 CURVE",
"179 63 OFFCURVE",
"214 48 OFFCURVE",
"254 48 CURVE SMOOTH",
"316 48 OFFCURVE",
"355 83 OFFCURVE",
"355 145 CURVE SMOOTH",
"355 207 OFFCURVE",
"316 227 OFFCURVE",
"274 227 CURVE",
"194 227 LINE",
"194 289 LINE",
"268 289 LINE",
"314 278 LINE"
);
}
);
width = 526;
}
);
rightMetricsKey = "ve-cy";
unicode = 0437;
userData = {
public.markColor = "0.67,0.95,0.38,1";
};
},
{
color = 4;
glyphname = "ii-cy";
layers = (
{
layerId = "7BBBACCF-9772-44A1-910F-14DC7866E88D";
paths = (
{
closed = 1;
nodes = (
"161 141 LINE",
"210 90 LINE",
"497 366 LINE",
"449 416 LINE"
);
},
{
closed = 1;
nodes = (
"242 346 LINE SMOOTH",
"242 399 OFFCURVE",
"246 435 OFFCURVE",
"301 435 CURVE",
"301 500 LINE",
"39 500 LINE",
"39 424 LINE",
"53 424 OFFCURVE",
"83 425 OFFCURVE",
"104 427 CURVE",
"101 397 OFFCURVE",
"100 358 OFFCURVE",
"100 339 CURVE SMOOTH",
"100 154 LINE SMOOTH",
"100 101 OFFCURVE",
"96 65 OFFCURVE",
"41 65 CURVE",
"41 0 LINE",
"303 0 LINE",
"303 76 LINE",
"289 76 OFFCURVE",
"259 75 OFFCURVE",
"238 73 CURVE",
"241 103 OFFCURVE",
"242 142 OFFCURVE",
"242 161 CURVE SMOOTH"
);
},
{
closed = 1;
nodes = (
"566 346 LINE SMOOTH",
"566 399 OFFCURVE",
"570 435 OFFCURVE",
"625 435 CURVE",
"625 500 LINE",
"363 500 LINE",
"363 424 LINE",
"377 424 OFFCURVE",
"407 425 OFFCURVE",
"428 427 CURVE",
"425 397 OFFCURVE",
"424 358 OFFCURVE",
"424 339 CURVE SMOOTH",
"424 154 LINE SMOOTH",
"424 101 OFFCURVE",
"420 65 OFFCURVE",
"365 65 CURVE",
"365 0 LINE",
"627 0 LINE",
"627 76 LINE",
"613 76 OFFCURVE",
"583 75 OFFCURVE",
"562 73 CURVE",
"565 103 OFFCURVE",
"566 142 OFFCURVE",
"566 161 CURVE SMOOTH"
);
}
);
width = 658;
}
);
unicode = 0438;
userData = {
public.markColor = "0.67,0.95,0.38,1";
};
},
{
color = 4;
glyphname = "iishort-cy";
layers = (
{
components = (
{
name = "ii-cy";
}
);
layerId = "7BBBACCF-9772-44A1-910F-14DC7866E88D";
paths = (
{
closed = 1;
nodes = (
"391 748 OFFCURVE",
"380 705 OFFCURVE",
"380 689 CURVE SMOOTH",
"381 677 OFFCURVE",
"384 664 OFFCURVE",
"392 650 CURVE",
"375 634 OFFCURVE",
"359 629 OFFCURVE",
"336 629 CURVE SMOOTH",
"313 629 OFFCURVE",
"298 634 OFFCURVE",
"280 650 CURVE",
"288 664 OFFCURVE",
"291 677 OFFCURVE",
"292 689 CURVE SMOOTH",
"292 705 OFFCURVE",
"281 748 OFFCURVE",
"233 748 CURVE SMOOTH",
"196 749 OFFCURVE",
"177 723 OFFCURVE",
"177 687 CURVE SMOOTH",
"177 619 OFFCURVE",
"243 580 OFFCURVE",
"336 580 CURVE SMOOTH",
"429 580 OFFCURVE",
"495 619 OFFCURVE",
"495 687 CURVE SMOOTH",
"495 723 OFFCURVE",
"476 749 OFFCURVE",
"438 748 CURVE SMOOTH"
);
}
);
width = 658;
}
);
unicode = 0439;
userData = {
public.markColor = "0.67,0.95,0.38,1";
};
},
{
color = 4;
glyphname = "ka-cy";
layers = (
{
layerId = "7BBBACCF-9772-44A1-910F-14DC7866E88D";
paths = (
{
closed = 1;
nodes = (
"219 228 LINE",
"250 229 LINE",
"270 201 OFFCURVE",
"314 135 OFFCURVE",
"350 87 CURVE SMOOTH",
"391 31 OFFCURVE",
"418 0 OFFCURVE",
"461 0 CURVE SMOOTH",
"576 0 LINE",
"576 65 LINE",
"535 65 OFFCURVE",
"500 115 OFFCURVE",
"484 135 CURVE SMOOTH",
"417 223 LINE SMOOTH",
"389 260 OFFCURVE",
"372 275 OFFCURVE",
"352 285 CURVE",
"352 286 LINE",
"416 357 LINE SMOOTH",
"444 389 OFFCURVE",
"487 428 OFFCURVE",
"558 436 CURVE",
"558 500 LINE",
"333 500 LINE",
"333 424 LINE",
"386 425 LINE",
"386 424 LINE",
"374 413 OFFCURVE",
"364 401 OFFCURVE",
"347 382 CURVE SMOOTH",
"275 299 LINE",
"219 299 LINE"
);
},
{
closed = 1;
nodes = (
"227 346 LINE SMOOTH",
"227 399 OFFCURVE",
"230 435 OFFCURVE",
"286 435 CURVE",
"286 500 LINE",
"24 500 LINE",
"24 424 LINE",
"38 424 OFFCURVE",
"67 425 OFFCURVE",
"89 427 CURVE",
"86 397 OFFCURVE",
"85 358 OFFCURVE",
"85 339 CURVE SMOOTH",
"85 154 LINE SMOOTH",
"85 101 OFFCURVE",
"81 65 OFFCURVE",
"25 65 CURVE",
"25 0 LINE",
"288 0 LINE",
"288 76 LINE",
"273 76 OFFCURVE",
"244 75 OFFCURVE",
"223 73 CURVE",
"226 103 OFFCURVE",
"227 142 OFFCURVE",
"227 161 CURVE SMOOTH"
);
}
);
width = 594;
}
);
unicode = 043A;
userData = {
public.markColor = "0.67,0.95,0.38,1";
};
},
{
color = 4;
glyphname = "el-cy";
layers = (
{
layerId = "7BBBACCF-9772-44A1-910F-14DC7866E88D";
paths = (
{
closed = 1;
nodes = (
"569 346 LINE",
"569 399 OFFCURVE",
"573 435 OFFCURVE",
"629 435 CURVE",
"629 500 LINE",
"138 500 LINE",
"138 424 LINE",
"295 437 LINE",
"307 421 LINE",
"437 421 LINE",
"434 393 OFFCURVE",
"433 358 OFFCURVE",
"433 339 CURVE SMOOTH",
"433 154 LINE SMOOTH",
"433 101 OFFCURVE",
"429 65 OFFCURVE",
"373 65 CURVE",
"373 0 LINE",
"630 0 LINE",
"630 76 LINE",
"565 73 LINE",
"568 103 OFFCURVE",
"569 142 OFFCURVE",
"569 161 CURVE"
);
},
{
closed = 1;
nodes = (
"366 473 LINE",
"234 445 LINE",
"230 373 LINE SMOOTH",
"215 127 OFFCURVE",
"165 56 OFFCURVE",
"133 56 CURVE SMOOTH",
"129 56 OFFCURVE",
"125 57 OFFCURVE",
"123 59 CURVE",
"128 65 OFFCURVE",
"133 73 OFFCURVE",
"133 90 CURVE SMOOTH",
"133 116 OFFCURVE",
"117 144 OFFCURVE",
"74 144 CURVE SMOOTH",
"33 144 OFFCURVE",
"5 120 OFFCURVE",
"5 76 CURVE SMOOTH",
"5 22 OFFCURVE",
"49 -14 OFFCURVE",
"111 -14 CURVE SMOOTH",
"228 -14 OFFCURVE",
"294 113 OFFCURVE",
"310 380 CURVE SMOOTH",
"312 413 OFFCURVE",
"324 421 OFFCURVE",
"356 421 CURVE SMOOTH",
"400 421 LINE"
);
}
);
width = 672;
}
);
rightMetricsKey = "en-cy";
unicode = 043B;
userData = {
public.markColor = "0.67,0.95,0.38,1";
};
},
{
color = 4;
glyphname = "em-cy";
layers = (
{
layerId = "7BBBACCF-9772-44A1-910F-14DC7866E88D";
paths = (
{
closed = 1;
nodes = (
"419 0 LINE",
"561 375 LINE",
"549 375 LINE",
"596 119 LINE SMOOTH",
"604 76 OFFCURVE",
"582 65 OFFCURVE",
"540 65 CURVE",
"540 0 LINE",
"778 0 LINE",
"778 76 LINE",
"723 73 LINE",
"725 92 OFFCURVE",
"724 113 OFFCURVE",
"720 132 CURVE SMOOTH",
"675 390 LINE SMOOTH",
"668 426 OFFCURVE",
"689 442 OFFCURVE",
"731 444 CURVE",
"731 500 LINE",
"533 500 LINE",
"427 207 LINE SMOOTH",
"416 176 OFFCURVE",
"406 147 OFFCURVE",
"394 118 CURVE",
"412 118 LINE",
"404 143 OFFCURVE",
"381 193 OFFCURVE",
"368 226 CURVE SMOOTH",
"253 500 LINE",
"58 500 LINE",
"58 424 LINE",
"137 427 LINE",
"133 415 OFFCURVE",
"132 400 OFFCURVE",
"130 381 CURVE SMOOTH",
"96 120 LINE SMOOTH",
"90 78 OFFCURVE",
"71 67 OFFCURVE",
"28 65 CURVE",
"28 0 LINE",
"225 0 LINE",
"225 76 LINE",
"159 74 LINE",
"163 88 OFFCURVE",
"166 101 OFFCURVE",
"168 117 CURVE SMOOTH",
"188 245 LINE SMOOTH",
"197 298 OFFCURVE",
"198 330 OFFCURVE",
"197 380 CURVE",
"179 406 LINE",
"198 345 OFFCURVE",
"210 312 OFFCURVE",
"230 262 CURVE SMOOTH",
"340 0 LINE"
);
}
);
width = 800;
}
);
unicode = 043C;
userData = {
public.markColor = "0.67,0.95,0.38,1";
};
},
{
color = 4;
glyphname = "en-cy";
layers = (
{
layerId = "7BBBACCF-9772-44A1-910F-14DC7866E88D";
paths = (
{
closed = 1;
nodes = (
"181 294 LINE",
"181 215 LINE",
"455 217 LINE",
"455 294 LINE"
);
},
{
closed = 1;
nodes = (
"239 346 LINE SMOOTH",
"239 399 OFFCURVE",
"243 435 OFFCURVE",
"299 435 CURVE",
"299 500 LINE",
"42 500 LINE",
"42 424 LINE",
"106 427 LINE",
"104 397 OFFCURVE",
"103 358 OFFCURVE",
"103 339 CURVE SMOOTH",
"103 154 LINE SMOOTH",
"103 101 OFFCURVE",
"99 65 OFFCURVE",
"43 65 CURVE",
"43 0 LINE",
"300 0 LINE",
"300 76 LINE",
"235 73 LINE",
"238 103 OFFCURVE",
"239 142 OFFCURVE",
"239 161 CURVE SMOOTH"
);
},
{
closed = 1;
nodes = (
"563 346 LINE SMOOTH",
"563 399 OFFCURVE",
"567 435 OFFCURVE",
"623 435 CURVE",
"623 500 LINE",
"366 500 LINE",
"366 424 LINE",
"431 427 LINE",
"428 397 OFFCURVE",
"427 358 OFFCURVE",
"427 339 CURVE SMOOTH",
"427 154 LINE SMOOTH",
"427 101 OFFCURVE",
"423 65 OFFCURVE",
"367 65 CURVE",
"367 0 LINE",
"625 0 LINE",
"625 76 LINE",
"560 73 LINE",
"563 103 OFFCURVE",
"563 142 OFFCURVE",
"563 161 CURVE SMOOTH"
);
}
);
width = 666;
}
);
unicode = 043D;
userData = {
public.markColor = "0.67,0.95,0.38,1";
};
},
{
color = 4;
glyphname = "pe-cy";
layers = (
{
layerId = "7BBBACCF-9772-44A1-910F-14DC7866E88D";
paths = (
{
closed = 1;
nodes = (
"559 346 LINE",
"559 399 OFFCURVE",
"563 435 OFFCURVE",
"618 435 CURVE",
"618 500 LINE",
"42 500 LINE",
"42 424 LINE",
"106 427 LINE",
"104 397 OFFCURVE",
"103 358 OFFCURVE",
"103 339 CURVE SMOOTH",
"103 154 LINE SMOOTH",
"103 101 OFFCURVE",
"99 65 OFFCURVE",
"43 65 CURVE",
"43 0 LINE",
"300 0 LINE",
"300 76 LINE",
"235 73 LINE",
"238 103 OFFCURVE",
"239 142 OFFCURVE",
"239 161 CURVE SMOOTH",
"239 347 LINE SMOOTH",
"239 392 OFFCURVE",
"243 422 OFFCURVE",
"299 422 CURVE SMOOTH",
"426 422 LINE",
"423 394 OFFCURVE",
"422 359 OFFCURVE",
"422 340 CURVE SMOOTH",
"422 154 LINE SMOOTH",
"422 101 OFFCURVE",
"418 65 OFFCURVE",
"362 65 CURVE",
"362 0 LINE",
"620 0 LINE",
"620 76 LINE",
"555 73 LINE",
"558 103 OFFCURVE",
"559 142 OFFCURVE",
"559 161 CURVE"
);
}
);
width = 661;
}
);
leftMetricsKey = "en-cy";
rightMetricsKey = "en-cy";
unicode = 043F;
userData = {
public.markColor = "0.67,0.95,0.38,1";
};
},
{
color = 4;
glyphname = "te-cy";
layers = (
{
layerId = "7BBBACCF-9772-44A1-910F-14DC7866E88D";
paths = (
{
closed = 1;
nodes = (
"566 500 LINE",
"21 500 LINE",
"17 318 LINE",
"82 318 LINE",
"82 397 OFFCURVE",
"111 422 OFFCURVE",
"171 422 CURVE SMOOTH",
"226 422 LINE",
"224 392 OFFCURVE",
"223 357 OFFCURVE",
"223 339 CURVE SMOOTH",
"223 154 LINE SMOOTH",
"223 101 OFFCURVE",
"219 65 OFFCURVE",
"163 65 CURVE",
"163 0 LINE",
"425 0 LINE",
"425 76 LINE",
"360 73 LINE",
"363 103 OFFCURVE",
"364 142 OFFCURVE",
"364 161 CURVE SMOOTH",
"364 422 LINE",
"416 422 LINE SMOOTH",
"476 422 OFFCURVE",
"505 397 OFFCURVE",
"505 318 CURVE",
"570 318 LINE"
);
}
);
width = 587;
}
);
unicode = 0442;
userData = {
public.markColor = "0.67,0.95,0.38,1";
};
},
{
color = 4;
glyphname = "ushort-cy";
layers = (
{
components = (
{
name = "u-cy";
}
);
layerId = "7BBBACCF-9772-44A1-910F-14DC7866E88D";
paths = (
{
closed = 1;
nodes = (
"356 748 OFFCURVE",
"346 705 OFFCURVE",
"346 689 CURVE SMOOTH",
"347 677 OFFCURVE",
"350 664 OFFCURVE",
"357 650 CURVE",
"340 634 OFFCURVE",
"325 629 OFFCURVE",
"302 629 CURVE SMOOTH",
"279 629 OFFCURVE",
"264 634 OFFCURVE",
"246 650 CURVE",
"253 664 OFFCURVE",
"257 677 OFFCURVE",
"257 689 CURVE SMOOTH",
"258 705 OFFCURVE",
"247 748 OFFCURVE",
"199 748 CURVE SMOOTH",
"162 749 OFFCURVE",
"143 723 OFFCURVE",
"143 687 CURVE SMOOTH",
"143 619 OFFCURVE",
"208 580 OFFCURVE",
"302 580 CURVE SMOOTH",
"395 580 OFFCURVE",
"461 619 OFFCURVE",
"461 687 CURVE SMOOTH",
"461 723 OFFCURVE",
"442 749 OFFCURVE",
"404 748 CURVE SMOOTH"
);
}
);
width = 551;
}
);
unicode = 045E;
},
{
color = 4;
glyphname = "ef-cy";
layers = (
{
layerId = "7BBBACCF-9772-44A1-910F-14DC7866E88D";
paths = (
{
closed = 1;
nodes = (
"416 755 LINE",
"402 742 OFFCURVE",
"354 725 OFFCURVE",
"262 725 CURVE",
"262 649 LINE",
"332 652 LINE",
"329 623 OFFCURVE",
"328 589 OFFCURVE",
"328 565 CURVE SMOOTH",
"328 -102 LINE SMOOTH",
"328 -154 OFFCURVE",
"324 -190 OFFCURVE",
"269 -190 CURVE",
"269 -255 LINE",
"531 -255 LINE",
"531 -179 LINE",
"466 -182 LINE",
"469 -152 OFFCURVE",
"470 -114 OFFCURVE",
"470 -95 CURVE SMOOTH",
"470 755 LINE"
);
},
{
closed = 1;
nodes = (
"399 62 LINE",
"434 11 OFFCURVE",
"476 -16 OFFCURVE",
"520 -16 CURVE SMOOTH",
"669 -16 OFFCURVE",
"767 90 OFFCURVE",
"767 257 CURVE SMOOTH",
"767 417 OFFCURVE",
"665 514 OFFCURVE",
"540 514 CURVE SMOOTH",
"480 514 OFFCURVE",
"443 500 OFFCURVE",
"411 473 CURVE",
"453 418 LINE",
"466 434 OFFCURVE",
"482 443 OFFCURVE",
"513 444 CURVE SMOOTH",
"590 445 OFFCURVE",
"620 331 OFFCURVE",
"620 232 CURVE SMOOTH",
"619 148 OFFCURVE",
"603 56 OFFCURVE",
"524 55 CURVE SMOOTH",
"491 54 OFFCURVE",
"464 78 OFFCURVE",
"444 117 CURVE"
);
},
{
closed = 1;
nodes = (
"399 436 LINE",
"364 487 OFFCURVE",
"322 514 OFFCURVE",
"278 514 CURVE SMOOTH",
"128 514 OFFCURVE",
"31 408 OFFCURVE",
"31 241 CURVE SMOOTH",
"31 81 OFFCURVE",
"133 -16 OFFCURVE",
"258 -16 CURVE SMOOTH",
"286 -16 OFFCURVE",
"308 -13 OFFCURVE",
"328 -7 CURVE SMOOTH",
"351 0 OFFCURVE",
"370 11 OFFCURVE",
"387 25 CURVE",
"345 80 LINE",
"332 64 OFFCURVE",
"316 55 OFFCURVE",
"285 54 CURVE SMOOTH",
"208 53 OFFCURVE",
"178 167 OFFCURVE",
"178 266 CURVE SMOOTH",
"179 350 OFFCURVE",
"195 442 OFFCURVE",
"274 443 CURVE SMOOTH",
"307 444 OFFCURVE",
"333 420 OFFCURVE",
"354 381 CURVE"
);
}
);
width = 798;
}
);
leftMetricsKey = o;
rightMetricsKey = o;
unicode = 0444;
userData = {
public.markColor = "0.67,0.95,0.38,1";
};
},
{
color = 4;
glyphname = "che-cy";
layers = (
{
layerId = "7BBBACCF-9772-44A1-910F-14DC7866E88D";
paths = (
{
closed = 1;
nodes = (
"515 346 LINE SMOOTH",
"515 399 OFFCURVE",
"519 435 OFFCURVE",
"574 435 CURVE",
"574 500 LINE",
"341 500 LINE",
"341 424 LINE",
"382 427 LINE",
"379 397 OFFCURVE",
"378 358 OFFCURVE",
"378 339 CURVE SMOOTH",
"378 154 LINE SMOOTH",
"378 101 OFFCURVE",
"374 65 OFFCURVE",
"318 65 CURVE",
"318 0 LINE",
"576 0 LINE",
"576 76 LINE",
"511 73 LINE",
"514 103 OFFCURVE",
"515 142 OFFCURVE",
"515 161 CURVE SMOOTH"
);
},
{
closed = 1;
nodes = (
"270 500 LINE",
"20 500 LINE",
"20 424 LINE",
"84 427 LINE",
"82 396 OFFCURVE",
"81 372 OFFCURVE",
"81 337 CURVE SMOOTH",
"81 245 OFFCURVE",
"149 168 OFFCURVE",
"260 168 CURVE SMOOTH",
"319 168 OFFCURVE",
"368 183 OFFCURVE",
"414 209 CURVE",
"414 283 LINE",
"386 271 OFFCURVE",
"352 261 OFFCURVE",
"308 261 CURVE SMOOTH",
"245 261 OFFCURVE",
"222 310 OFFCURVE",
"222 378 CURVE SMOOTH",
"222 425 OFFCURVE",
"238 433 OFFCURVE",
"270 435 CURVE"
);
}
);
width = 617;
}
);
unicode = 0447;
userData = {
public.markColor = "0.67,0.95,0.38,1";
};
},
{
color = 4;
glyphname = "tse-cy";
layers = (
{
components = (
{
name = "pe-cy";
transform = "{-1, 0, 0, -1, 661, 500}";
}
);
layerId = "7BBBACCF-9772-44A1-910F-14DC7866E88D";
paths = (
{
closed = 1;
nodes = (
"620 76 LINE",
"511 0 LINE",
"563 0 OFFCURVE",
"593 -49 OFFCURVE",
"592 -183 CURVE",
"657 -183 LINE",
"657 78 LINE"
);
}
);
width = 684;
}
);
unicode = 0446;
userData = {
public.markColor = "0.67,0.95,0.38,1";
};
},
{
color = 4;
glyphname = "sha-cy";
layers = (
{
layerId = "7BBBACCF-9772-44A1-910F-14DC7866E88D";
paths = (
{
closed = 1;
nodes = (
"798 73 LINE",
"801 103 OFFCURVE",
"802 142 OFFCURVE",
"802 161 CURVE SMOOTH",
"802 346 LINE SMOOTH",
"802 399 OFFCURVE",
"806 435 OFFCURVE",
"861 435 CURVE",
"861 500 LINE",
"619 500 LINE",
"619 424 LINE",
"669 427 LINE",
"666 397 OFFCURVE",
"665 358 OFFCURVE",
"665 339 CURVE SMOOTH",
"665 154 LINE SMOOTH",
"665 109 OFFCURVE",
"661 79 OFFCURVE",
"605 79 CURVE SMOOTH",
"517 79 LINE",
"520 108 OFFCURVE",
"521 142 OFFCURVE",
"521 161 CURVE SMOOTH",
"521 346 LINE SMOOTH",
"521 399 OFFCURVE",
"524 435 OFFCURVE",
"575 435 CURVE",
"575 500 LINE",
"337 500 LINE",
"337 424 LINE",
"388 427 LINE",
"385 397 OFFCURVE",
"384 358 OFFCURVE",
"384 339 CURVE SMOOTH",
"384 154 LINE SMOOTH",
"384 109 OFFCURVE",
"380 79 OFFCURVE",
"324 79 CURVE SMOOTH",
"235 79 LINE",
"238 107 OFFCURVE",
"239 142 OFFCURVE",
"239 161 CURVE SMOOTH",
"239 346 LINE SMOOTH",
"239 399 OFFCURVE",
"243 435 OFFCURVE",
"294 435 CURVE",
"294 500 LINE",
"42 500 LINE",
"42 424 LINE",
"106 427 LINE",
"104 397 OFFCURVE",
"103 358 OFFCURVE",
"103 339 CURVE SMOOTH",
"103 154 LINE SMOOTH",
"103 101 OFFCURVE",
"99 65 OFFCURVE",
"43 65 CURVE",
"43 0 LINE",
"863 0 LINE",
"863 76 LINE"
);
}
);
width = 904;
}
);
leftMetricsKey = "en-cy";
rightMetricsKey = "en-cy";
unicode = 0448;
userData = {
public.markColor = "0.67,0.95,0.38,1";
};
},
{
color = 4;
glyphname = "shcha-cy";
layers = (
{
components = (
{
name = "sha-cy";
}
);
layerId = "7BBBACCF-9772-44A1-910F-14DC7866E88D";
paths = (
{
closed = 1;
nodes = (
"863 76 LINE",
"754 0 LINE",
"806 0 OFFCURVE",
"836 -49 OFFCURVE",
"835 -183 CURVE",
"900 -183 LINE",
"900 78 LINE"
);
}
);
width = 927;
}
);
unicode = 0449;
userData = {
public.markColor = "0.67,0.95,0.38,1";
};
},
{
color = 4;
glyphname = "dzhe-cy";
layers = (
{
components = (
{
name = "pe-cy";
transform = "{-1, 0, 0, -1, 661, 500}";
}
);
layerId = "7BBBACCF-9772-44A1-910F-14DC7866E88D";
paths = (
{
closed = 1;
nodes = (
"327 76 LINE",
"218 0 LINE",
"270 0 OFFCURVE",
"300 -49 OFFCURVE",
"299 -183 CURVE",
"364 -183 LINE",
"364 78 LINE"
);
}
);
width = 661;
}
);
leftMetricsKey = "en-cy";
rightMetricsKey = "en-cy";
unicode = 045F;
},
{
color = 4;
glyphname = "softsign-cy";
layers = (
{
layerId = "7BBBACCF-9772-44A1-910F-14DC7866E88D";
paths = (
{
closed = 1;
nodes = (
"239 302 LINE",
"239 346 LINE SMOOTH",
"239 399 OFFCURVE",
"243 435 OFFCURVE",
"299 435 CURVE",
"299 500 LINE",
"42 500 LINE",
"42 424 LINE",
"56 424 OFFCURVE",
"85 425 OFFCURVE",
"106 427 CURVE",
"104 397 OFFCURVE",
"103 358 OFFCURVE",
"103 339 CURVE SMOOTH",
"103 126 LINE SMOOTH",
"103 69 OFFCURVE",
"79 66 OFFCURVE",
"43 65 CURVE",
"43 0 LINE",
"346 0 LINE SMOOTH",
"441 0 OFFCURVE",
"522 49 OFFCURVE",
"521 158 CURVE",
"521 242 OFFCURVE",
"475 310 OFFCURVE",
"286 304 CURVE SMOOTH"
);
},
{
closed = 1;
nodes = (
"239 241 LINE",
"256 242 OFFCURVE",
"279 242 OFFCURVE",
"302 242 CURVE SMOOTH",
"351 242 OFFCURVE",
"387 213 OFFCURVE",
"386 153 CURVE SMOOTH",
"385 101 OFFCURVE",
"357 71 OFFCURVE",
"310 69 CURVE SMOOTH",
"289 68 OFFCURVE",
"258 68 OFFCURVE",
"233 68 CURVE",
"235 84 OFFCURVE",
"239 104 OFFCURVE",
"239 128 CURVE SMOOTH"
);
}
);
width = 563;
}
);
leftMetricsKey = "en-cy";
unicode = 044C;
userData = {
public.markColor = "0.67,0.95,0.38,1";
};
},
{
color = 4;
glyphname = "hardsign-cy";
layers = (
{
layerId = "7BBBACCF-9772-44A1-910F-14DC7866E88D";
paths = (
{
closed = 1;
nodes = (
"351 302 LINE",
"350 346 LINE",
"350 399 OFFCURVE",
"354 435 OFFCURVE",
"409 435 CURVE",
"409 500 LINE",
"21 500 LINE",
"17 318 LINE",
"82 318 LINE",
"82 397 OFFCURVE",
"111 422 OFFCURVE",
"171 422 CURVE SMOOTH",
"216 422 LINE",
"214 393 OFFCURVE",
"213 357 OFFCURVE",
"213 339 CURVE SMOOTH",
"213 126 LINE SMOOTH",
"213 69 OFFCURVE",
"189 66 OFFCURVE",
"153 65 CURVE",
"153 0 LINE",
"446 0 LINE SMOOTH",
"542 0 OFFCURVE",
"623 49 OFFCURVE",
"622 158 CURVE",
"622 242 OFFCURVE",
"576 310 OFFCURVE",
"396 304 CURVE SMOOTH"
);
},
{
closed = 1;
nodes = (
"350 241 LINE",
"369 242 OFFCURVE",
"383 241 OFFCURVE",
"410 242 CURVE SMOOTH",
"452 242 OFFCURVE",
"488 213 OFFCURVE",
"486 153 CURVE SMOOTH",
"485 101 OFFCURVE",
"457 71 OFFCURVE",
"417 69 CURVE SMOOTH",
"394 67 OFFCURVE",
"372 68 OFFCURVE",
"344 68 CURVE",
"346 84 OFFCURVE",
"350 104 OFFCURVE",
"350 128 CURVE SMOOTH"
);
}
);
width = 664;
}
);
leftMetricsKey = "te-cy";
rightMetricsKey = "Softsign-cy";
unicode = 044A;
userData = {
public.markColor = "0.67,0.95,0.38,1";
};
},
{
color = 4;
glyphname = "yeru-cy";
layers = (
{
layerId = "7BBBACCF-9772-44A1-910F-14DC7866E88D";
paths = (
{
closed = 1;
nodes = (
"745 346 LINE SMOOTH",
"745 399 OFFCURVE",
"749 435 OFFCURVE",
"804 435 CURVE",
"804 500 LINE",
"547 500 LINE",
"547 424 LINE",
"561 424 OFFCURVE",
"590 425 OFFCURVE",
"612 427 CURVE",
"609 397 OFFCURVE",
"608 358 OFFCURVE",
"608 339 CURVE SMOOTH",
"608 154 LINE SMOOTH",
"608 101 OFFCURVE",
"604 65 OFFCURVE",
"548 65 CURVE",
"548 0 LINE",
"806 0 LINE",
"806 76 LINE",
"792 76 OFFCURVE",
"762 75 OFFCURVE",
"741 73 CURVE",
"744 103 OFFCURVE",
"745 142 OFFCURVE",
"745 161 CURVE SMOOTH"
);
},
{
closed = 1;
nodes = (
"240 302 LINE",
"239 346 LINE SMOOTH",
"239 399 OFFCURVE",
"243 435 OFFCURVE",
"299 435 CURVE",
"299 500 LINE",
"42 500 LINE",
"42 424 LINE",
"56 424 OFFCURVE",
"85 425 OFFCURVE",
"106 427 CURVE",
"104 397 OFFCURVE",
"103 358 OFFCURVE",
"103 339 CURVE SMOOTH",
"103 126 LINE SMOOTH",
"103 69 OFFCURVE",
"79 66 OFFCURVE",
"43 65 CURVE",
"43 0 LINE",
"336 0 LINE SMOOTH",
"432 0 OFFCURVE",
"512 49 OFFCURVE",
"512 158 CURVE SMOOTH",
"512 242 OFFCURVE",
"465 310 OFFCURVE",
"286 304 CURVE SMOOTH"
);
},
{
closed = 1;
nodes = (
"239 241 LINE",
"259 242 OFFCURVE",
"272 241 OFFCURVE",
"299 242 CURVE SMOOTH",
"341 242 OFFCURVE",
"377 213 OFFCURVE",
"375 153 CURVE SMOOTH",
"375 101 OFFCURVE",
"346 71 OFFCURVE",
"307 69 CURVE SMOOTH",
"283 67 OFFCURVE",
"261 68 OFFCURVE",
"233 68 CURVE",
"235 84 OFFCURVE",
"239 104 OFFCURVE",
"239 128 CURVE SMOOTH"
);
}
);
width = 847;
}
);
leftMetricsKey = "en-cy";
rightMetricsKey = "en-cy";
unicode = 044B;
userData = {
public.markColor = "0.67,0.95,0.38,1";
};
},
{
color = 4;
glyphname = "lje-cy";
layers = (
{
layerId = "7BBBACCF-9772-44A1-910F-14DC7866E88D";
paths = (
{
closed = 1;
nodes = (
"574 302 LINE",
"574 346 LINE SMOOTH",
"574 399 OFFCURVE",
"578 435 OFFCURVE",
"634 435 CURVE",
"634 500 LINE",
"145 500 LINE",
"145 424 LINE",
"238 431 LINE",
"235 373 LINE SMOOTH",
"220 127 OFFCURVE",
"169 56 OFFCURVE",
"138 56 CURVE SMOOTH",
"134 56 OFFCURVE",
"130 57 OFFCURVE",
"127 59 CURVE",
"133 65 OFFCURVE",
"138 73 OFFCURVE",
"138 90 CURVE SMOOTH",
"138 116 OFFCURVE",
"122 144 OFFCURVE",
"79 144 CURVE SMOOTH",
"38 144 OFFCURVE",
"10 120 OFFCURVE",
"10 76 CURVE SMOOTH",
"10 22 OFFCURVE",
"54 -14 OFFCURVE",
"116 -14 CURVE SMOOTH",
"233 -14 OFFCURVE",
"299 113 OFFCURVE",
"314 380 CURVE SMOOTH",
"316 413 OFFCURVE",
"329 421 OFFCURVE",
"361 421 CURVE SMOOTH",
"441 421 LINE",
"438 393 OFFCURVE",
"438 358 OFFCURVE",
"438 339 CURVE SMOOTH",
"438 126 LINE SMOOTH",
"438 69 OFFCURVE",
"414 66 OFFCURVE",
"378 65 CURVE",
"378 0 LINE",
"678 0 LINE SMOOTH",
"774 0 OFFCURVE",
"857 49 OFFCURVE",
"856 158 CURVE",
"856 242 OFFCURVE",
"808 310 OFFCURVE",
"621 304 CURVE SMOOTH"
);
},
{
closed = 1;
nodes = (
"574 241 LINE",
"594 242 OFFCURVE",
"615 241 OFFCURVE",
"642 242 CURVE SMOOTH",
"685 242 OFFCURVE",
"722 213 OFFCURVE",
"721 153 CURVE SMOOTH",
"720 101 OFFCURVE",
"691 71 OFFCURVE",
"649 69 CURVE SMOOTH",
"625 67 OFFCURVE",
"596 68 OFFCURVE",
"568 68 CURVE",
"570 84 OFFCURVE",
"574 104 OFFCURVE",
"574 128 CURVE SMOOTH"
);
}
);
width = 898;
}
);
leftMetricsKey = "el-cy";
rightMetricsKey = "Softsign-cy";
unicode = 0459;
},
{
color = 4;
glyphname = "nje-cy";
layers = (
{
layerId = "7BBBACCF-9772-44A1-910F-14DC7866E88D";
paths = (
{
closed = 1;
nodes = (
"554 302 LINE",
"554 346 LINE SMOOTH",
"554 399 OFFCURVE",
"558 435 OFFCURVE",
"614 435 CURVE",
"614 500 LINE",
"361 500 LINE",
"361 424 LINE",
"421 427 LINE",
"418 397 OFFCURVE",
"417 358 OFFCURVE",
"417 339 CURVE SMOOTH",
"417 126 LINE SMOOTH",
"417 69 OFFCURVE",
"394 66 OFFCURVE",
"358 65 CURVE",
"358 0 LINE",
"661 0 LINE SMOOTH",
"756 0 OFFCURVE",
"837 49 OFFCURVE",
"836 158 CURVE",
"836 242 OFFCURVE",
"790 310 OFFCURVE",
"601 304 CURVE SMOOTH"
);
},
{
closed = 1;
nodes = (
"554 241 LINE",
"574 242 OFFCURVE",
"600 241 OFFCURVE",
"626 242 CURVE SMOOTH",
"678 242 OFFCURVE",
"714 213 OFFCURVE",
"713 153 CURVE SMOOTH",
"712 101 OFFCURVE",
"684 71 OFFCURVE",
"634 69 CURVE SMOOTH",
"610 68 OFFCURVE",
"576 68 OFFCURVE",
"548 68 CURVE",
"550 84 OFFCURVE",
"554 104 OFFCURVE",
"554 128 CURVE SMOOTH"
);
},
{
closed = 1;
nodes = (
"181 304 LINE",
"181 225 LINE",
"455 227 LINE",
"455 304 LINE"
);
},
{
closed = 1;
nodes = (
"239 346 LINE SMOOTH",
"239 399 OFFCURVE",
"243 435 OFFCURVE",
"299 435 CURVE",
"299 500 LINE",
"42 500 LINE",
"42 424 LINE",
"106 427 LINE",
"104 397 OFFCURVE",
"103 358 OFFCURVE",
"103 339 CURVE SMOOTH",
"103 154 LINE SMOOTH",
"103 101 OFFCURVE",
"99 65 OFFCURVE",
"43 65 CURVE",
"43 0 LINE",
"291 0 LINE",
"291 76 LINE",
"235 73 LINE",
"238 103 OFFCURVE",
"239 142 OFFCURVE",
"239 161 CURVE SMOOTH"
);
}
);
width = 878;
}
);
leftMetricsKey = afii10079;
rightMetricsKey = "Softsign-cy";
unicode = 045A;
},
{
color = 4;
glyphname = "e-cy";
layers = (
{
layerId = "7BBBACCF-9772-44A1-910F-14DC7866E88D";
paths = (
{
closed = 1;
nodes = (
"360 284 LINE",
"157 284 LINE",
"157 212 LINE",
"360 215 LINE"
);
},
{
closed = 1;
nodes = (
"127 516 OFFCURVE",
"31 390 OFFCURVE",
"31 239 CURVE SMOOTH",
"31 77 OFFCURVE",
"142 -16 OFFCURVE",
"277 -16 CURVE SMOOTH",
"350 -16 OFFCURVE",
"432 5 OFFCURVE",
"505 105 CURVE",
"459 150 LINE",
"422 102 OFFCURVE",
"365 71 OFFCURVE",
"309 73 CURVE SMOOTH",
"208 77 OFFCURVE",
"172 168 OFFCURVE",
"172 268 CURVE SMOOTH",
"172 381 OFFCURVE",
"220 446 OFFCURVE",
"295 446 CURVE SMOOTH",
"324 446 OFFCURVE",
"348 436 OFFCURVE",
"369 414 CURVE",
"362 402 OFFCURVE",
"358 386 OFFCURVE",
"358 375 CURVE SMOOTH",
"358 351 OFFCURVE",
"373 316 OFFCURVE",
"417 318 CURVE SMOOTH",
"457 319 OFFCURVE",
"478 350 OFFCURVE",
"478 390 CURVE SMOOTH",
"478 455 OFFCURVE",
"412 516 OFFCURVE",
"295 516 CURVE SMOOTH"
);
}
);
width = 518;
}
);
unicode = 0454;
},
{
color = 4;
glyphname = "ereversed-cy";
layers = (
{
layerId = "7BBBACCF-9772-44A1-910F-14DC7866E88D";
paths = (
{
closed = 1;
nodes = (
"381 293 LINE",
"167 293 LINE",
"167 224 LINE",
"387 226 LINE"
);
},
{
closed = 1;
nodes = (
"375 240 CURVE SMOOTH",
"375 123 OFFCURVE",
"330 53 OFFCURVE",
"239 51 CURVE SMOOTH",
"205 50 OFFCURVE",
"175 59 OFFCURVE",
"155 87 CURVE",
"163 101 OFFCURVE",
"167 119 OFFCURVE",
"167 131 CURVE SMOOTH",
"167 159 OFFCURVE",
"150 196 OFFCURVE",
"99 196 CURVE SMOOTH",
"56 196 OFFCURVE",
"32 160 OFFCURVE",
"32 121 CURVE SMOOTH",
"32 51 OFFCURVE",
"97 -16 OFFCURVE",
"229 -16 CURVE SMOOTH",
"407 -16 OFFCURVE",
"509 110 OFFCURVE",
"509 261 CURVE SMOOTH",
"509 426 OFFCURVE",
"398 515 OFFCURVE",
"282 515 CURVE SMOOTH",
"230 515 OFFCURVE",
"178 497 OFFCURVE",
"136 461 CURVE",
"135 461 LINE",
"137 511 LINE",
"61 511 LINE",
"61 334 LINE",
"125 334 LINE",
"135 391 OFFCURVE",
"179 427 OFFCURVE",
"245 427 CURVE SMOOTH",
"325 427 OFFCURVE",
"375 373 OFFCURVE"
);
}
);
width = 540;
}
);
rightMetricsKey = o;
unicode = 044D;
userData = {
public.markColor = "0.67,0.95,0.38,1";
};
},
{
color = 4;
glyphname = "tshe-cy";
layers = (
{
layerId = "7BBBACCF-9772-44A1-910F-14DC7866E88D";
paths = (
{
closed = 1;
nodes = (
"5 597 LINE",
"5 521 LINE",
"411 524 LINE",
"411 597 LINE"
);
},
{
closed = 1;
nodes = (
"172 755 LINE",
"158 742 OFFCURVE",
"111 725 OFFCURVE",
"18 725 CURVE",
"18 649 LINE",
"32 650 OFFCURVE",
"67 651 OFFCURVE",
"88 652 CURVE",
"85 623 OFFCURVE",
"84 589 OFFCURVE",
"84 565 CURVE SMOOTH",
"84 154 LINE SMOOTH",
"84 101 OFFCURVE",
"81 65 OFFCURVE",
"25 65 CURVE",
"25 0 LINE",
"287 0 LINE",
"287 76 LINE",
"273 76 OFFCURVE",
"244 75 OFFCURVE",
"222 73 CURVE",
"225 103 OFFCURVE",
"226 142 OFFCURVE",
"226 161 CURVE SMOOTH",
"226 338 LINE",
"248 358 OFFCURVE",
"284 375 OFFCURVE",
"317 375 CURVE SMOOTH",
"373 375 OFFCURVE",
"398 334 OFFCURVE",
"398 248 CURVE SMOOTH",
"399 154 LINE SMOOTH",
"399 101 OFFCURVE",
"395 65 OFFCURVE",
"339 65 CURVE",
"339 0 LINE",
"602 0 LINE",
"602 76 LINE",
"587 76 OFFCURVE",
"558 75 OFFCURVE",
"537 73 CURVE",
"540 103 OFFCURVE",
"541 142 OFFCURVE",
"541 161 CURVE SMOOTH",
"541 246 LINE SMOOTH",
"541 400 OFFCURVE",
"494 467 OFFCURVE",
"372 467 CURVE SMOOTH",
"331 467 OFFCURVE",
"265 442 OFFCURVE",
"226 412 CURVE",
"226 755 LINE"
);
}
);
width = 621;
}
);
unicode = 045B;
},
{
color = 4;
glyphname = "iu-cy";
layers = (
{
components = (
{
name = o;
transform = "{1, 0, 0, 1, 299, 0}";
}
);
layerId = "7BBBACCF-9772-44A1-910F-14DC7866E88D";
paths = (
{
closed = 1;
nodes = (
"41 500 LINE",
"41 435 LINE",
"96 435 OFFCURVE",
"100 399 OFFCURVE",
"100 346 CURVE SMOOTH",
"100 154 LINE SMOOTH",
"100 101 OFFCURVE",
"96 65 OFFCURVE",
"41 65 CURVE",
"41 0 LINE",
"303 0 LINE",
"303 76 LINE",
"289 76 OFFCURVE",
"259 75 OFFCURVE",
"238 73 CURVE",
"241 103 OFFCURVE",
"242 142 OFFCURVE",
"242 161 CURVE SMOOTH",
"242 339 LINE SMOOTH",
"242 358 OFFCURVE",
"241 397 OFFCURVE",
"238 427 CURVE",
"259 425 OFFCURVE",
"289 424 OFFCURVE",
"303 424 CURVE",
"303 500 LINE"
);
},
{
closed = 1;
nodes = (
"178 294 LINE",
"178 215 LINE",
"452 217 LINE",
"452 294 LINE"
);
}
);
width = 865;
}
);
rightMetricsKey = o;
unicode = 044E;
userData = {
public.markColor = "0.67,0.95,0.38,1";
};
},
{
color = 4;
glyphname = "ia-cy";
layers = (
{
layerId = "7BBBACCF-9772-44A1-910F-14DC7866E88D";
paths = (
{
closed = 1;
nodes = (
"306 197 LINE",
"352 198 LINE",
"352 154 LINE SMOOTH",
"352 101 OFFCURVE",
"350 65 OFFCURVE",
"307 65 CURVE",
"307 0 LINE",
"550 0 LINE",
"550 76 LINE",
"485 73 LINE",
"488 103 OFFCURVE",
"489 142 OFFCURVE",
"489 161 CURVE SMOOTH",
"489 374 LINE SMOOTH",
"489 431 OFFCURVE",
"518 434 OFFCURVE",
"549 435 CURVE",
"549 500 LINE",
"246 500 LINE SMOOTH",
"150 500 OFFCURVE",
"69 451 OFFCURVE",
"70 351 CURVE SMOOTH",
"70 263 OFFCURVE",
"141 203 OFFCURVE",
"306 208 CURVE"
);
},
{
closed = 1;
nodes = (
"352 259 LINE",
"285 258 LINE SMOOTH",
"238 257 OFFCURVE",
"202 292 OFFCURVE",
"203 347 CURVE SMOOTH",
"204 399 OFFCURVE",
"232 429 OFFCURVE",
"272 431 CURVE SMOOTH",
"296 433 OFFCURVE",
"327 432 OFFCURVE",
"355 432 CURVE",
"353 416 OFFCURVE",
"352 396 OFFCURVE",
"352 372 CURVE SMOOTH"
);
},
{
closed = 1;
nodes = (
"240 221 LINE SMOOTH",
"194 223 OFFCURVE",
"162 210 OFFCURVE",
"146 185 CURVE SMOOTH",
"114 135 LINE SMOOTH",
"100 114 OFFCURVE",
"63 65 OFFCURVE",
"22 65 CURVE",
"22 0 LINE",
"122 0 LINE SMOOTH",
"165 0 OFFCURVE",
"192 31 OFFCURVE",
"233 87 CURVE SMOOTH",
"262 124 OFFCURVE",
"288 176 OFFCURVE",
"304 197 CURVE",
"327 198 LINE",
"327 221 LINE"
);
},
{
closed = 1;
nodes = (
"187 206 LINE",
"201 206 LINE",
"201 231 LINE",
"187 231 LINE"
);
}
);
width = 591;
}
);
rightMetricsKey = "en-cy";
unicode = 044F;
userData = {
public.markColor = "0.67,0.95,0.38,1";
};
},
{
color = 4;
glyphname = "dje-cy";
layers = (
{
layerId = "7BBBACCF-9772-44A1-910F-14DC7866E88D";
paths = (
{
closed = 1;
nodes = (
"541 246 LINE SMOOTH",
"541 400 OFFCURVE",
"494 467 OFFCURVE",
"372 467 CURVE SMOOTH",
"331 467 OFFCURVE",
"265 442 OFFCURVE",
"226 412 CURVE",
"226 522 LINE",
"411 522 LINE",
"411 597 LINE",
"226 597 LINE",
"226 755 LINE",
"172 755 LINE",
"158 742 OFFCURVE",
"111 725 OFFCURVE",
"18 725 CURVE",
"18 649 LINE",
"32 650 OFFCURVE",
"67 651 OFFCURVE",
"88 652 CURVE",
"87 634 OFFCURVE",
"86 615 OFFCURVE",
"85 597 CURVE",
"5 597 LINE",
"5 521 LINE",
"84 521 LINE",
"84 154 LINE SMOOTH",
"84 101 OFFCURVE",
"81 65 OFFCURVE",
"25 65 CURVE",
"25 0 LINE",
"287 0 LINE",
"287 76 LINE",
"222 73 LINE",
"225 103 OFFCURVE",
"226 142 OFFCURVE",
"226 161 CURVE SMOOTH",
"226 338 LINE",
"248 358 OFFCURVE",
"284 375 OFFCURVE",
"317 375 CURVE SMOOTH",
"373 375 OFFCURVE",
"398 334 OFFCURVE",
"398 248 CURVE SMOOTH",
"398 -110 LINE SMOOTH",
"398 -155 OFFCURVE",
"391 -185 OFFCURVE",
"359 -185 CURVE SMOOTH",
"354 -185 OFFCURVE",
"344 -183 OFFCURVE",
"341 -181 CURVE",
"351 -137 OFFCURVE",
"324 -104 OFFCURVE",
"283 -104 CURVE SMOOTH",
"242 -105 OFFCURVE",
"220 -138 OFFCURVE",
"220 -173 CURVE SMOOTH",
"220 -214 OFFCURVE",
"254 -255 OFFCURVE",
"329 -255 CURVE SMOOTH",
"449 -255 OFFCURVE",
"539 -167 OFFCURVE",
"540 18 CURVE SMOOTH"
);
}
);
width = 609;
}
);
unicode = 0452;
},
{
glyphname = "ghemiddlehook-cy";
layers = (
{
components = (
{
name = "ge-cy";
}
);
layerId = "7BBBACCF-9772-44A1-910F-14DC7866E88D";
paths = (
{
closed = 1;
nodes = (
"558 46 LINE SMOOTH",
"563 200 OFFCURVE",
"511 267 OFFCURVE",
"389 267 CURVE SMOOTH",
"348 267 OFFCURVE",
"282 242 OFFCURVE",
"243 212 CURVE",
"243 138 LINE",
"265 158 OFFCURVE",
"301 175 OFFCURVE",
"334 175 CURVE SMOOTH",
"390 175 OFFCURVE",
"415 134 OFFCURVE",
"415 48 CURVE SMOOTH",
"415 -110 LINE SMOOTH",
"415 -155 OFFCURVE",
"408 -185 OFFCURVE",
"376 -185 CURVE SMOOTH",
"371 -185 OFFCURVE",
"361 -183 OFFCURVE",
"358 -181 CURVE",
"368 -137 OFFCURVE",
"341 -104 OFFCURVE",
"300 -104 CURVE SMOOTH",
"259 -104 OFFCURVE",
"237 -138 OFFCURVE",
"237 -173 CURVE SMOOTH",
"237 -214 OFFCURVE",
"271 -255 OFFCURVE",
"346 -255 CURVE SMOOTH",
"466 -255 OFFCURVE",
"550 -167 OFFCURVE",
"557 18 CURVE SMOOTH"
);
}
);
width = 626;
}
);
rightMetricsKey = "dje-cy";
unicode = 0495;
},
{
color = 4;
glyphname = "ustraitstroke-cy";
layers = (
{
components = (
{
name = v;
}
);
layerId = "7BBBACCF-9772-44A1-910F-14DC7866E88D";
paths = (
{
closed = 1;
nodes = (
"201 97 LINE",
"201 -101 LINE SMOOTH",
"201 -154 OFFCURVE",
"197 -190 OFFCURVE",
"141 -190 CURVE",
"141 -255 LINE",
"403 -255 LINE",
"403 -179 LINE",
"338 -182 LINE",
"341 -152 OFFCURVE",
"342 -113 OFFCURVE",
"342 -94 CURVE",
"342 97 LINE"
);
},
{
closed = 1;
nodes = (
"76 63 LINE",
"76 -19 LINE",
"461 -16 LINE",
"461 63 LINE"
);
}
);
width = 538;
}
);
unicode = 04B1;
},
{
color = 4;
glyphname = Delta;
layers = (
{
layerId = "7BBBACCF-9772-44A1-910F-14DC7866E88D";
paths = (
{
closed = 1;
nodes = (
"302 716 LINE",
"29 0 LINE",
"670 0 LINE",
"380 716 LINE"
);
},
{
closed = 1;
nodes = (
"383 389 OFFCURVE",
"446 235 OFFCURVE",
"511 70 CURVE",
"385 71 OFFCURVE",
"254 71 OFFCURVE",
"133 71 CURVE",
"316 561 LINE"
);
}
);
width = 697;
}
);
unicode = 0394;
},
{
color = 4;
glyphname = Omega;
layers = (
{
layerId = "7BBBACCF-9772-44A1-910F-14DC7866E88D";
paths = (
{
closed = 1;
nodes = (
"179 716 OFFCURVE",
"56 545 OFFCURVE",
"56 387 CURVE SMOOTH",
"56 249 OFFCURVE",
"153 135 OFFCURVE",
"296 101 CURVE",
"296 100 LINE",
"192 98 LINE SMOOTH",
"146 97 OFFCURVE",
"116 107 OFFCURVE",
"116 163 CURVE",
"53 163 LINE",
"61 0 LINE",
"372 0 LINE",
"372 109 LINE",
"292 119 OFFCURVE",
"197 216 OFFCURVE",
"197 375 CURVE SMOOTH",
"197 500 OFFCURVE",
"250 645 OFFCURVE",
"393 646 CURVE SMOOTH",
"536 646 OFFCURVE",
"580 504 OFFCURVE",
"580 369 CURVE SMOOTH",
"580 226 OFFCURVE",
"501 127 OFFCURVE",
"416 109 CURVE",
"416 0 LINE",
"729 0 LINE",
"737 163 LINE",
"673 163 LINE",
"673 107 OFFCURVE",
"643 97 OFFCURVE",
"598 98 CURVE SMOOTH",
"496 100 LINE",
"496 101 LINE",
"627 140 OFFCURVE",
"723 266 OFFCURVE",
"723 396 CURVE SMOOTH",
"723 554 OFFCURVE",
"611 716 OFFCURVE",
"390 716 CURVE SMOOTH"
);
}
);
width = 786;
}
);
unicode = 03A9;
},
{
color = 4;
glyphname = mu;
layers = (
{
layerId = "7BBBACCF-9772-44A1-910F-14DC7866E88D";
paths = (
{
closed = 1;
nodes = (
"366 500 LINE",
"366 116 LINE",
"341 88 OFFCURVE",
"315 79 OFFCURVE",
"291 79 CURVE SMOOTH",
"243 79 OFFCURVE",
"209 122 OFFCURVE",
"209 184 CURVE SMOOTH",
"209 500 LINE",
"84 500 LINE",
"84 -167 LINE SMOOTH",
"84 -229 OFFCURVE",
"103 -271 OFFCURVE",
"154 -271 CURVE SMOOTH",
"203 -271 OFFCURVE",
"218 -233 OFFCURVE",
"218 -195 CURVE SMOOTH",
"218 -139 OFFCURVE",
"206 -90 OFFCURVE",
"152 77 CURVE",
"158 82 LINE",
"188 17 OFFCURVE",
"229 -7 OFFCURVE",
"272 -7 CURVE SMOOTH",
"313 -7 OFFCURVE",
"341 3 OFFCURVE",
"379 44 CURVE",
"380 44 LINE",
"391 9 OFFCURVE",
"424 -5 OFFCURVE",
"463 -5 CURVE SMOOTH",
"514 -5 OFFCURVE",
"562 35 OFFCURVE",
"584 67 CURVE",
"551 109 LINE",
"535 95 OFFCURVE",
"523 91 OFFCURVE",
"514 91 CURVE SMOOTH",
"489 91 OFFCURVE",
"490 126 OFFCURVE",
"490 142 CURVE SMOOTH",
"491 500 LINE"
);
}
);
width = 612;
}
);
unicode = 03BC;
},
{
color = 4;
glyphname = pi;
layers = (
{
layerId = "7BBBACCF-9772-44A1-910F-14DC7866E88D";
paths = (
{
closed = 1;
nodes = (
"510 499 OFFCURVE",
"477 494 OFFCURVE",
"450 494 CURVE SMOOTH",
"339 494 OFFCURVE",
"282 511 OFFCURVE",
"183 511 CURVE SMOOTH",
"116 511 OFFCURVE",
"61 469 OFFCURVE",
"25 426 CURVE",
"59 375 LINE",
"92 391 OFFCURVE",
"127 398 OFFCURVE",
"155 400 CURVE",
"155 300 OFFCURVE",
"153 139 OFFCURVE",
"125 104 CURVE",
"115 110 OFFCURVE",
"103 113 OFFCURVE",
"86 113 CURVE SMOOTH",
"62 113 OFFCURVE",
"24 93 OFFCURVE",
"24 49 CURVE SMOOTH",
"24 9 OFFCURVE",
"56 -16 OFFCURVE",
"92 -16 CURVE SMOOTH",
"143 -16 OFFCURVE",
"180 18 OFFCURVE",
"201 80 CURVE SMOOTH",
"224 146 OFFCURVE",
"225 292 OFFCURVE",
"225 398 CURVE",
"259 395 OFFCURVE",
"330 389 OFFCURVE",
"367 386 CURVE",
"367 332 OFFCURVE",
"366 205 OFFCURVE",
"365 136 CURVE SMOOTH",
"365 82 OFFCURVE",
"367 -16 OFFCURVE",
"473 -16 CURVE SMOOTH",
"521 -16 OFFCURVE",
"563 12 OFFCURVE",
"593 48 CURVE",
"563 92 LINE",
"534 76 OFFCURVE",
"502 76 OFFCURVE",
"502 136 CURVE SMOOTH",
"502 222 OFFCURVE",
"503 312 OFFCURVE",
"503 398 CURVE",
"537 414 OFFCURVE",
"573 445 OFFCURVE",
"590 471 CURVE",
"553 521 LINE"
);
}
);
width = 613;
}
);
unicode = 03C0;
},
{
color = 4;
glyphname = zero;
layers = (
{
layerId = "7BBBACCF-9772-44A1-910F-14DC7866E88D";
paths = (
{
closed = 1;
nodes = (
"136 716 OFFCURVE",
"43 515 OFFCURVE",
"43 347 CURVE SMOOTH",
"43 180 OFFCURVE",
"114 -16 OFFCURVE",
"318 -16 CURVE SMOOTH",
"504 -16 OFFCURVE",
"592 186 OFFCURVE",
"592 352 CURVE SMOOTH",
"592 519 OFFCURVE",
"516 716 OFFCURVE",
"322 716 CURVE SMOOTH"
);
},
{
closed = 1;
nodes = (
"423 646 OFFCURVE",
"440 493 OFFCURVE",
"440 331 CURVE SMOOTH",
"440 184 OFFCURVE",
"418 55 OFFCURVE",
"324 55 CURVE SMOOTH",
"209 55 OFFCURVE",
"195 229 OFFCURVE",
"195 368 CURVE SMOOTH",
"195 517 OFFCURVE",
"224 646 OFFCURVE",
"320 646 CURVE SMOOTH"
);
}
);
width = 636;
}
);
unicode = 0030;
},
{
color = 4;
glyphname = one;
layers = (
{
layerId = "7BBBACCF-9772-44A1-910F-14DC7866E88D";
paths = (
{
closed = 1;
nodes = (
"235 716 LINE",
"6 549 LINE",
"42 489 LINE",
"151 554 LINE",
"151 153 LINE SMOOTH",
"151 72 OFFCURVE",
"125 68 OFFCURVE",
"80 66 CURVE",
"80 0 LINE",
"367 0 LINE",
"367 77 LINE",
"353 77 OFFCURVE",
"313 76 OFFCURVE",
"292 74 CURVE",
"294 91 OFFCURVE",
"295 128 OFFCURVE",
"295 164 CURVE SMOOTH",
"295 716 LINE"
);
}
);
width = 406;
}
);
unicode = 0031;
},
{
color = 4;
glyphname = two;
layers = (
{
layerId = "7BBBACCF-9772-44A1-910F-14DC7866E88D";
paths = (
{
closed = 1;
nodes = (
"117 716 OFFCURVE",
"40 620 OFFCURVE",
"40 560 CURVE SMOOTH",
"40 521 OFFCURVE",
"63 489 OFFCURVE",
"104 487 CURVE SMOOTH",
"153 486 OFFCURVE",
"172 528 OFFCURVE",
"172 551 CURVE SMOOTH",
"172 565 OFFCURVE",
"167 588 OFFCURVE",
"152 603 CURVE",
"167 625 OFFCURVE",
"197 645 OFFCURVE",
"233 645 CURVE SMOOTH",
"309 646 OFFCURVE",
"329 578 OFFCURVE",
"329 515 CURVE SMOOTH",
"329 443 OFFCURVE",
"292 373 OFFCURVE",
"195 283 CURVE SMOOTH",
"118 212 OFFCURVE",
"39 139 OFFCURVE",
"39 0 CURVE",
"477 0 LINE",
"485 163 LINE",
"421 163 LINE",
"421 107 OFFCURVE",
"391 96 OFFCURVE",
"346 98 CURVE SMOOTH",
"150 103 LINE",
"156 129 OFFCURVE",
"188 182 OFFCURVE",
"262 242 CURVE SMOOTH",
"443 390 OFFCURVE",
"482 459 OFFCURVE",
"482 527 CURVE SMOOTH",
"482 667 OFFCURVE",
"365 716 OFFCURVE",
"258 716 CURVE SMOOTH"
);
}
);
width = 533;
}
);
unicode = 0032;
},
{
color = 4;
glyphname = three;
layers = (
{
layerId = "7BBBACCF-9772-44A1-910F-14DC7866E88D";
paths = (
{
closed = 1;
nodes = (
"120 716 OFFCURVE",
"51 623 OFFCURVE",
"51 563 CURVE SMOOTH",
"51 524 OFFCURVE",
"73 492 OFFCURVE",
"114 491 CURVE SMOOTH",
"164 489 OFFCURVE",
"182 531 OFFCURVE",
"182 555 CURVE SMOOTH",
"182 567 OFFCURVE",
"178 589 OFFCURVE",
"166 604 CURVE",
"177 625 OFFCURVE",
"209 646 OFFCURVE",
"245 646 CURVE SMOOTH",
"313 646 OFFCURVE",
"339 597 OFFCURVE",
"338 528 CURVE SMOOTH",
"336 454 OFFCURVE",
"286 403 OFFCURVE",
"198 403 CURVE SMOOTH",
"188 403 OFFCURVE",
"180 403 OFFCURVE",
"169 404 CURVE",
"169 332 LINE",
"181 333 OFFCURVE",
"211 335 OFFCURVE",
"221 335 CURVE SMOOTH",
"336 337 OFFCURVE",
"369 257 OFFCURVE",
"369 189 CURVE SMOOTH",
"369 114 OFFCURVE",
"326 57 OFFCURVE",
"242 57 CURVE SMOOTH",
"205 57 OFFCURVE",
"166 72 OFFCURVE",
"152 97 CURVE",
"163 111 OFFCURVE",
"168 130 OFFCURVE",
"168 143 CURVE SMOOTH",
"168 169 OFFCURVE",
"153 208 OFFCURVE",
"103 207 CURVE SMOOTH",
"62 206 OFFCURVE",
"35 171 OFFCURVE",
"35 131 CURVE SMOOTH",
"35 62 OFFCURVE",
"101 -16 OFFCURVE",
"252 -16 CURVE SMOOTH",
"408 -16 OFFCURVE",
"520 59 OFFCURVE",
"520 196 CURVE SMOOTH",
"520 281 OFFCURVE",
"461 358 OFFCURVE",
"333 381 CURVE",
"333 382 LINE",
"443 406 OFFCURVE",
"483 486 OFFCURVE",
"483 539 CURVE SMOOTH",
"483 669 OFFCURVE",
"385 716 OFFCURVE",
"261 716 CURVE SMOOTH"
);
}
);
width = 560;
}
);
unicode = 0033;
},
{
color = 4;
glyphname = four;
layers = (
{
layerId = "7BBBACCF-9772-44A1-910F-14DC7866E88D";
paths = (
{
closed = 1;
nodes = (
"355 716 LINE",
"12 275 LINE",
"12 181 LINE",
"273 181 LINE",
"273 153 LINE SMOOTH",
"273 72 OFFCURVE",
"247 68 OFFCURVE",
"202 66 CURVE",
"202 0 LINE",
"487 0 LINE",
"487 77 LINE",
"473 77 OFFCURVE",
"434 76 OFFCURVE",
"412 74 CURVE",
"415 91 OFFCURVE",
"416 128 OFFCURVE",
"416 164 CURVE SMOOTH",
"416 181 LINE",
"514 181 LINE",
"514 271 LINE",
"416 271 LINE",
"416 716 LINE"
);
},
{
closed = 1;
nodes = (
"273 273 LINE",
"105 274 LINE",
"273 494 LINE",
"274 494 LINE"
);
}
);
width = 547;
}
);
unicode = 0034;
},
{
color = 4;
glyphname = five;
layers = (
{
layerId = "7BBBACCF-9772-44A1-910F-14DC7866E88D";
paths = (
{
closed = 1;
nodes = (
"402 765 LINE",
"402 709 OFFCURVE",
"372 700 OFFCURVE",
"326 700 CURVE SMOOTH",
"67 700 LINE",
"71 366 LINE",
"114 333 LINE",
"160 361 OFFCURVE",
"206 370 OFFCURVE",
"234 370 CURVE SMOOTH",
"346 370 OFFCURVE",
"354 257 OFFCURVE",
"354 197 CURVE SMOOTH",
"354 128 OFFCURVE",
"323 55 OFFCURVE",
"243 55 CURVE SMOOTH",
"215 55 OFFCURVE",
"174 69 OFFCURVE",
"165 92 CURVE",
"173 105 OFFCURVE",
"176 122 OFFCURVE",
"176 133 CURVE SMOOTH",
"176 160 OFFCURVE",
"161 199 OFFCURVE",
"111 197 CURVE SMOOTH",
"70 196 OFFCURVE",
"44 160 OFFCURVE",
"44 121 CURVE SMOOTH",
"44 57 OFFCURVE",
"120 -16 OFFCURVE",
"250 -16 CURVE SMOOTH",
"380 -16 OFFCURVE",
"508 63 OFFCURVE",
"508 218 CURVE SMOOTH",
"508 337 OFFCURVE",
"431 443 OFFCURVE",
"265 443 CURVE SMOOTH",
"225 443 OFFCURVE",
"174 432 OFFCURVE",
"144 419 CURVE",
"144 597 LINE",
"458 603 LINE",
"465 765 LINE"
);
}
);
width = 540;
}
);
unicode = 0035;
},
{
color = 4;
glyphname = six;
layers = (
{
layerId = "7BBBACCF-9772-44A1-910F-14DC7866E88D";
paths = (
{
closed = 1;
nodes = (
"93 716 OFFCURVE",
"46 438 OFFCURVE",
"46 322 CURVE SMOOTH",
"46 115 OFFCURVE",
"108 -16 OFFCURVE",
"287 -16 CURVE SMOOTH",
"429 -16 OFFCURVE",
"532 89 OFFCURVE",
"532 215 CURVE SMOOTH",
"532 352 OFFCURVE",
"467 450 OFFCURVE",
"319 446 CURVE SMOOTH",
"270 444 OFFCURVE",
"212 415 OFFCURVE",
"191 390 CURVE",
"194 498 OFFCURVE",
"222 640 OFFCURVE",
"319 646 CURVE SMOOTH",
"352 648 OFFCURVE",
"376 634 OFFCURVE",
"387 618 CURVE",
"376 605 OFFCURVE",
"373 585 OFFCURVE",
"373 574 CURVE SMOOTH",
"373 547 OFFCURVE",
"389 511 OFFCURVE",
"439 511 CURVE SMOOTH",
"480 511 OFFCURVE",
"502 546 OFFCURVE",
"502 582 CURVE SMOOTH",
"502 643 OFFCURVE",
"446 716 OFFCURVE",
"320 716 CURVE SMOOTH"
);
},
{
closed = 1;
nodes = (
"374 366 OFFCURVE",
"381 250 OFFCURVE",
"381 190 CURVE SMOOTH",
"381 121 OFFCURVE",
"362 54 OFFCURVE",
"292 54 CURVE SMOOTH",
"214 54 OFFCURVE",
"191 207 OFFCURVE",
"191 300 CURVE",
"209 336 OFFCURVE",
"249 366 OFFCURVE",
"291 366 CURVE SMOOTH"
);
}
);
width = 575;
}
);
unicode = 0036;
},
{
color = 4;
glyphname = seven;
layers = (
{
layerId = "7BBBACCF-9772-44A1-910F-14DC7866E88D";
paths = (
{
closed = 1;
nodes = (
"22 700 LINE",
"15 530 LINE",
"78 530 LINE",
"78 585 OFFCURVE",
"108 602 OFFCURVE",
"154 601 CURVE SMOOTH",
"364 599 LINE",
"185 183 OFFCURVE",
"150 100 OFFCURVE",
"145 55 CURVE SMOOTH",
"140 22 OFFCURVE",
"153 -16 OFFCURVE",
"200 -16 CURVE SMOOTH",
"239 -17 OFFCURVE",
"262 23 OFFCURVE",
"271 60 CURVE SMOOTH",
"324 272 OFFCURVE",
"358 425 OFFCURVE",
"448 609 CURVE",
"448 700 LINE"
);
}
);
width = 469;
}
);
unicode = 0037;
},
{
color = 4;
glyphname = eight;
layers = (
{
layerId = "7BBBACCF-9772-44A1-910F-14DC7866E88D";
paths = (
{
closed = 1;
nodes = (
"191 716 OFFCURVE",
"67 656 OFFCURVE",
"67 525 CURVE SMOOTH",
"67 471 OFFCURVE",
"100 399 OFFCURVE",
"188 344 CURVE",
"188 343 LINE",
"122 305 OFFCURVE",
"56 234 OFFCURVE",
"56 158 CURVE SMOOTH",
"56 26 OFFCURVE",
"188 -16 OFFCURVE",
"283 -16 CURVE SMOOTH",
"413 -16 OFFCURVE",
"530 42 OFFCURVE",
"530 172 CURVE SMOOTH",
"530 248 OFFCURVE",
"483 320 OFFCURVE",
"381 382 CURVE",
"381 383 LINE",
"437 417 OFFCURVE",
"500 477 OFFCURVE",
"500 546 CURVE SMOOTH",
"500 656 OFFCURVE",
"397 716 OFFCURVE",
"294 716 CURVE SMOOTH"
);
},
{
closed = 1;
nodes = (
"356 258 OFFCURVE",
"387 201 OFFCURVE",
"387 151 CURVE SMOOTH",
"387 96 OFFCURVE",
"348 53 OFFCURVE",
"284 54 CURVE SMOOTH",
"220 55 OFFCURVE",
"175 105 OFFCURVE",
"178 168 CURVE SMOOTH",
"180 206 OFFCURVE",
"204 265 OFFCURVE",
"257 307 CURVE"
);
},
{
closed = 1;
nodes = (
"353 646 OFFCURVE",
"395 609 OFFCURVE",
"392 542 CURVE SMOOTH",
"391 505 OFFCURVE",
"358 455 OFFCURVE",
"316 423 CURVE",
"257 447 OFFCURVE",
"207 501 OFFCURVE",
"207 553 CURVE SMOOTH",
"207 604 OFFCURVE",
"244 646 OFFCURVE",
"302 646 CURVE SMOOTH"
);
}
);
width = 572;
}
);
unicode = 0038;
},
{
color = 4;
glyphname = nine;
layers = (
{
layerId = "7BBBACCF-9772-44A1-910F-14DC7866E88D";
paths = (
{
closed = 1;
nodes = (
"141 716 OFFCURVE",
"43 621 OFFCURVE",
"43 487 CURVE SMOOTH",
"43 351 OFFCURVE",
"111 250 OFFCURVE",
"258 254 CURVE SMOOTH",
"308 256 OFFCURVE",
"363 286 OFFCURVE",
"384 311 CURVE",
"390 184 OFFCURVE",
"353 61 OFFCURVE",
"256 55 CURVE SMOOTH",
"223 53 OFFCURVE",
"198 67 OFFCURVE",
"188 83 CURVE",
"197 94 OFFCURVE",
"202 115 OFFCURVE",
"202 126 CURVE SMOOTH",
"202 153 OFFCURVE",
"188 189 OFFCURVE",
"138 189 CURVE SMOOTH",
"97 189 OFFCURVE",
"72 151 OFFCURVE",
"72 115 CURVE SMOOTH",
"72 48 OFFCURVE",
"123 -16 OFFCURVE",
"255 -16 CURVE SMOOTH",
"489 -16 OFFCURVE",
"529 229 OFFCURVE",
"529 378 CURVE SMOOTH",
"529 573 OFFCURVE",
"462 716 OFFCURVE",
"284 716 CURVE SMOOTH"
);
},
{
closed = 1;
nodes = (
"361 646 OFFCURVE",
"384 528 OFFCURVE",
"384 400 CURVE",
"366 364 OFFCURVE",
"328 334 OFFCURVE",
"286 334 CURVE SMOOTH",
"203 334 OFFCURVE",
"194 450 OFFCURVE",
"194 510 CURVE SMOOTH",
"194 579 OFFCURVE",
"223 646 OFFCURVE",
"283 646 CURVE SMOOTH"
);
}
);
width = 576;
}
);
unicode = 0039;
},
{
color = 9;
glyphname = zero.osf;
layers = (
{
layerId = "7BBBACCF-9772-44A1-910F-14DC7866E88D";
paths = (
{
closed = 1;
nodes = (
"136 716 OFFCURVE",
"43 515 OFFCURVE",
"43 347 CURVE SMOOTH",
"43 180 OFFCURVE",
"114 -16 OFFCURVE",
"318 -16 CURVE SMOOTH",
"504 -16 OFFCURVE",
"592 186 OFFCURVE",
"592 352 CURVE SMOOTH",
"592 519 OFFCURVE",
"516 716 OFFCURVE",
"322 716 CURVE SMOOTH"
);
},
{
closed = 1;
nodes = (
"423 646 OFFCURVE",
"440 493 OFFCURVE",
"440 331 CURVE SMOOTH",
"440 184 OFFCURVE",
"418 55 OFFCURVE",
"324 55 CURVE SMOOTH",
"209 55 OFFCURVE",
"195 229 OFFCURVE",
"195 368 CURVE SMOOTH",
"195 517 OFFCURVE",
"224 646 OFFCURVE",
"320 646 CURVE SMOOTH"
);
}
);
width = 636;
}
);
},
{
color = 9;
glyphname = one.osf;
layers = (
{
layerId = "7BBBACCF-9772-44A1-910F-14DC7866E88D";
paths = (
{
closed = 1;
nodes = (
"235 716 LINE",
"6 549 LINE",
"42 489 LINE",
"151 554 LINE",
"151 153 LINE SMOOTH",
"151 72 OFFCURVE",
"125 68 OFFCURVE",
"80 66 CURVE",
"80 0 LINE",
"367 0 LINE",
"367 77 LINE",
"353 77 OFFCURVE",
"313 76 OFFCURVE",
"292 74 CURVE",
"294 91 OFFCURVE",
"295 128 OFFCURVE",
"295 164 CURVE SMOOTH",
"295 716 LINE"
);
}
);
width = 406;
}
);
},
{
color = 9;
glyphname = two.osf;
layers = (
{
layerId = "7BBBACCF-9772-44A1-910F-14DC7866E88D";
paths = (
{
closed = 1;
nodes = (
"117 716 OFFCURVE",
"40 620 OFFCURVE",
"40 560 CURVE SMOOTH",
"40 521 OFFCURVE",
"63 489 OFFCURVE",
"104 487 CURVE SMOOTH",
"153 486 OFFCURVE",
"172 528 OFFCURVE",
"172 551 CURVE SMOOTH",
"172 565 OFFCURVE",
"167 588 OFFCURVE",
"152 603 CURVE",
"167 625 OFFCURVE",
"197 645 OFFCURVE",
"233 645 CURVE SMOOTH",
"309 646 OFFCURVE",
"329 578 OFFCURVE",
"329 515 CURVE SMOOTH",
"329 443 OFFCURVE",
"292 373 OFFCURVE",
"195 283 CURVE SMOOTH",
"118 212 OFFCURVE",
"39 139 OFFCURVE",
"39 0 CURVE",
"477 0 LINE",
"485 163 LINE",
"421 163 LINE",
"421 107 OFFCURVE",
"391 96 OFFCURVE",
"346 98 CURVE SMOOTH",
"150 103 LINE",
"156 129 OFFCURVE",
"188 182 OFFCURVE",
"262 242 CURVE SMOOTH",
"443 390 OFFCURVE",
"482 459 OFFCURVE",
"482 527 CURVE SMOOTH",
"482 667 OFFCURVE",
"365 716 OFFCURVE",
"258 716 CURVE SMOOTH"
);
}
);
width = 533;
}
);
},
{
color = 9;
glyphname = three.osf;
layers = (
{
layerId = "7BBBACCF-9772-44A1-910F-14DC7866E88D";
paths = (
{
closed = 1;
nodes = (
"120 716 OFFCURVE",
"51 623 OFFCURVE",
"51 563 CURVE SMOOTH",
"51 524 OFFCURVE",
"73 492 OFFCURVE",
"114 491 CURVE SMOOTH",
"164 489 OFFCURVE",
"182 531 OFFCURVE",
"182 555 CURVE SMOOTH",
"182 567 OFFCURVE",
"178 589 OFFCURVE",
"166 604 CURVE",
"177 625 OFFCURVE",
"209 646 OFFCURVE",
"245 646 CURVE SMOOTH",
"313 646 OFFCURVE",
"339 597 OFFCURVE",
"338 528 CURVE SMOOTH",
"336 454 OFFCURVE",
"286 403 OFFCURVE",
"198 403 CURVE SMOOTH",
"188 403 OFFCURVE",
"180 403 OFFCURVE",
"169 404 CURVE",
"169 332 LINE",
"181 333 OFFCURVE",
"211 335 OFFCURVE",
"221 335 CURVE SMOOTH",
"336 337 OFFCURVE",
"369 257 OFFCURVE",
"369 189 CURVE SMOOTH",
"369 114 OFFCURVE",
"326 57 OFFCURVE",
"242 57 CURVE SMOOTH",
"205 57 OFFCURVE",
"166 72 OFFCURVE",
"152 97 CURVE",
"163 111 OFFCURVE",
"168 130 OFFCURVE",
"168 143 CURVE SMOOTH",
"168 169 OFFCURVE",
"153 208 OFFCURVE",
"103 207 CURVE SMOOTH",
"62 206 OFFCURVE",
"35 171 OFFCURVE",
"35 131 CURVE SMOOTH",
"35 62 OFFCURVE",
"101 -16 OFFCURVE",
"252 -16 CURVE SMOOTH",
"408 -16 OFFCURVE",
"520 59 OFFCURVE",
"520 196 CURVE SMOOTH",
"520 281 OFFCURVE",
"461 358 OFFCURVE",
"333 381 CURVE",
"333 382 LINE",
"443 406 OFFCURVE",
"483 486 OFFCURVE",
"483 539 CURVE SMOOTH",
"483 669 OFFCURVE",
"385 716 OFFCURVE",
"261 716 CURVE SMOOTH"
);
}
);
width = 560;
}
);
},
{
color = 9;
glyphname = four.osf;
layers = (
{
layerId = "7BBBACCF-9772-44A1-910F-14DC7866E88D";
paths = (
{
closed = 1;
nodes = (
"355 716 LINE",
"12 275 LINE",
"12 181 LINE",
"273 181 LINE",
"273 153 LINE SMOOTH",
"273 72 OFFCURVE",
"247 68 OFFCURVE",
"202 66 CURVE",
"202 0 LINE",
"487 0 LINE",
"487 77 LINE",
"473 77 OFFCURVE",
"434 76 OFFCURVE",
"412 74 CURVE",
"415 91 OFFCURVE",
"416 128 OFFCURVE",
"416 164 CURVE SMOOTH",
"416 181 LINE",
"514 181 LINE",
"514 271 LINE",
"416 271 LINE",
"416 716 LINE"
);
},
{
closed = 1;
nodes = (
"273 273 LINE",
"105 274 LINE",
"273 494 LINE",
"274 494 LINE"
);
}
);
width = 547;
}
);
},
{
color = 9;
glyphname = five.osf;
layers = (
{
layerId = "7BBBACCF-9772-44A1-910F-14DC7866E88D";
paths = (
{
closed = 1;
nodes = (
"402 765 LINE",
"402 709 OFFCURVE",
"372 700 OFFCURVE",
"326 700 CURVE SMOOTH",
"67 700 LINE",
"71 366 LINE",
"114 333 LINE",
"160 361 OFFCURVE",
"206 370 OFFCURVE",
"234 370 CURVE SMOOTH",
"346 370 OFFCURVE",
"354 257 OFFCURVE",
"354 197 CURVE SMOOTH",
"354 128 OFFCURVE",
"323 55 OFFCURVE",
"243 55 CURVE SMOOTH",
"215 55 OFFCURVE",
"174 69 OFFCURVE",
"165 92 CURVE",
"173 105 OFFCURVE",
"176 122 OFFCURVE",
"176 133 CURVE SMOOTH",
"176 160 OFFCURVE",
"161 199 OFFCURVE",
"111 197 CURVE SMOOTH",
"70 196 OFFCURVE",
"44 160 OFFCURVE",
"44 121 CURVE SMOOTH",
"44 57 OFFCURVE",
"120 -16 OFFCURVE",
"250 -16 CURVE SMOOTH",
"380 -16 OFFCURVE",
"508 63 OFFCURVE",
"508 218 CURVE SMOOTH",
"508 337 OFFCURVE",
"431 443 OFFCURVE",
"265 443 CURVE SMOOTH",
"225 443 OFFCURVE",
"174 432 OFFCURVE",
"144 419 CURVE",
"144 597 LINE",
"458 603 LINE",
"465 765 LINE"
);
}
);
width = 540;
}
);
},
{
color = 9;
glyphname = six.osf;
layers = (
{
layerId = "7BBBACCF-9772-44A1-910F-14DC7866E88D";
paths = (
{
closed = 1;
nodes = (
"93 716 OFFCURVE",
"46 438 OFFCURVE",
"46 322 CURVE SMOOTH",
"46 115 OFFCURVE",
"108 -16 OFFCURVE",
"287 -16 CURVE SMOOTH",
"429 -16 OFFCURVE",
"532 89 OFFCURVE",
"532 215 CURVE SMOOTH",
"532 352 OFFCURVE",
"467 450 OFFCURVE",
"319 446 CURVE SMOOTH",
"270 444 OFFCURVE",
"212 415 OFFCURVE",
"191 390 CURVE",
"194 498 OFFCURVE",
"222 640 OFFCURVE",
"319 646 CURVE SMOOTH",
"352 648 OFFCURVE",
"376 634 OFFCURVE",
"387 618 CURVE",
"376 605 OFFCURVE",
"373 585 OFFCURVE",
"373 574 CURVE SMOOTH",
"373 547 OFFCURVE",
"389 511 OFFCURVE",
"439 511 CURVE SMOOTH",
"480 511 OFFCURVE",
"502 546 OFFCURVE",
"502 582 CURVE SMOOTH",
"502 643 OFFCURVE",
"446 716 OFFCURVE",
"320 716 CURVE SMOOTH"
);
},
{
closed = 1;
nodes = (
"374 366 OFFCURVE",
"381 250 OFFCURVE",
"381 190 CURVE SMOOTH",
"381 121 OFFCURVE",
"362 54 OFFCURVE",
"292 54 CURVE SMOOTH",
"214 54 OFFCURVE",
"191 207 OFFCURVE",
"191 300 CURVE",
"209 336 OFFCURVE",
"249 366 OFFCURVE",
"291 366 CURVE SMOOTH"
);
}
);
width = 575;
}
);
},
{
color = 9;
glyphname = seven.osf;
layers = (
{
layerId = "7BBBACCF-9772-44A1-910F-14DC7866E88D";
paths = (
{
closed = 1;
nodes = (
"22 700 LINE",
"15 530 LINE",
"78 530 LINE",
"78 585 OFFCURVE",
"108 602 OFFCURVE",
"154 601 CURVE SMOOTH",
"364 599 LINE",
"185 183 OFFCURVE",
"150 100 OFFCURVE",
"145 55 CURVE SMOOTH",
"140 22 OFFCURVE",
"153 -16 OFFCURVE",
"200 -16 CURVE SMOOTH",
"239 -17 OFFCURVE",
"262 23 OFFCURVE",
"271 60 CURVE SMOOTH",
"324 272 OFFCURVE",
"358 425 OFFCURVE",
"448 609 CURVE",
"448 700 LINE"
);
}
);
width = 469;
}
);
},
{
color = 9;
glyphname = eight.osf;
layers = (
{
layerId = "7BBBACCF-9772-44A1-910F-14DC7866E88D";
paths = (
{
closed = 1;
nodes = (
"191 716 OFFCURVE",
"67 656 OFFCURVE",
"67 525 CURVE SMOOTH",
"67 471 OFFCURVE",
"100 399 OFFCURVE",
"188 344 CURVE",
"188 343 LINE",
"122 305 OFFCURVE",
"56 234 OFFCURVE",
"56 158 CURVE SMOOTH",
"56 26 OFFCURVE",
"188 -16 OFFCURVE",
"283 -16 CURVE SMOOTH",
"413 -16 OFFCURVE",
"530 42 OFFCURVE",
"530 172 CURVE SMOOTH",
"530 248 OFFCURVE",
"483 320 OFFCURVE",
"381 382 CURVE",
"381 383 LINE",
"437 417 OFFCURVE",
"500 477 OFFCURVE",
"500 546 CURVE SMOOTH",
"500 656 OFFCURVE",
"397 716 OFFCURVE",
"294 716 CURVE SMOOTH"
);
},
{
closed = 1;
nodes = (
"356 258 OFFCURVE",
"387 201 OFFCURVE",
"387 151 CURVE SMOOTH",
"387 96 OFFCURVE",
"348 53 OFFCURVE",
"284 54 CURVE SMOOTH",
"220 55 OFFCURVE",
"175 105 OFFCURVE",
"178 168 CURVE SMOOTH",
"180 206 OFFCURVE",
"204 265 OFFCURVE",
"257 307 CURVE"
);
},
{
closed = 1;
nodes = (
"353 646 OFFCURVE",
"395 609 OFFCURVE",
"392 542 CURVE SMOOTH",
"391 505 OFFCURVE",
"358 455 OFFCURVE",
"316 423 CURVE",
"257 447 OFFCURVE",
"207 501 OFFCURVE",
"207 553 CURVE SMOOTH",
"207 604 OFFCURVE",
"244 646 OFFCURVE",
"302 646 CURVE SMOOTH"
);
}
);
width = 572;
}
);
},
{
color = 9;
glyphname = nine.osf;
layers = (
{
layerId = "7BBBACCF-9772-44A1-910F-14DC7866E88D";
paths = (
{
closed = 1;
nodes = (
"141 716 OFFCURVE",
"43 621 OFFCURVE",
"43 487 CURVE SMOOTH",
"43 351 OFFCURVE",
"111 250 OFFCURVE",
"258 254 CURVE SMOOTH",
"308 256 OFFCURVE",
"363 286 OFFCURVE",
"384 311 CURVE",
"390 184 OFFCURVE",
"353 61 OFFCURVE",
"256 55 CURVE SMOOTH",
"223 53 OFFCURVE",
"198 67 OFFCURVE",
"188 83 CURVE",
"197 94 OFFCURVE",
"202 115 OFFCURVE",
"202 126 CURVE SMOOTH",
"202 153 OFFCURVE",
"188 189 OFFCURVE",
"138 189 CURVE SMOOTH",
"97 189 OFFCURVE",
"72 151 OFFCURVE",
"72 115 CURVE SMOOTH",
"72 48 OFFCURVE",
"123 -16 OFFCURVE",
"255 -16 CURVE SMOOTH",
"489 -16 OFFCURVE",
"529 229 OFFCURVE",
"529 378 CURVE SMOOTH",
"529 573 OFFCURVE",
"462 716 OFFCURVE",
"284 716 CURVE SMOOTH"
);
},
{
closed = 1;
nodes = (
"361 646 OFFCURVE",
"384 528 OFFCURVE",
"384 400 CURVE",
"366 364 OFFCURVE",
"328 334 OFFCURVE",
"286 334 CURVE SMOOTH",
"203 334 OFFCURVE",
"194 450 OFFCURVE",
"194 510 CURVE SMOOTH",
"194 579 OFFCURVE",
"223 646 OFFCURVE",
"283 646 CURVE SMOOTH"
);
}
);
width = 576;
}
);
},
{
color = 4;
glyphname = onesuperior;
layers = (
{
layerId = "7BBBACCF-9772-44A1-910F-14DC7866E88D";
paths = (
{
closed = 1;
nodes = (
"167 716 LINE",
"21 621 LINE",
"41 582 LINE",
"104 619 LINE",
"104 389 LINE SMOOTH",
"104 343 OFFCURVE",
"90 340 OFFCURVE",
"64 339 CURVE",
"64 301 LINE",
"243 301 LINE",
"243 345 LINE",
"234 345 OFFCURVE",
"212 345 OFFCURVE",
"200 344 CURVE",
"201 354 OFFCURVE",
"202 375 OFFCURVE",
"202 395 CURVE SMOOTH",
"202 716 LINE"
);
}
);
width = 278;
}
);
unicode = 00B9;
},
{
color = 4;
glyphname = twosuperior;
layers = (
{
layerId = "7BBBACCF-9772-44A1-910F-14DC7866E88D";
paths = (
{
closed = 1;
nodes = (
"90 716 OFFCURVE",
"43 658 OFFCURVE",
"43 617 CURVE SMOOTH",
"43 588 OFFCURVE",
"60 564 OFFCURVE",
"90 563 CURVE SMOOTH",
"126 563 OFFCURVE",
"141 593 OFFCURVE",
"141 611 CURVE SMOOTH",
"141 618 OFFCURVE",
"138 633 OFFCURVE",
"127 642 CURVE",
"132 650 OFFCURVE",
"148 658 OFFCURVE",
"161 658 CURVE SMOOTH",
"189 658 OFFCURVE",
"208 642 OFFCURVE",
"208 602 CURVE SMOOTH",
"208 576 OFFCURVE",
"198 533 OFFCURVE",
"146 487 CURVE SMOOTH",
"94 440 OFFCURVE",
"47 394 OFFCURVE",
"46 302 CURVE",
"325 302 LINE",
"331 421 LINE",
"283 421 LINE",
"283 389 OFFCURVE",
"271 383 OFFCURVE",
"254 384 CURVE SMOOTH",
"131 386 LINE",
"140 404 OFFCURVE",
"146 416 OFFCURVE",
"165 432 CURVE SMOOTH",
"239 498 OFFCURVE",
"317 540 OFFCURVE",
"317 609 CURVE SMOOTH",
"317 687 OFFCURVE",
"248 716 OFFCURVE",
"179 716 CURVE SMOOTH"
);
}
);
width = 375;
}
);
unicode = 00B2;
},
{
color = 4;
glyphname = threesuperior;
layers = (
{
layerId = "7BBBACCF-9772-44A1-910F-14DC7866E88D";
paths = (
{
closed = 1;
nodes = (
"84 716 OFFCURVE",
"42 661 OFFCURVE",
"42 623 CURVE SMOOTH",
"42 593 OFFCURVE",
"61 573 OFFCURVE",
"91 572 CURVE SMOOTH",
"128 571 OFFCURVE",
"140 602 OFFCURVE",
"140 619 CURVE SMOOTH",
"140 626 OFFCURVE",
"137 642 OFFCURVE",
"126 650 CURVE",
"131 655 OFFCURVE",
"144 662 OFFCURVE",
"162 662 CURVE SMOOTH",
"195 662 OFFCURVE",
"213 641 OFFCURVE",
"213 605 CURVE SMOOTH",
"214 575 OFFCURVE",
"198 537 OFFCURVE",
"148 537 CURVE SMOOTH",
"137 537 OFFCURVE",
"125 538 OFFCURVE",
"113 538 CURVE",
"113 484 LINE",
"121 484 OFFCURVE",
"137 485 OFFCURVE",
"147 485 CURVE SMOOTH",
"200 485 OFFCURVE",
"227 455 OFFCURVE",
"227 413 CURVE SMOOTH",
"227 374 OFFCURVE",
"202 346 OFFCURVE",
"164 346 CURVE SMOOTH",
"153 346 OFFCURVE",
"130 348 OFFCURVE",
"120 361 CURVE",
"131 370 OFFCURVE",
"134 389 OFFCURVE",
"134 396 CURVE SMOOTH",
"134 420 OFFCURVE",
"123 447 OFFCURVE",
"86 446 CURVE SMOOTH",
"56 445 OFFCURVE",
"36 418 OFFCURVE",
"36 389 CURVE SMOOTH",
"36 340 OFFCURVE",
"86 292 OFFCURVE",
"168 292 CURVE SMOOTH",
"279 292 OFFCURVE",
"335 350 OFFCURVE",
"332 423 CURVE SMOOTH",
"329 473 OFFCURVE",
"300 510 OFFCURVE",
"237 522 CURVE",
"237 523 LINE",
"279 534 OFFCURVE",
"313 573 OFFCURVE",
"313 611 CURVE SMOOTH",
"313 682 OFFCURVE",
"254 716 OFFCURVE",
"178 716 CURVE SMOOTH"
);
}
);
width = 365;
}
);
unicode = 00B3;
},
{
color = 4;
glyphname = foursuperior;
layers = (
{
layerId = "7BBBACCF-9772-44A1-910F-14DC7866E88D";
paths = (
{
closed = 1;
nodes = (
"250 716 LINE",
"37 461 LINE",
"37 461 LINE",
"37 403 LINE",
"188 402 LINE",
"188 389 LINE SMOOTH",
"188 343 OFFCURVE",
"173 340 OFFCURVE",
"147 339 CURVE",
"147 301 LINE",
"326 301 LINE",
"326 345 LINE",
"317 345 OFFCURVE",
"295 345 OFFCURVE",
"283 344 CURVE",
"284 354 OFFCURVE",
"285 375 OFFCURVE",
"285 395 CURVE SMOOTH",
"285 401 LINE",
"344 401 LINE",
"344 456 LINE",
"285 457 LINE",
"285 716 LINE"
);
},
{
closed = 1;
nodes = (
"190 458 LINE",
"104 460 LINE",
"194 578 LINE",
"195 578 LINE"
);
}
);
width = 417;
}
);
unicode = 2074;
},
{
color = 4;
glyphname = fraction;
layers = (
{
layerId = "7BBBACCF-9772-44A1-910F-14DC7866E88D";
paths = (
{
closed = 1;
nodes = (
"-22 32 LINE",
"43 -16 LINE",
"489 663 LINE",
"421 716 LINE"
);
}
);
width = 467;
}
);
unicode = 2044;
},
{
color = 4;
glyphname = asterisk;
layers = (
{
layerId = "7BBBACCF-9772-44A1-910F-14DC7866E88D";
paths = (
{
closed = 1;
nodes = (
"224 716 OFFCURVE",
"215 679 OFFCURVE",
"215 645 CURVE SMOOTH",
"215 617 OFFCURVE",
"223 577 OFFCURVE",
"243 518 CURVE",
"192 554 OFFCURVE",
"157 574 OFFCURVE",
"130 583 CURVE SMOOTH",
"97 594 OFFCURVE",
"60 597 OFFCURVE",
"46 556 CURVE SMOOTH",
"33 515 OFFCURVE",
"65 495 OFFCURVE",
"98 484 CURVE SMOOTH",
"125 476 OFFCURVE",
"165 471 OFFCURVE",
"228 471 CURVE",
"177 436 OFFCURVE",
"147 408 OFFCURVE",
"130 385 CURVE SMOOTH",
"110 357 OFFCURVE",
"96 322 OFFCURVE",
"130 296 CURVE SMOOTH",
"165 271 OFFCURVE",
"194 296 OFFCURVE",
"214 324 CURVE SMOOTH",
"231 346 OFFCURVE",
"248 384 OFFCURVE",
"267 443 CURVE",
"285 384 OFFCURVE",
"302 347 OFFCURVE",
"319 323 CURVE SMOOTH",
"339 296 OFFCURVE",
"368 271 OFFCURVE",
"403 296 CURVE SMOOTH",
"438 322 OFFCURVE",
"423 356 OFFCURVE",
"403 385 CURVE SMOOTH",
"387 407 OFFCURVE",
"356 435 OFFCURVE",
"306 471 CURVE",
"368 471 OFFCURVE",
"408 476 OFFCURVE",
"436 484 CURVE SMOOTH",
"468 494 OFFCURVE",
"500 515 OFFCURVE",
"487 556 CURVE SMOOTH",
"474 596 OFFCURVE",
"436 594 OFFCURVE",
"402 583 CURVE SMOOTH",
"376 574 OFFCURVE",
"341 554 OFFCURVE",
"291 518 CURVE",
"311 577 OFFCURVE",
"319 617 OFFCURVE",
"319 645 CURVE SMOOTH",
"319 679 OFFCURVE",
"310 716 OFFCURVE",
"267 716 CURVE SMOOTH"
);
}
);
width = 533;
}
);
unicode = 002A;
},
{
color = 4;
glyphname = bullet;
layers = (
{
layerId = "7BBBACCF-9772-44A1-910F-14DC7866E88D";
paths = (
{
closed = 1;
nodes = (
"102 520 OFFCURVE",
"31 451 OFFCURVE",
"31 363 CURVE SMOOTH",
"31 275 OFFCURVE",
"102 206 OFFCURVE",
"190 206 CURVE SMOOTH",
"278 206 OFFCURVE",
"351 275 OFFCURVE",
"351 363 CURVE SMOOTH",
"351 451 OFFCURVE",
"278 520 OFFCURVE",
"190 520 CURVE SMOOTH"
);
}
);
width = 382;
}
);
unicode = 2022;
},
{
color = 4;
glyphname = comma;
layers = (
{
layerId = "7BBBACCF-9772-44A1-910F-14DC7866E88D";
paths = (
{
closed = 1;
nodes = (
"72 137 OFFCURVE",
"44 102 OFFCURVE",
"44 62 CURVE SMOOTH",
"44 16 OFFCURVE",
"77 -4 OFFCURVE",
"113 -4 CURVE SMOOTH",
"120 -4 OFFCURVE",
"125 -4 OFFCURVE",
"134 -1 CURVE",
"136 -59 OFFCURVE",
"98 -132 OFFCURVE",
"77 -159 CURVE",
"116 -187 LINE",
"178 -110 OFFCURVE",
"208 -32 OFFCURVE",
"208 32 CURVE SMOOTH",
"208 92 OFFCURVE",
"177 138 OFFCURVE",
"116 137 CURVE SMOOTH"
);
}
);
width = 250;
}
);
leftKerningGroup = period;
rightKerningGroup = period;
unicode = 002C;
},
{
color = 4;
glyphname = exclam;
layers = (
{
layerId = "7BBBACCF-9772-44A1-910F-14DC7866E88D";
paths = (
{
closed = 1;
nodes = (
"78 716 OFFCURVE",
"53 668 OFFCURVE",
"57 625 CURVE SMOOTH",
"95 213 LINE",
"163 213 LINE",
"200 625 LINE SMOOTH",
"204 668 OFFCURVE",
"183 716 OFFCURVE",
"129 716 CURVE SMOOTH"
);
},
{
closed = 1;
nodes = (
"90 140 OFFCURVE",
"56 105 OFFCURVE",
"56 62 CURVE SMOOTH",
"56 19 OFFCURVE",
"89 -16 OFFCURVE",
"128 -16 CURVE SMOOTH",
"166 -16 OFFCURVE",
"201 19 OFFCURVE",
"201 62 CURVE SMOOTH",
"201 105 OFFCURVE",
"170 140 OFFCURVE",
"129 140 CURVE SMOOTH"
);
}
);
width = 258;
}
);
unicode = 0021;
},
{
color = 4;
glyphname = numbersign;
layers = (
{
layerId = "7BBBACCF-9772-44A1-910F-14DC7866E88D";
paths = (
{
closed = 1;
nodes = (
"609 716 LINE",
"565 529 LINE",
"392 529 LINE",
"435 716 LINE",
"334 716 LINE",
"290 529 LINE",
"124 529 LINE",
"103 440 LINE",
"271 440 LINE",
"221 243 LINE",
"58 243 LINE",
"37 154 LINE",
"203 154 LINE",
"162 -16 LINE",
"268 -16 LINE",
"307 154 LINE",
"478 154 LINE",
"437 -16 LINE",
"543 -16 LINE",
"583 154 LINE",
"747 154 LINE",
"768 243 LINE",
"601 243 LINE",
"648 440 LINE",
"814 440 LINE",
"834 528 LINE",
"834 529 LINE",
"667 529 LINE",
"709 716 LINE"
);
},
{
closed = 1;
nodes = (
"496 243 LINE",
"325 243 LINE",
"373 440 LINE",
"546 440 LINE"
);
}
);
width = 871;
}
);
unicode = 0023;
},
{
color = 4;
glyphname = period;
layers = (
{
layerId = "7BBBACCF-9772-44A1-910F-14DC7866E88D";
paths = (
{
closed = 1;
nodes = (
"78 140 OFFCURVE",
"44 105 OFFCURVE",
"44 62 CURVE SMOOTH",
"44 19 OFFCURVE",
"74 -16 OFFCURVE",
"118 -16 CURVE SMOOTH",
"161 -16 OFFCURVE",
"189 19 OFFCURVE",
"189 62 CURVE SMOOTH",
"189 105 OFFCURVE",
"158 140 OFFCURVE",
"117 140 CURVE SMOOTH"
);
}
);
width = 233;
}
);
leftKerningGroup = period;
rightKerningGroup = period;
unicode = 002E;
},
{
color = 4;
glyphname = question;
layers = (
{
layerId = "7BBBACCF-9772-44A1-910F-14DC7866E88D";
paths = (
{
closed = 1;
nodes = (
"125 716 OFFCURVE",
"37 639 OFFCURVE",
"37 568 CURVE SMOOTH",
"37 528 OFFCURVE",
"57 499 OFFCURVE",
"100 497 CURVE SMOOTH",
"148 494 OFFCURVE",
"168 539 OFFCURVE",
"168 564 CURVE SMOOTH",
"168 578 OFFCURVE",
"164 601 OFFCURVE",
"150 614 CURVE",
"163 629 OFFCURVE",
"193 646 OFFCURVE",
"226 646 CURVE SMOOTH",
"293 646 OFFCURVE",
"312 599 OFFCURVE",
"312 537 CURVE SMOOTH",
"312 461 OFFCURVE",
"278 419 OFFCURVE",
"231 373 CURVE SMOOTH",
"164 306 OFFCURVE",
"150 283 OFFCURVE",
"150 250 CURVE SMOOTH",
"150 200 OFFCURVE",
"194 181 OFFCURVE",
"237 181 CURVE SMOOTH",
"262 181 OFFCURVE",
"302 186 OFFCURVE",
"335 203 CURVE",
"320 254 LINE",
"271 242 OFFCURVE",
"250 258 OFFCURVE",
"250 280 CURVE SMOOTH",
"250 344 OFFCURVE",
"458 416 OFFCURVE",
"458 557 CURVE SMOOTH",
"458 637 OFFCURVE",
"404 716 OFFCURVE",
"245 716 CURVE SMOOTH"
);
},
{
closed = 1;
nodes = (
"209 140 OFFCURVE",
"175 105 OFFCURVE",
"175 62 CURVE SMOOTH",
"175 19 OFFCURVE",
"208 -16 OFFCURVE",
"247 -16 CURVE SMOOTH",
"285 -16 OFFCURVE",
"320 19 OFFCURVE",
"320 62 CURVE SMOOTH",
"320 105 OFFCURVE",
"289 140 OFFCURVE",
"248 140 CURVE SMOOTH"
);
}
);
width = 503;
}
);
unicode = 003F;
},
{
color = 4;
glyphname = quotedbl;
layers = (
{
layerId = "7BBBACCF-9772-44A1-910F-14DC7866E88D";
paths = (
{
closed = 1;
nodes = (
"186 716 LINE",
"194 491 LINE",
"274 491 LINE",
"283 716 LINE"
);
},
{
closed = 1;
nodes = (
"43 716 LINE",
"51 491 LINE",
"131 491 LINE",
"140 716 LINE"
);
}
);
width = 326;
}
);
leftKerningGroup = quotesingle;
rightKerningGroup = quotesingle;
unicode = 0022;
},
{
color = 4;
glyphname = quotesingle;
layers = (
{
layerId = "7BBBACCF-9772-44A1-910F-14DC7866E88D";
paths = (
{
closed = 1;
nodes = (
"42 716 LINE",
"52 491 LINE",
"137 491 LINE",
"146 716 LINE"
);
}
);
width = 188;
}
);
leftKerningGroup = quotesingle;
rightKerningGroup = quotesingle;
unicode = 0027;
},
{
color = 4;
glyphname = slash;
layers = (
{
layerId = "7BBBACCF-9772-44A1-910F-14DC7866E88D";
paths = (
{
closed = 1;
nodes = (
"25 -220 LINE",
"103 -271 LINE",
"674 697 LINE",
"583 755 LINE"
);
}
);
width = 699;
}
);
unicode = 002F;
},
{
color = 4;
glyphname = underscore;
layers = (
{
layerId = "7BBBACCF-9772-44A1-910F-14DC7866E88D";
paths = (
{
closed = 1;
nodes = (
"108 -155 LINE",
"723 -155 LINE",
"723 -54 LINE",
"108 -50 LINE"
);
}
);
width = 832;
}
);
unicode = 005F;
},
{
color = 4;
glyphname = braceleft;
layers = (
{
layerId = "7BBBACCF-9772-44A1-910F-14DC7866E88D";
paths = (
{
closed = 1;
nodes = (
"333 760 LINE SMOOTH",
"181 760 OFFCURVE",
"106 695 OFFCURVE",
"106 554 CURVE SMOOTH",
"106 495 OFFCURVE",
"116 438 OFFCURVE",
"116 386 CURVE SMOOTH",
"116 318 OFFCURVE",
"94 299 OFFCURVE",
"20 299 CURVE SMOOTH",
"-3 299 LINE",
"-3 228 LINE",
"20 228 LINE SMOOTH",
"94 228 OFFCURVE",
"116 204 OFFCURVE",
"116 136 CURVE SMOOTH",
"116 84 OFFCURVE",
"106 2 OFFCURVE",
"106 -57 CURVE SMOOTH",
"106 -198 OFFCURVE",
"181 -271 OFFCURVE",
"333 -271 CURVE SMOOTH",
"361 -271 LINE",
"361 -200 LINE",
"277 -203 OFFCURVE",
"241 -185 OFFCURVE",
"241 -71 CURVE SMOOTH",
"241 -39 OFFCURVE",
"248 23 OFFCURVE",
"252 73 CURVE SMOOTH",
"260 180 OFFCURVE",
"186 251 OFFCURVE",
"84 262 CURVE",
"84 264 LINE",
"188 274 OFFCURVE",
"261 344 OFFCURVE",
"251 453 CURVE SMOOTH",
"247 494 OFFCURVE",
"241 538 OFFCURVE",
"241 568 CURVE SMOOTH",
"241 682 OFFCURVE",
"277 693 OFFCURVE",
"361 689 CURVE",
"361 760 LINE"
);
}
);
width = 368;
}
);
unicode = 007B;
},
{
color = 4;
glyphname = bracketleft;
layers = (
{
layerId = "7BBBACCF-9772-44A1-910F-14DC7866E88D";
paths = (
{
closed = 1;
nodes = (
"63 755 LINE",
"62 -255 LINE",
"385 -255 LINE",
"385 -184 LINE",
"188 -181 LINE",
"192 681 LINE",
"383 684 LINE",
"383 755 LINE"
);
}
);
width = 386;
}
);
unicode = 005B;
},
{
color = 4;
glyphname = parenright;
layers = (
{
layerId = "7BBBACCF-9772-44A1-910F-14DC7866E88D";
paths = (
{
closed = 1;
nodes = (
"10 725 LINE",
"113 588 OFFCURVE",
"137 340 OFFCURVE",
"137 250 CURVE SMOOTH",
"137 160 OFFCURVE",
"113 -99 OFFCURVE",
"10 -236 CURVE",
"47 -271 LINE",
"146 -180 OFFCURVE",
"272 28 OFFCURVE",
"272 250 CURVE SMOOTH",
"272 472 OFFCURVE",
"146 669 OFFCURVE",
"46 760 CURVE"
);
}
);
width = 296;
}
);
unicode = 0029;
},
{
color = 4;
glyphname = emdash;
layers = (
{
layerId = "7BBBACCF-9772-44A1-910F-14DC7866E88D";
paths = (
{
closed = 1;
nodes = (
"52 368 LINE",
"52 260 LINE",
"793 263 LINE",
"793 368 LINE"
);
}
);
width = 845;
}
);
leftKerningGroup = hyphen;
rightKerningGroup = hyphen;
unicode = 2014;
},
{
color = 4;
glyphname = endash;
layers = (
{
layerId = "7BBBACCF-9772-44A1-910F-14DC7866E88D";
paths = (
{
closed = 1;
nodes = (
"52 368 LINE",
"52 260 LINE",
"511 263 LINE",
"511 368 LINE"
);
}
);
width = 563;
}
);
leftKerningGroup = hyphen;
rightKerningGroup = hyphen;
unicode = 2013;
},
{
color = 4;
glyphname = hyphen;
layers = (
{
layerId = "7BBBACCF-9772-44A1-910F-14DC7866E88D";
paths = (
{
closed = 1;
nodes = (
"51 368 LINE",
"51 260 LINE",
"419 263 LINE",
"419 368 LINE"
);
}
);
width = 471;
}
);
leftKerningGroup = hyphen;
rightKerningGroup = hyphen;
unicode = 002D;
},
{
color = 4;
glyphname = guillemetright;
layers = (
{
layerId = "7BBBACCF-9772-44A1-910F-14DC7866E88D";
paths = (
{
closed = 1;
nodes = (
"162 508 LINE",
"348 275 LINE",
"348 274 LINE",
"159 32 LINE",
"206 -17 LINE",
"473 261 LINE",
"473 285 LINE",
"209 554 LINE"
);
},
{
closed = 1;
nodes = (
"38 437 LINE",
"136 268 LINE",
"136 267 LINE",
"36 98 LINE",
"83 60 LINE",
"253 259 LINE",
"253 282 LINE",
"84 476 LINE"
);
}
);
width = 493;
}
);
unicode = 00BB;
},
{
color = 4;
glyphname = guilsinglright;
layers = (
{
layerId = "7BBBACCF-9772-44A1-910F-14DC7866E88D";
paths = (
{
closed = 1;
nodes = (
"33 498 LINE",
"215 275 LINE",
"215 274 LINE",
"33 39 LINE",
"88 -16 LINE",
"359 262 LINE",
"359 284 LINE",
"90 553 LINE"
);
}
);
width = 378;
}
);
leftKerningGroup = guilsinglright;
rightKerningGroup = guilsinglright;
unicode = 203A;
},
{
color = 4;
glyphname = .notdef;
layers = (
{
layerId = "7BBBACCF-9772-44A1-910F-14DC7866E88D";
paths = (
{
closed = 1;
nodes = (
"30 500 LINE",
"30 0 LINE",
"483 0 LINE",
"483 500 LINE"
);
},
{
closed = 1;
nodes = (
"352 72 LINE",
"162 72 LINE",
"162 428 LINE",
"352 428 LINE"
);
}
);
width = 529;
}
);
},
{
color = 4;
glyphname = cent;
layers = (
{
layerId = "7BBBACCF-9772-44A1-910F-14DC7866E88D";
paths = (
{
closed = 1;
nodes = (
"257 -5 LINE",
"257 -137 LINE",
"340 -137 LINE",
"341 -6 LINE"
);
},
{
closed = 1;
nodes = (
"347 506 LINE",
"348 626 LINE",
"259 626 LINE",
"260 503 LINE"
);
},
{
closed = 1;
nodes = (
"334 -14 LINE",
"397 -6 OFFCURVE",
"464 21 OFFCURVE",
"525 105 CURVE",
"479 150 LINE",
"442 102 OFFCURVE",
"385 71 OFFCURVE",
"329 73 CURVE SMOOTH",
"231 77 OFFCURVE",
"197 168 OFFCURVE",
"197 268 CURVE SMOOTH",
"197 381 OFFCURVE",
"243 442 OFFCURVE",
"307 446 CURVE SMOOTH",
"325 447 OFFCURVE",
"365 442 OFFCURVE",
"380 413 CURVE",
"372 399 OFFCURVE",
"368 381 OFFCURVE",
"368 369 CURVE SMOOTH",
"368 341 OFFCURVE",
"385 303 OFFCURVE",
"436 304 CURVE SMOOTH",
"479 305 OFFCURVE",
"503 340 OFFCURVE",
"503 379 CURVE SMOOTH",
"503 444 OFFCURVE",
"447 507 OFFCURVE",
"336 515 CURVE",
"268 513 LINE",
"137 491 OFFCURVE",
"51 375 OFFCURVE",
"51 239 CURVE SMOOTH",
"51 90 OFFCURVE",
"145 0 OFFCURVE",
"265 -14 CURVE"
);
}
);
width = 565;
}
);
unicode = 00A2;
},
